<svg xmlns="http://www.w3.org/2000/svg" viewBox="0 0 1116.18 405.7"><defs><style>.cls-1{fill:#efeaea;}.cls-2{fill:#66351a;}.cls-3{fill:#472515;}.cls-4{fill:#253b4c;}.cls-5{fill:#bde2e7;}.cls-6{fill:#324d64;}.cls-7{fill:#87602e;}.cls-8{fill:#f5eac3;}.cls-9{fill:#211918;}.cls-10{fill:#e69f7f;}</style></defs><g id="Capa_2" data-name="Capa 2"><g id="ficha_pg4" data-name="ficha pg4"><rect y="85.18" width="322.37" height="219.85"/><path class="cls-1" d="M255.73,86.22c-.49,4.75-3.72,38.41-.87,64.79a51.49,51.49,0,0,1-19.34.85l.27-11.38a2,2,0,0,0-2-2.06H188.32a2.19,2.19,0,0,0-2.18,2.23l.27,12.4c-6.86-.12-76.48-1.42-112.81-5.42,4.12-10.34,1.06-55.56.64-61.41Z"/><path class="cls-2" d="M262.09,149.79a.14.14,0,0,1,.15,0,.18.18,0,0,1,.06.13c-1.12,9.09,1.41,23.76,2.55,29.64a2.12,2.12,0,0,1-1.59,2.46c-3.76.9-7.78,1.59-11.69,2.12V152.76A48,48,0,0,0,262.09,149.79Z"/><path class="cls-3" d="M255.44,146.1a7.49,7.49,0,0,1,6,2.82,42.32,42.32,0,0,1-5.59,1.84C255.71,149.23,255.57,147.67,255.44,146.1Z"/><path class="cls-2" d="M187.47,170.55V154.11h0v-.52h0l-.29-13a1.14,1.14,0,0,1,.33-.82,1.12,1.12,0,0,1,.81-.35h45.46a1,1,0,0,1,.69.3.92.92,0,0,1,.28.7l-.29,12.29h0l.3,16.71Z"/><path class="cls-2" d="M229.7,170.61v28.92a.94.94,0,0,1-.94.94H196.87a1.14,1.14,0,0,1-1.13-1.13V171.4Z"/><path class="cls-2" d="M194.7,171.42v17c-11,.89-24.55,1.14-38.73,1V153.34c15.89.48,27.9.71,30.46.75v17.52Z"/><path class="cls-2" d="M230.74,170.59l5.1-.12-.32-17.57a52.16,52.16,0,0,0,9.46.51v31.5c-6.9.68-12.54.86-14.24.91Z"/><path class="cls-4" d="M257.14,184.35c1.59,4.54,15.86,46.76,12.59,92.47l-33.14-40.41-5.79-49.55A198.15,198.15,0,0,0,257.14,184.35Z"/><path class="cls-2" d="M246,184.81V153.37c1.59-.09,3.09-.25,4.51-.45v31.37C249,184.49,247.48,184.66,246,184.81Z"/><path class="cls-2" d="M154.93,153.3v36.1l-5.33-.07v-36.2Z"/><path class="cls-2" d="M100.84,187.39v.09L91.7,187V150.28c18,1.31,39.09,2.22,56.86,2.82v36.21c-15.91-.29-32.27-1-46.69-1.78v0Z"/><path class="cls-4" d="M75.16,186.92c7.11.5,15.88,1.06,25.57,1.59l-4.65,47.9L62.93,276.84c-3.38-47.31,12.56-89.22,12.75-89.72Z"/><path class="cls-2" d="M82.65,149.55v36.83c-10.79-.7-19.07-1.33-23.05-1.65a2.21,2.21,0,0,1-2-1.87c-2.17-14,1-32.86,1.56-36.3A220.46,220.46,0,0,0,82.65,149.55Z"/><path class="cls-3" d="M59.83,145.64a20.56,20.56,0,0,1,14.28-6.15,28.61,28.61,0,0,1-1.59,8C67.53,146.94,63.22,146.32,59.83,145.64Z"/><path class="cls-2" d="M83.69,186.45v-36.8q3.39.28,7,.55v36.69Z"/><path class="cls-5" d="M1,304V86.22H73.19c.3,4.22,2.4,35.4,1,52.22a21.55,21.55,0,0,0-15.11,6.47l-.71.64.06.06a.72.72,0,0,0-.26.42c-.41,2.24-3.91,22.28-1.62,37a3.23,3.23,0,0,0,2.95,2.75c3,.23,8.24.64,15.15,1.12-1.18,3.14-22.39,61-8.59,117.09Z"/><path class="cls-5" d="M154.35,304c8.11-23.06,7.45-62.25,7.36-66.13,2.44.12,5.1.21,7.95.21,3.2,0,6.61-.1,10.16-.35-.07,2.93-.86,42.89,7.36,66.27Z"/><path class="cls-6" d="M188.28,304c-8.42-23.53-7.46-64.65-7.42-66.36a116.45,116.45,0,0,0,17.5-2.64l-.24-1c-24.89,5.87-50.36,1.47-50.62,1.42l-.18,1a130,130,0,0,0,13.35,1.38c.08,3.34.82,43.17-7.42,66.18H67.14A160.25,160.25,0,0,1,63,278.34L97,237l.1-.12,4.68-48.26c29.69,1.62,67.66,2.9,92.93.89v9.88a2.17,2.17,0,0,0,2.17,2.17h31.89a2,2,0,0,0,2-2v-4.24l4.83,41.39,0,.15,34,41.5A159.51,159.51,0,0,1,265.53,304Z"/><path class="cls-5" d="M321.33,304H266.6c13.41-54.48-6.19-113.39-8.43-119.82,1.81-.33,3.6-.7,5.34-1.12a3.16,3.16,0,0,0,2.36-3.67c-1.13-5.83-3.64-20.37-2.54-29.31a1.19,1.19,0,0,0-.46-1.09l-.09-.05c-.46-.68-3-4.14-7.41-3.86-1.88-25.38,1-54.84,1.4-58.84h64.56Z"/><path d="M212.24,157.51c-3.09,0-8.32.5-8.32,2.35s5.23,2.35,8.32,2.35,8.32-.49,8.32-2.35S215.33,157.51,212.24,157.51Z"/><path class="cls-2" d="M212.24,161.17c-4.45,0-7.1-.86-7.28-1.29.18-.46,2.83-1.33,7.28-1.33s7,.84,7.27,1.31C219.27,160.33,216.63,161.17,212.24,161.17Z"/><rect x="443.62" width="300.41" height="405.7"/><rect class="cls-5" x="444.66" y="1.04" width="298.33" height="403.62"/><path d="M452.77,389.31c36-38.31,52.29-34.26,52.45-34.22l1.88.56-1.36-1.42a7.73,7.73,0,0,1-1.83-8.46c1.88-3.44,5.27-4.29,10.36-2.61l3.57,1.17-3.12-2.1c-4.53-3.06-2-10.76-1.46-11.69.71-1.29,5.52-4.67,11.54-3.12l.36.09,157.56-232,.73-.36-.34-.21,25.8-38c9.52,1.77,15.72.2,18.44-4.69a10.55,10.55,0,0,0,1-7c-1.27-6.9-4-11.79-8.49-15-.59-.42-1.17-.83-1.73-1.28-6.39-5.13-12.45-7.43-18-6.82s-10.19,4.65-11.06,9.8c-.6,3.56.46,7.26,3.18,11L452,388.66Z"/><path class="cls-7" d="M693.56,42.94l-.22-.3c-2.69-3.63-3.77-7.18-3.21-10.54.8-4.69,5-8.36,10.15-8.93a15.07,15.07,0,0,1,1.65-.09c4.82,0,10.05,2.24,15.58,6.68.57.46,1.17.89,1.81,1.35,4.19,3,6.82,7.64,8,14.27a9.49,9.49,0,0,1-.92,6.31c-2.5,4.51-8.45,5.89-17.67,4.11l-.33-.06-.82,1.2L691.33,46.15Z"/><polygon class="cls-8" points="690.74 47.01 707.03 57.8 702.79 64.05 686.5 53.11 690.74 47.01"/><polygon class="cls-8" points="685.9 53.96 702.21 64.91 696.18 73.79 679.46 63.23 685.9 53.96"/><path class="cls-8" d="M678.86,64.09,695.6,74.65,682.22,94.34c-9.59-6.12-11.35-16.93-11.56-18.46Z"/><path class="cls-8" d="M669.81,77.11c.65,3.33,3.11,12.31,11.47,17.86-3.37,1.45-15.87,6.14-23.87,0Z"/><path class="cls-8" d="M656.83,95.79a17.42,17.42,0,0,0,10.83,3.35,36.56,36.56,0,0,0,13.26-2.88l-7.43,10.94c-3.93.52-13.2-7.54-16.88-11.11Z"/><path class="cls-8" d="M656,97c2.18,2.09,11.6,10.85,16.76,11.3l-4.87,7.17c-9.93-2.25-15.7-10-16.74-11.49Z"/><path class="cls-7" d="M650.53,104.85c1.54,2.13,7.28,9.19,16.75,11.5l-142.57,210c-6.36-1.45-11.47,2.09-12.36,3.72s-2.58,7.82.23,11.57c-4.5-1-7.73.26-9.62,3.75a8.83,8.83,0,0,0,1.12,8.53c-4.49-.25-19.51,1.56-47.52,30Z"/><rect x="852.2" y="119.59" width="263.98" height="155.62"/><path class="cls-9" d="M999.83,165.89l4.58,7.56a12.65,12.65,0,0,1,1.77,7.56c-.36,4.28-.63,9-.58,13.05H990.79c-.43-1.63-.61-2.72-.62-2.77-.86-3.73-2.66-5.51-4-6.33a1.63,1.63,0,0,0-1.65,0,1.61,1.61,0,0,0-.84,1.43V215l-13.8,10.16-9.07-5.44a5.31,5.31,0,0,1-2.56-4.18l-2-28a9.07,9.07,0,0,1,1.32-5.42l6.07-10a12.24,12.24,0,0,0,1.82-6.24,87.54,87.54,0,0,0-1.56-15.56h34.89c-.57,3.51-1,6.34-1,7.79A13.85,13.85,0,0,0,999.83,165.89Z"/><path class="cls-10" d="M1008.25,205.25a3,3,0,0,1,1.66,1.43,3.66,3.66,0,0,1-.92,4,12.39,12.39,0,0,1-9.6-2.06c-4.66-3.31-7.13-9.54-8.31-13.57h14.54C1005.75,200.35,1006.46,204.47,1008.25,205.25Z"/><path class="cls-10" d="M984.18,215.93l6.05,4.83a7.26,7.26,0,0,1,3,4.84,8,8,0,0,1-2,6l-.42.5a5.83,5.83,0,0,1-7.48,1.23l-12.55-7.53Z"/><path class="cls-10" d="M990.87,219.94,984.71,215v-6l6.39,3.59a5.34,5.34,0,0,1,2.22,6.91l-.9,1.91A9.07,9.07,0,0,0,990.87,219.94Z"/><path class="cls-10" d="M963.75,149.32a250.67,250.67,0,0,0-7.3-28.69h48.93c-2,5.68-4.82,19.38-6.41,28.82v-.13Z"/><path class="cls-5" d="M1115.14,274.17H853.24V120.63H955.36c1.07,3.32,9.25,29.19,9.09,45.28a11.26,11.26,0,0,1-1.67,5.71l-6.07,10a10.17,10.17,0,0,0-1.47,6l2,28a6.32,6.32,0,0,0,3.07,5l22.58,13.55a6.86,6.86,0,0,0,8.8-1.45l.43-.51a9,9,0,0,0,2.19-6.74,7.55,7.55,0,0,0-1.14-3.12l1.13-2.4a6.39,6.39,0,0,0-2.65-8.27l-6.9-3.87V186.36a.57.57,0,0,1,.31-.52.53.53,0,0,1,.59,0c1.19.72,2.77,2.29,3.54,5.64.08.52,2.08,12.65,9.63,18a13.51,13.51,0,0,0,10.55,2.21l.13,0,.11-.09a4.71,4.71,0,0,0,1.29-5.35,3.94,3.94,0,0,0-2.19-2c-.55-.24-3.19-2.48-1.45-23.2a13.65,13.65,0,0,0-1.92-8.19l-4.58-7.56a12.78,12.78,0,0,1-1.87-7.16c.21-5.38,4.91-30,7.64-37.56h108.65Z"/></g></g></svg>