<svg xmlns="http://www.w3.org/2000/svg" viewBox="0 0 269.64 814.06"><defs><style>.cls-1,.cls-12,.cls-5,.cls-7{fill:#fff;}.cls-1,.cls-11,.cls-5,.cls-7,.cls-9{stroke:#000;stroke-miterlimit:10;}.cls-2{fill:#699eaa;}.cls-3{fill:#a51a1a;}.cls-4{fill:#e69f7f;}.cls-5{stroke-width:0.21px;}.cls-6{fill:#c2476e;opacity:0.56;}.cls-7,.cls-9{stroke-width:0.75px;}.cls-8{fill:#af1918;}.cls-10,.cls-9{fill:#efeaea;}.cls-13{fill:#b5ddda;}</style></defs><g id="Capa_2" data-name="Capa 2"><g id="ficha_pg2" data-name="ficha pg2"><rect class="cls-1" x="0.5" y="0.5" width="266.42" height="194.72"/><rect x="1.52" y="424.86" width="266.41" height="194.96"/><path class="cls-2" d="M25.81,503.67a11.78,11.78,0,0,1,8.3-3.81l-.06-.89a13,13,0,0,0-8.3,3.46c-.28-2.52-.64-9.74,3.5-15.55,3.08-4.33,8-7,14.67-8,.13,0,12.79-2.86,22.35,4.05,4.85,3.52,8.09,8.93,9.68,16.11C49.43,503,35.68,529.54,33.88,533.27c-4-2.07-8.51-5.4-10.67-10.4C20.84,517.41,21.71,511,25.81,503.67Z"/><path class="cls-3" d="M76.14,499.93c.3,1.52.53,3.12.69,4.79-10,4.11-24.79,12.93-36.1,31.3a36.31,36.31,0,0,1-6-2.35C36.4,530.11,50,503.78,76.14,499.93Z"/><path class="cls-2" d="M88,502.23c10.56-.08,18.48,2.79,23.51,8.54,7.37,8.42,6.08,20.37,6,21.34-.56,1.1-8.87,16.62-38.09,29.3A70.07,70.07,0,0,0,54.08,579.6c-11.37,13.06-14.93,26.28-10.63,39.31H42.3c-1.81-3.35-22.72-43.77-2.48-79.59C58.22,506.76,87.77,502.26,88,502.23Z"/><path class="cls-2" d="M189.64,486.66a15.21,15.21,0,0,1,8.62-5.87h0l.17,0c.22-.06,22.18-5,28,11.44a28.34,28.34,0,0,1,.46,20c-2.37,6.42-7.24,11.9-14.49,16.35-13.69-24.7-36.8-36-40.79-37.85a20.62,20.62,0,0,1,6.3-10.33c4.89-4,11.49-4,19.16-.14a15.74,15.74,0,0,0-8.21,6Z"/><path class="cls-3" d="M171.09,497.46a12.9,12.9,0,0,1,.33-5.92c4.31,2,26.85,13.24,40.25,37.43-1.63,1-3.37,1.86-5.22,2.72-13.78-20.85-34.51-33.42-34.84-33.62l-.26-.11A1.17,1.17,0,0,1,171.09,497.46Z"/><path class="cls-2" d="M170.86,498.73a1,1,0,0,0,.41.18c1.92,1.17,42.65,26.55,46.09,64.64,0,.32,1.81,32-5.37,55.36h-1.71c-.45-21.26-7-37.39-19.39-47.95a59.44,59.44,0,0,0-28.67-13c-34.29-5.79-43.18-24.27-43.84-25.77.15-1.34,1.33-13.4-6.18-22A21.46,21.46,0,0,0,110,508a39.4,39.4,0,0,1,14.49-11.44C133.59,492.3,149,489.23,170.86,498.73Z"/><path class="cls-4" d="M117.57,533.75c.06.76.13,1.51.22,2.26.08,5.64-1.29,17-11.6,28.73l.67.59c8.29-9.44,10.91-18.65,11.6-25,3.68,19,15.78,34,15.92,34.22l.7-.57c-.15-.18-14-17.34-16.4-38.08,0-.52,0-1-.05-1.4,3.25,5.36,14.34,19.38,43.44,24.29a58.46,58.46,0,0,1,28.24,12.83c12.21,10.37,18.62,26.28,19.08,47.26h-165c-4.34-12.8-.86-25.82,10.37-38.72a69.17,69.17,0,0,1,25-18C105.23,551.17,115,537.91,117.57,533.75Z"/><path class="cls-5" d="M267,618.91H212.92c7.14-23.49,5.36-55.09,5.34-55.43-1-11.62-5.53-22.07-11.32-31,10.78-5,17.79-11.74,20.83-20a29.24,29.24,0,0,0-.48-20.59c-5.82-16.41-26.78-12.46-28.9-12-10.58-5.73-17.27-3.28-21-.21-6.08,5-8.09,14.28-7.21,17.83-21.65-9.09-37-6-46.1-1.68a40.23,40.23,0,0,0-14.75,11.66c-5.16-4.12-12.34-6.18-21.38-6.11a52.46,52.46,0,0,0-10.25,3c-1-10.2-4.68-17.65-10.91-22.16-9.88-7.15-22.93-4.23-23-4.2-6.88,1-12,3.81-15.23,8.34-5,7-3.78,15.66-3.56,17-4.18,7.48-5.05,14.17-2.58,19.88,4,9.17,15.18,12.83,17.87,13.6-.4.67-.81,1.35-1.21,2-19.83,35.08-.66,74.47,2.25,80H2.42V425.75H267Z"/><rect x="1.43" y="246.26" width="267.2" height="144.33"/><path class="cls-4" d="M32.46,247H239.27c-.9,40.5-11.87,70.65-32.6,89.61-24.77,22.66-56.4,22.35-65.5,21.72a58.55,58.55,0,0,0-6.9,0c-30.46,1.59-54.7-6.43-72.06-23.84C48.74,321,41.33,303.61,37.27,287.9l.15-.17-.25-.21A153.29,153.29,0,0,1,32.46,247Z"/><path class="cls-4" d="M238.78,291.9l.08.44c.23,0,5.69-1.07,5.07-10.66a16.25,16.25,0,0,1,3.57.19l.19-.88c-.29-.06-6.77-1.34-11.63,2.56.82-3.75,1.54-7.63,2.12-11.63,1.42-.12,7-.3,10.72,3.49,3.14,3.24,4.12,8.5,2.93,15.61,0,.08-2.42,8.48-9,11.65-3.56,1.7-7.72,1.59-12.35-.3a129.39,129.39,0,0,0,5.34-17.63l.12.12a12,12,0,0,1,7.11-3.1c.56,8.7-4.11,9.66-4.32,9.7Z"/><path class="cls-4" d="M24.63,285.55a18.18,18.18,0,0,1,3.58-.26C27.55,295,33,296,33.28,296l.15-.89c-.21,0-4.92-1-4.32-9.81a12.45,12.45,0,0,1,7.27,2.7,128.4,128.4,0,0,0,5.15,15.8c-4.57,1.8-8.68,1.89-12.22.23-6.6-3.1-9.07-11.26-9.08-11.29-1.21-7.24-.25-12.46,2.85-15.53,3.75-3.7,9.52-3,10.45-2.91.62,3.89,1.44,8,2.49,12.29-4.86-3.31-11.28-2-11.58-1.95Z"/><circle class="cls-6" cx="74.72" cy="293.59" r="23.56"/><circle class="cls-6" cx="195.55" cy="290.26" r="23.56"/><path class="cls-1" d="M2.21,389.82V247H31.56a148.52,148.52,0,0,0,1.82,26.37c-1.6-.2-7.12-.56-10.93,3.2-3.33,3.28-4.37,8.77-3.09,16.37.1.35,2.6,8.62,9.56,11.9a13.56,13.56,0,0,0,5.86,1.29,19.33,19.33,0,0,0,7.1-1.49,92.7,92.7,0,0,0,19.69,30.44c14.84,14.89,34.63,23,59,24.16.48,2.92,3.48,23.25-3.33,30.55Z"/><path class="cls-4" d="M118.4,389.82c6.38-8,3.64-27,3.06-30.52q6.24.26,12.86-.08a56.53,56.53,0,0,1,6.78,0c1.41.1,3.36.19,5.73.19,2,0,4.32-.07,6.87-.25-.87,3.74-5.07,23.76,2.07,30.62Z"/><path class="cls-7" d="M267.86,389.82H157.16c-8-5.79-3.17-27.9-2.52-30.69,14.12-1.12,35.08-5.76,52.64-21.82,9.77-8.94,17.39-20.34,22.84-34.1a19.25,19.25,0,0,0,7.24,1.57,13.24,13.24,0,0,0,5.84-1.31c7-3.34,9.4-11.85,9.51-12.26,1.25-7.45.19-13-3.16-16.43-3.85-4-9.44-3.91-11.24-3.78a205.66,205.66,0,0,0,1.86-24h27.69Z"/><path d="M72.67,294.29A47.17,47.17,0,0,0,81,316c7.22,10.25,22.31,22.55,53.21,23h.94a60.73,60.73,0,0,0,22.34-4.74c11.69-4.82,27.79-15.65,38.31-39.8a14.28,14.28,0,0,1,5.4,4.48l.73-.53a15.94,15.94,0,0,0-13.63-6.33l.09.89a15.3,15.3,0,0,1,6.59,1.12c-10.39,23.86-26.27,34.56-37.79,39.32a58,58,0,0,1-22.95,4.68c-30.51-.43-45.38-12.5-52.48-22.56a45.88,45.88,0,0,1-8.19-21.63,12,12,0,0,1,7.28-.62l.2-.88a13.68,13.68,0,0,0-12.84,4.13l.69.58A13.23,13.23,0,0,1,72.67,294.29Z"/><polygon points="269.19 733.26 269.19 668.53 2.9 668.53 2.9 814.06 269.19 814.06 269.19 734.18 269.64 733.63 269.19 733.26"/><path class="cls-4" d="M157.89,669.3c-.8,2.45-3.81,12.91-.74,21.94-19.29,10.41-40.38.62-43.22-.79,3.09-9,1.12-18.85.58-21.15Z"/><path class="cls-8" d="M157.75,691.91l18.72,3.54c-23.71,15.24-44.38,14.2-57.62,10.59a66.21,66.21,0,0,1-22.91-11.31l17.4-3.61a58,58,0,0,0,24.39,5.72A41.4,41.4,0,0,0,157.75,691.91Z"/><path class="cls-1" d="M3.68,669.3h110c.42,1.76,2.63,11.86-.56,21L49.34,703.51a64.83,64.83,0,0,0-25.11,12.63l-20.55,17Z"/><path class="cls-9" d="M268.41,813.29h-51.8L227,771.56l-.87-.22-10.44,41.95H57L46.53,771.34l-.87.22L56,813.29H3.68V734.21l21.1-17.4a63.83,63.83,0,0,1,24.75-12.45L94.85,695a66.54,66.54,0,0,0,41,14.22c11.88,0,26.26-3.22,41.91-13.49L221.82,704a69.58,69.58,0,0,1,27,13.6l19.55,16.12Z"/><path class="cls-1" d="M268.41,732.63l-19-15.67A70.7,70.7,0,0,0,222,703.18l-64-12.1c-3.2-9.22.21-20.07.79-21.78H268.41Z"/><polygon points="157.1 758.85 179.38 767.82 198.14 758.83 198.14 737.45 157.1 737.1 157.1 758.85"/><polygon class="cls-8" points="158 738.01 197.24 738.34 197.24 744.45 158 744.45 158 738.01"/><polygon class="cls-10" points="158 745.34 197.24 745.34 197.24 758.27 179.35 766.84 158 758.25 158 745.34"/><path class="cls-11" d="M94.83,65.91c-3.1-2.84-14.74-12.57-26.64-10.34-6,1.14-11.16,5.23-15.26,12.2a13.19,13.19,0,0,0-8.26-.91,6.51,6.51,0,0,0-5.24,4.26A8.09,8.09,0,0,0,40,77.9a8,8,0,0,0,5.52,3.92,11,11,0,0,0,2,.18c.26,0,.5,0,.75,0-1.25,9.23-1.21,24,8.2,36.11.34.39,8,9,13.78,10a14.06,14.06,0,1,0,24.51,13.26V150h.93V54h-.93Z"/><path class="cls-12" d="M45.78,80.52a6.79,6.79,0,0,1-5.1-8.94A5.23,5.23,0,0,1,45,68.15a12.08,12.08,0,0,1,7.3.79c-.7,1.28-1.37,2.63-2,4.09a51.24,51.24,0,0,0-1.72,7.59A10.72,10.72,0,0,1,45.78,80.52Z"/><path class="cls-13" d="M94.83,136.7a13.19,13.19,0,1,1,0-.65Z"/><path class="cls-4" d="M94.83,92.9c-4.51-6.44-11.38-9.22-16.5-10.41-6.6-1.54-12.86-1-13.84-.4l.48.76c.43-.28,3.92-.76,8.61-.25-4.44,12.44,3.12,22.53,8.3,26.54,1.06.82,1.55,1,1.81,1a.46.46,0,0,0,.28-.1l.19-.58-.49.15-.27-.26a.37.37,0,0,1,.31-.12c-.68-.16-5-3.44-7.84-8.68a21.22,21.22,0,0,1-1.43-17.72l-.61-.22a37,37,0,0,1,4.3.74c5.25,1.22,12.4,4.16,16.7,11.19v36.86A14,14,0,0,0,71,127.24c-5.51-.39-13.67-9.66-13.73-9.73-9.29-12-9.25-26.59-8-35.62a18.38,18.38,0,0,0,7.88-3.21l-.81-1.06a17.49,17.49,0,0,1-6.86,2.88,51,51,0,0,1,1.63-7.14c.63-1.43,1.29-2.76,2-4l.12.07.67-1.14-.15-.08c4-6.71,8.87-10.65,14.64-11.73,12.39-2.34,25,9.28,26.47,10.69Z"/><path class="cls-11" d="M209.32,116.27c14.78-19.17,6.31-44.71,6.21-45-4.46-10.17-10.49-16-17.92-17.43-11.88-2.23-23.53,7.5-26.64,10.35V54H170v96H171v-8.67A14.07,14.07,0,1,0,196.68,130l1-.49a8.85,8.85,0,1,0,11.65-13.24Z"/><path class="cls-13" d="M197.31,136.37a13.17,13.17,0,0,1-26.34.33v-.65a13.17,13.17,0,0,1,26.34.32Z"/><path class="cls-4" d="M196.24,129.21A14.05,14.05,0,0,0,171,131.42V93.19c4.3-7,11.45-10,16.71-11.19a36.5,36.5,0,0,1,4.3-.73l-.62.22a21.22,21.22,0,0,1-1.43,17.72c-2.86,5.24-7.16,8.52-7.84,8.68a.36.36,0,0,1,.31.12l-.33.24-.43-.13.19.58a.46.46,0,0,0,.28.09c.26,0,.75-.19,1.81-1,5.18-4,12.74-14.1,8.3-26.54,4.69-.51,8.18,0,8.61.24l.48-.75c-1-.64-7.24-1.14-13.84.4-5.12,1.19-12,4-16.5,10.41V65.43c1.48-1.41,14.08-13,26.47-10.7,7.12,1.34,12.93,7,17.25,16.86.08.26,8.41,25.4-6.12,44.18a8.85,8.85,0,0,0-13.35,7.64,8.74,8.74,0,0,0,1.85,5.39Z"/><path class="cls-13" d="M204.09,131.38a8,8,0,1,1,8-8A8,8,0,0,1,204.09,131.38Z"/></g></g></svg>