<svg xmlns="http://www.w3.org/2000/svg" viewBox="0 0 321.2 849.54"><defs><style>.cls-1{fill:#699eaa;}.cls-2{fill:#e69f7f;}.cls-3{fill:#324d64;}.cls-4{fill:#eeeb87;}.cls-5{fill:#66351a;}.cls-6{fill:#c2476e;opacity:0.4;}.cls-7{fill:#fff;}</style></defs><g id="Capa_2" data-name="Capa 2"><g id="ficha_pg2" data-name="ficha pg2"><rect class="cls-1" x="6.36" y="-4.91" width="112.78" height="125.5" transform="translate(120.59 -6.36) rotate(90)"/><rect class="cls-2" x="6.36" y="439.34" width="112.78" height="125.5" transform="translate(564.84 437.89) rotate(90)"/><rect class="cls-3" x="6.36" y="141.28" width="112.78" height="125.5" transform="translate(266.78 139.83) rotate(90)"/><rect class="cls-4" x="6.36" y="731.85" width="112.78" height="125.5" transform="translate(857.35 730.4) rotate(90)"/><rect class="cls-5" x="6.36" y="288.67" width="112.78" height="125.5" transform="translate(414.17 287.23) rotate(90)"/><rect class="cls-6" x="6.36" y="585.59" width="112.78" height="125.5" transform="translate(711.09 584.14) rotate(90)"/><path class="cls-7" d="M163.17,20.74a9.52,9.52,0,0,1-3.54-.64,8.34,8.34,0,0,1-2.81-1.81A8.2,8.2,0,0,1,155,15.56a8.66,8.66,0,0,1-.67-3.45A8.65,8.65,0,0,1,155,8.67a8.1,8.1,0,0,1,1.87-2.73,8.48,8.48,0,0,1,2.82-1.81,10,10,0,0,1,7,0A7,7,0,0,1,169.4,6L168.26,7.1A6.42,6.42,0,0,0,166,5.56a7.81,7.81,0,0,0-2.72-.47,7.53,7.53,0,0,0-2.83.52,6.85,6.85,0,0,0-2.28,1.48,7,7,0,0,0-1.51,2.23,6.88,6.88,0,0,0-.55,2.79,6.89,6.89,0,0,0,.55,2.8,7,7,0,0,0,1.51,2.23,6.85,6.85,0,0,0,2.28,1.48,8,8,0,0,0,5.55,0,6.59,6.59,0,0,0,2.3-1.55l1.14,1.14a7.1,7.1,0,0,1-2.74,1.86A9.53,9.53,0,0,1,163.17,20.74Z" transform="translate(0 -1.45)"/><path class="cls-7" d="M173,10.39a1.22,1.22,0,0,1-.91-.38,1.32,1.32,0,0,1-.37-.95,1.29,1.29,0,1,1,2.57,0,1.33,1.33,0,0,1-.38.95A1.2,1.2,0,0,1,173,10.39Zm0,10.33a1.23,1.23,0,0,1-.91-.39,1.3,1.3,0,0,1-.37-.95,1.25,1.25,0,0,1,.37-.94,1.28,1.28,0,0,1,.91-.36,1.26,1.26,0,0,1,1.29,1.3,1.31,1.31,0,0,1-.38.95A1.21,1.21,0,0,1,173,20.72Z" transform="translate(0 -1.45)"/><path class="cls-7" d="M190.16,20.74a6.75,6.75,0,0,1-3.8-1,6.2,6.2,0,0,1-2.35-2.9,11.83,11.83,0,0,1-.8-4.57,10.74,10.74,0,0,1,1-4.83,6.86,6.86,0,0,1,2.73-2.95,8,8,0,0,1,4-1,10.27,10.27,0,0,1,2.18.22,5.83,5.83,0,0,1,1.85.7l-.71,1.4a4.19,4.19,0,0,0-1.5-.61A8.55,8.55,0,0,0,191,5a5.72,5.72,0,0,0-4.38,1.74A7.36,7.36,0,0,0,185,12c0,.35,0,.8.06,1.32a7.63,7.63,0,0,0,.28,1.56l-.61-.46a4.72,4.72,0,0,1,1-2.14,5.07,5.07,0,0,1,1.94-1.35,7,7,0,0,1,2.55-.46,6.7,6.7,0,0,1,3,.63A4.72,4.72,0,0,1,196,15.53a4.87,4.87,0,0,1-2.82,4.57A6.67,6.67,0,0,1,190.16,20.74Zm-.07-1.48a4.85,4.85,0,0,0,2.14-.45,3.34,3.34,0,0,0,1.47-1.28,3.52,3.52,0,0,0,.53-2,3.35,3.35,0,0,0-1.15-2.67,4.59,4.59,0,0,0-3.11-1,5,5,0,0,0-2.28.49,3.84,3.84,0,0,0-1.52,1.32,3.38,3.38,0,0,0,0,3.65,3.72,3.72,0,0,0,1.51,1.36A5.26,5.26,0,0,0,190.09,19.26Z" transform="translate(0 -1.45)"/><path class="cls-7" d="M197.65,20.6V19.36l7-6.91a10.7,10.7,0,0,0,1.45-1.66,4.26,4.26,0,0,0,.66-1.34A4.74,4.74,0,0,0,207,8.26a2.87,2.87,0,0,0-1-2.32,4.47,4.47,0,0,0-3-.85,7.06,7.06,0,0,0-2.66.46,5,5,0,0,0-2,1.43l-1.24-1.07a6.5,6.5,0,0,1,2.55-1.79,9.08,9.08,0,0,1,3.46-.63,7.52,7.52,0,0,1,3,.54,4.41,4.41,0,0,1,2,1.59,4.34,4.34,0,0,1,.69,2.45,5.93,5.93,0,0,1-.23,1.62,6.21,6.21,0,0,1-.82,1.69,13.88,13.88,0,0,1-1.73,2l-6.47,6.35L199,19h10.52V20.6Z" transform="translate(0 -1.45)"/><path class="cls-7" d="M215.29,12.72a3.56,3.56,0,0,1-2-.57A3.68,3.68,0,0,1,212,10.54a5.71,5.71,0,0,1-.48-2.42A5.79,5.79,0,0,1,212,5.69a3.68,3.68,0,0,1,1.34-1.61,3.81,3.81,0,0,1,4,0,3.87,3.87,0,0,1,1.35,1.6,5.74,5.74,0,0,1,.48,2.44,5.71,5.71,0,0,1-.48,2.42,3.84,3.84,0,0,1-1.35,1.61A3.57,3.57,0,0,1,215.29,12.72Zm0-1.09a2.3,2.3,0,0,0,1.91-.93,4.19,4.19,0,0,0,.71-2.58,4.19,4.19,0,0,0-.71-2.58,2.28,2.28,0,0,0-1.91-.94,2.26,2.26,0,0,0-1.91.94,4.19,4.19,0,0,0-.7,2.58,4.19,4.19,0,0,0,.7,2.58A2.27,2.27,0,0,0,215.31,11.63Zm-1.31,9,11.59-17H227l-11.59,17Zm11.71.12a3.54,3.54,0,0,1-2-.57,3.86,3.86,0,0,1-1.36-1.61,5.79,5.79,0,0,1-.48-2.43,5.71,5.71,0,0,1,.48-2.42,3.86,3.86,0,0,1,1.36-1.61,3.81,3.81,0,0,1,4,0,3.73,3.73,0,0,1,1.33,1.61,5.71,5.71,0,0,1,.48,2.42,5.79,5.79,0,0,1-.48,2.43,3.73,3.73,0,0,1-1.33,1.61A3.57,3.57,0,0,1,225.71,20.72Zm0-1.09a2.26,2.26,0,0,0,1.9-.94,4.12,4.12,0,0,0,.71-2.58,4.12,4.12,0,0,0-.71-2.58,2.41,2.41,0,0,0-3.8,0,4.12,4.12,0,0,0-.72,2.58,4.12,4.12,0,0,0,.72,2.58A2.25,2.25,0,0,0,225.71,19.63Z" transform="translate(0 -1.45)"/><path class="cls-7" d="M252.36,20.6v-17h6.35a9.1,9.1,0,0,1,3.71.69,5.39,5.39,0,0,1,2.38,2,5.66,5.66,0,0,1,.84,3.14,5.56,5.56,0,0,1-.84,3.09,5.33,5.33,0,0,1-2.38,2,9.1,9.1,0,0,1-3.71.69h-5.36l.8-.83V20.6Zm1.79-6.06-.8-.85h5.31a5.85,5.85,0,0,0,3.86-1.11,3.89,3.89,0,0,0,1.33-3.13,3.89,3.89,0,0,0-1.33-3.15,5.85,5.85,0,0,0-3.86-1.11h-5.31l.8-.85Zm9.79,6.06-4.36-6.16h1.94l4.38,6.16Z" transform="translate(0 -1.45)"/><path class="cls-7" d="M269.69,10.39a1.2,1.2,0,0,1-.91-.38,1.33,1.33,0,0,1-.38-.95,1.24,1.24,0,0,1,.38-.94,1.29,1.29,0,0,1,1.81,0,1.24,1.24,0,0,1,.38.94,1.33,1.33,0,0,1-.38.95A1.19,1.19,0,0,1,269.69,10.39Zm0,10.33a1.21,1.21,0,0,1-.91-.39,1.31,1.31,0,0,1-.38-.95,1.29,1.29,0,1,1,2.57,0,1.31,1.31,0,0,1-.38.95A1.2,1.2,0,0,1,269.69,20.72Z" transform="translate(0 -1.45)"/><path class="cls-7" d="M282.82,20.6V4.36l.77.83h-4.77V3.63h5.74v17Z" transform="translate(0 -1.45)"/><path class="cls-7" d="M295.37,20.74a6.07,6.07,0,0,1-3.49-1,6.85,6.85,0,0,1-2.4-3,11.2,11.2,0,0,1-.87-4.64,11.27,11.27,0,0,1,.87-4.64,6.88,6.88,0,0,1,2.4-2.95,6.43,6.43,0,0,1,7,0,7,7,0,0,1,2.41,3,11.1,11.1,0,0,1,.88,4.64,11,11,0,0,1-.88,4.64,6.94,6.94,0,0,1-2.41,3A6.07,6.07,0,0,1,295.37,20.74Zm0-1.6a4.31,4.31,0,0,0,2.61-.81A5.24,5.24,0,0,0,299.73,16a10.38,10.38,0,0,0,.63-3.85,10.36,10.36,0,0,0-.63-3.84A5.24,5.24,0,0,0,298,5.9a4.58,4.58,0,0,0-5.2,0A5.2,5.2,0,0,0,291,8.27a10.36,10.36,0,0,0-.63,3.84A10.38,10.38,0,0,0,291,16a5.2,5.2,0,0,0,1.77,2.37A4.33,4.33,0,0,0,295.37,19.14Z" transform="translate(0 -1.45)"/><path class="cls-7" d="M310,20.74a10.27,10.27,0,0,1-3.46-.59,6.93,6.93,0,0,1-2.62-1.59l.85-1.38a6,6,0,0,0,2.19,1.4,7.91,7.91,0,0,0,3,.56,4.92,4.92,0,0,0,3.28-1,3.12,3.12,0,0,0,1.13-2.5,3.37,3.37,0,0,0-.52-1.88,3.31,3.31,0,0,0-1.76-1.22,10.23,10.23,0,0,0-3.39-.44h-3.61L306,3.63h9.28V5.19h-8.58l.9-.85-.75,7.12-.9-.87h3.18a11.18,11.18,0,0,1,4.12.63A4.47,4.47,0,0,1,315.47,13a4.9,4.9,0,0,1,.69,2.62,5.13,5.13,0,0,1-.68,2.61,4.67,4.67,0,0,1-2,1.85A7.69,7.69,0,0,1,310,20.74Z" transform="translate(0 -1.45)"/><path class="cls-7" d="M155.81,49.67v-17h1.47L165,45.94h-.78l7.68-13.23h1.48v17H171.7V35.4h.41L165,47.52h-.85L157.07,35.4h.46V49.67Z" transform="translate(0 -1.45)"/><path class="cls-7" d="M178.75,39.47a1.23,1.23,0,0,1-.91-.39,1.3,1.3,0,0,1-.37-.94,1.25,1.25,0,0,1,1.28-1.31,1.26,1.26,0,0,1,.91.36,1.28,1.28,0,0,1,.38,1,1.31,1.31,0,0,1-.38.94A1.21,1.21,0,0,1,178.75,39.47Zm0,10.32a1.23,1.23,0,0,1-.91-.39,1.28,1.28,0,0,1-.37-.94,1.29,1.29,0,1,1,2.57,0,1.29,1.29,0,0,1-.38.94A1.21,1.21,0,0,1,178.75,49.79Z" transform="translate(0 -1.45)"/><path class="cls-7" d="M188.61,49.67V48.44l7-6.91a11.42,11.42,0,0,0,1.46-1.66,4.55,4.55,0,0,0,.65-1.34,4.74,4.74,0,0,0,.17-1.19,2.89,2.89,0,0,0-1-2.33,4.53,4.53,0,0,0-3-.85,7.3,7.3,0,0,0-2.66.46,5.13,5.13,0,0,0-2,1.43L188.1,35a6.59,6.59,0,0,1,2.55-1.8,9.11,9.11,0,0,1,3.46-.63,7.51,7.51,0,0,1,3,.55,4.2,4.2,0,0,1,2.64,4,5.68,5.68,0,0,1-.23,1.63,5.89,5.89,0,0,1-.82,1.68,13.29,13.29,0,0,1-1.73,2l-6.47,6.35-.49-.68h10.52v1.55Z" transform="translate(0 -1.45)"/><path class="cls-7" d="M207.75,49.82a10,10,0,0,1-3.47-.6,7,7,0,0,1-2.63-1.58l.85-1.39a6.19,6.19,0,0,0,2.21,1.41,8.18,8.18,0,0,0,3,.56A5,5,0,0,0,211,47.3a3.29,3.29,0,0,0,0-4.95,5.37,5.37,0,0,0-3.47-.92h-1.22V40.15l5.24-6.57.24.68h-9.45V32.71h10.9V34L208,40.51l-.85-.55h.66a6.68,6.68,0,0,1,4.56,1.35,4.49,4.49,0,0,1,1.52,3.49,5,5,0,0,1-.68,2.57,4.53,4.53,0,0,1-2,1.79A7.85,7.85,0,0,1,207.75,49.82Z" transform="translate(0 -1.45)"/><path class="cls-7" d="M219.92,41.8a3.54,3.54,0,0,1-2-.57,3.68,3.68,0,0,1-1.34-1.61,5.79,5.79,0,0,1-.48-2.43,5.71,5.71,0,0,1,.48-2.42,3.68,3.68,0,0,1,1.34-1.61,3.81,3.81,0,0,1,4,0,3.79,3.79,0,0,1,1.34,1.6,5.55,5.55,0,0,1,.49,2.43,5.64,5.64,0,0,1-.49,2.43,3.82,3.82,0,0,1-1.34,1.61A3.57,3.57,0,0,1,219.92,41.8Zm0-1.09a2.25,2.25,0,0,0,1.9-.94,4.12,4.12,0,0,0,.72-2.58,4.12,4.12,0,0,0-.72-2.58,2.42,2.42,0,0,0-3.81,0,4.19,4.19,0,0,0-.71,2.58,4.19,4.19,0,0,0,.71,2.58A2.25,2.25,0,0,0,219.94,40.71Zm-1.31,9,11.58-17h1.43l-11.58,17Zm11.71.12a3.54,3.54,0,0,1-2-.57A3.73,3.73,0,0,1,227,47.61a6.34,6.34,0,0,1,0-4.84,3.76,3.76,0,0,1,1.36-1.62,3.81,3.81,0,0,1,4,0,3.7,3.7,0,0,1,1.33,1.62,6.47,6.47,0,0,1,0,4.84,3.67,3.67,0,0,1-1.33,1.61A3.57,3.57,0,0,1,230.34,49.79Zm0-1.09a2.28,2.28,0,0,0,1.9-.93,4.19,4.19,0,0,0,.71-2.58,4.19,4.19,0,0,0-.71-2.58,2.42,2.42,0,0,0-3.81,0,4.19,4.19,0,0,0-.71,2.58,4.19,4.19,0,0,0,.71,2.58A2.29,2.29,0,0,0,230.34,48.7Z" transform="translate(0 -1.45)"/><path class="cls-7" d="M264.43,49.82a9.66,9.66,0,0,1-3.58-.65,8.25,8.25,0,0,1-2.83-1.8,8.39,8.39,0,0,1-1.87-2.74,9.29,9.29,0,0,1,0-6.88A8.27,8.27,0,0,1,258,35a8.75,8.75,0,0,1,2.85-1.8,9.65,9.65,0,0,1,3.57-.65,10.09,10.09,0,0,1,3.55.61A7.1,7.1,0,0,1,270.75,35l-1.11,1.14a6.44,6.44,0,0,0-2.35-1.53,8.34,8.34,0,0,0-2.77-.46,7.74,7.74,0,0,0-2.89.53,6.81,6.81,0,0,0-2.3,1.47,6.73,6.73,0,0,0-1.53,2.23,7.38,7.38,0,0,0,0,5.59,6.77,6.77,0,0,0,1.53,2.24,6.84,6.84,0,0,0,2.3,1.48,7.91,7.91,0,0,0,2.87.52,8.57,8.57,0,0,0,2.75-.44,6.39,6.39,0,0,0,2.39-1.48l1,1.36a8.06,8.06,0,0,1-2.83,1.61A10.38,10.38,0,0,1,264.43,49.82Zm4.5-2.38V41.19h1.72v6.47Z" transform="translate(0 -1.45)"/><path class="cls-7" d="M275.52,39.47a1.2,1.2,0,0,1-.9-.39,1.27,1.27,0,0,1-.38-.94,1.26,1.26,0,0,1,1.28-1.31,1.26,1.26,0,0,1,.91.36,1.28,1.28,0,0,1,.38,1,1.31,1.31,0,0,1-.38.94A1.21,1.21,0,0,1,275.52,39.47Zm0,10.32a1.2,1.2,0,0,1-.9-.39,1.25,1.25,0,0,1-.38-.94,1.21,1.21,0,0,1,.38-.94,1.29,1.29,0,0,1,1.81,0,1.24,1.24,0,0,1,.38.94,1.29,1.29,0,0,1-.38.94A1.21,1.21,0,0,1,275.52,49.79Z" transform="translate(0 -1.45)"/><path class="cls-7" d="M288.66,49.67V33.44l.77.82h-4.77V32.71h5.74v17Z" transform="translate(0 -1.45)"/><path class="cls-7" d="M299.8,49.82a10,10,0,0,1-3.46-.6,6.79,6.79,0,0,1-2.62-1.58l.85-1.39a5.93,5.93,0,0,0,2.19,1.41,8.07,8.07,0,0,0,3,.56,4.92,4.92,0,0,0,3.28-1,3.14,3.14,0,0,0,1.13-2.51,3,3,0,0,0-2.28-3.1,10.54,10.54,0,0,0-3.39-.43h-3.61l.87-8.51h9.28v1.55h-8.58l.9-.85-.75,7.13-.9-.88h3.18a11.09,11.09,0,0,1,4.11.63,4.5,4.5,0,0,1,2.25,1.76,4.94,4.94,0,0,1,.69,2.63,5.12,5.12,0,0,1-.68,2.6,4.63,4.63,0,0,1-2,1.86A7.69,7.69,0,0,1,299.8,49.82Z" transform="translate(0 -1.45)"/><path class="cls-7" d="M314.61,49.82a9.6,9.6,0,0,1-3.5-.58,4.92,4.92,0,0,1-2.26-1.69,4.38,4.38,0,0,1-.79-2.6,4.08,4.08,0,0,1,.77-2.49,4.83,4.83,0,0,1,2.23-1.58,11.47,11.47,0,0,1,7.08,0,5,5,0,0,1,2.27,1.58A4,4,0,0,1,321.2,45a4.32,4.32,0,0,1-.8,2.6,5,5,0,0,1-2.28,1.69A9.74,9.74,0,0,1,314.61,49.82Zm0-8.51a8.93,8.93,0,0,1-3.21-.51,4.4,4.4,0,0,1-2-1.46,3.75,3.75,0,0,1-.7-2.29,4,4,0,0,1,.74-2.41,4.56,4.56,0,0,1,2.07-1.54,9.34,9.34,0,0,1,6.26,0,4.66,4.66,0,0,1,2.1,1.54,3.91,3.91,0,0,1,.75,2.41,3.75,3.75,0,0,1-.7,2.29,4.36,4.36,0,0,1-2.05,1.46A9.12,9.12,0,0,1,314.61,41.31Zm0,7a5.94,5.94,0,0,0,3.52-.92,2.93,2.93,0,0,0,1.27-2.5,2.87,2.87,0,0,0-1.27-2.48,7.26,7.26,0,0,0-7,0,2.89,2.89,0,0,0-1.26,2.48,3,3,0,0,0,1.26,2.5A5.89,5.89,0,0,0,314.61,48.34Zm0-8.19a5.19,5.19,0,0,0,3.1-.82,2.79,2.79,0,0,0,0-4.48,6.19,6.19,0,0,0-6.12,0,2.81,2.81,0,0,0,0,4.48A5.12,5.12,0,0,0,314.61,40.15Z" transform="translate(0 -1.45)"/><path class="cls-7" d="M159.85,78.75v-6.3l.41,1.11-7.19-11.77H155l6.33,10.34h-1l6.32-10.34h1.79l-7.19,11.77.41-1.11v6.3Z" transform="translate(0 -1.45)"/><path class="cls-7" d="M171,68.55a1.21,1.21,0,0,1-.91-.39,1.31,1.31,0,0,1-.38-1,1.26,1.26,0,0,1,1.29-1.3,1.28,1.28,0,0,1,.91.36,1.25,1.25,0,0,1,.37.94,1.3,1.3,0,0,1-.37,1A1.23,1.23,0,0,1,171,68.55Zm0,10.32a1.21,1.21,0,0,1-.91-.39,1.31,1.31,0,0,1-.38-.94,1.29,1.29,0,1,1,2.57,0,1.3,1.3,0,0,1-.37.94A1.23,1.23,0,0,1,171,78.87Z" transform="translate(0 -1.45)"/><path class="cls-7" d="M180.86,78.75V77.51l7-6.9A11.18,11.18,0,0,0,189.36,69a4.34,4.34,0,0,0,.83-2.54,2.87,2.87,0,0,0-1-2.32,4.48,4.48,0,0,0-3-.85,7,7,0,0,0-2.65.46,4.89,4.89,0,0,0-2,1.43l-1.24-1.07a6.54,6.54,0,0,1,2.54-1.79,9.16,9.16,0,0,1,3.47-.63,7.34,7.34,0,0,1,3,.55,4.17,4.17,0,0,1,2.64,4,5.93,5.93,0,0,1-.23,1.62,6.07,6.07,0,0,1-.82,1.69,14,14,0,0,1-1.74,2l-6.47,6.35-.48-.68h10.52v1.55Z" transform="translate(0 -1.45)"/><path class="cls-7" d="M200.22,61.64a6.83,6.83,0,0,1,3.8,1,6.16,6.16,0,0,1,2.35,2.89,11.63,11.63,0,0,1,.8,4.58,10.62,10.62,0,0,1-1,4.82,6.76,6.76,0,0,1-2.72,3,8.1,8.1,0,0,1-4.05,1,10.17,10.17,0,0,1-2.17-.22,6,6,0,0,1-1.85-.7l.7-1.4a4.32,4.32,0,0,0,1.51.61,8.09,8.09,0,0,0,1.78.19,5.73,5.73,0,0,0,4.38-1.75,7.36,7.36,0,0,0,1.63-5.21c0-.37,0-.81-.06-1.33a7.66,7.66,0,0,0-.28-1.55l.61.46a4.34,4.34,0,0,1-1,2.14,5.14,5.14,0,0,1-1.94,1.35,6.77,6.77,0,0,1-2.55.46,6.69,6.69,0,0,1-3-.63,4.87,4.87,0,0,1-2-1.77,5.42,5.42,0,0,1,0-5.45,5,5,0,0,1,2.07-1.81A6.67,6.67,0,0,1,200.22,61.64Zm.07,1.48a4.85,4.85,0,0,0-2.14.45,3.51,3.51,0,0,0-1.47,1.27,3.57,3.57,0,0,0-.53,2,3.35,3.35,0,0,0,1.15,2.67,4.61,4.61,0,0,0,3.11,1A5.15,5.15,0,0,0,202.7,70a3.78,3.78,0,0,0,1.53-1.34,3.48,3.48,0,0,0,0-3.66,3.89,3.89,0,0,0-1.51-1.34A5.22,5.22,0,0,0,200.29,63.12Z" transform="translate(0 -1.45)"/><path class="cls-7" d="M213.25,70.87a3.53,3.53,0,0,1-2-.57,3.71,3.71,0,0,1-1.35-1.61,6.47,6.47,0,0,1,0-4.84,3.74,3.74,0,0,1,1.35-1.62,3.52,3.52,0,0,1,2-.56,3.6,3.6,0,0,1,2,.56,3.85,3.85,0,0,1,1.34,1.6,6.27,6.27,0,0,1,0,4.86,3.76,3.76,0,0,1-1.34,1.61A3.6,3.6,0,0,1,213.25,70.87Zm0-1.09a2.28,2.28,0,0,0,1.9-.93,5,5,0,0,0,0-5.16,2.43,2.43,0,0,0-3.82,0,5.1,5.1,0,0,0,0,5.16A2.28,2.28,0,0,0,213.28,69.78Zm-1.31,9,11.58-17H225l-11.58,17Zm11.7.12a3.53,3.53,0,0,1-2-.57,3.72,3.72,0,0,1-1.36-1.61,6.25,6.25,0,0,1,0-4.85,3.72,3.72,0,0,1,1.36-1.61,3.53,3.53,0,0,1,2-.57,3.6,3.6,0,0,1,2,.57A3.8,3.8,0,0,1,227,71.84a6.49,6.49,0,0,1,0,4.85,3.8,3.8,0,0,1-1.33,1.61A3.6,3.6,0,0,1,223.67,78.87Zm0-1.09a2.27,2.27,0,0,0,1.9-.93,5,5,0,0,0,0-5.17,2.41,2.41,0,0,0-3.8,0,5.06,5.06,0,0,0,0,5.17A2.28,2.28,0,0,0,223.67,77.78Z" transform="translate(0 -1.45)"/><path class="cls-7" d="M244,78.75v-17h7.32a7.4,7.4,0,0,1,4.39,1.13,3.78,3.78,0,0,1,1.57,3.23,4,4,0,0,1-.65,2.32,4,4,0,0,1-1.74,1.43,5.84,5.84,0,0,1-2.41.49l.41-.58a7.19,7.19,0,0,1,2.8.49,4.08,4.08,0,0,1,1.83,1.48,4.37,4.37,0,0,1,.65,2.44,3.93,3.93,0,0,1-1.59,3.34,7.94,7.94,0,0,1-4.78,1.19Zm1.79-1.48h6a6.41,6.41,0,0,0,3.41-.76,2.69,2.69,0,0,0,1.19-2.44,2.66,2.66,0,0,0-1.19-2.41,6.31,6.31,0,0,0-3.41-.76h-6.18V69.42h5.59a5.54,5.54,0,0,0,3.17-.78,2.93,2.93,0,0,0,0-4.61,5.63,5.63,0,0,0-3.17-.77h-5.4Z" transform="translate(0 -1.45)"/><path class="cls-7" d="M262.05,68.55a1.23,1.23,0,0,1-.91-.39,1.3,1.3,0,0,1-.37-1,1.25,1.25,0,0,1,.37-.94,1.28,1.28,0,0,1,.91-.36,1.26,1.26,0,0,1,1.29,1.3,1.31,1.31,0,0,1-.38,1A1.21,1.21,0,0,1,262.05,68.55Zm0,10.32a1.23,1.23,0,0,1-.91-.39,1.3,1.3,0,0,1-.37-.94,1.26,1.26,0,0,1,.37-1,1.28,1.28,0,0,1,.91-.36,1.26,1.26,0,0,1,1.29,1.31,1.31,1.31,0,0,1-.38.94A1.21,1.21,0,0,1,262.05,78.87Z" transform="translate(0 -1.45)"/><path class="cls-7" d="M281.53,78.75V62.51l.78.83h-4.78V61.79h5.75v17Z" transform="translate(0 -1.45)"/><path class="cls-7" d="M290.3,78.75l7.32-16.19.53.78H287.66l.9-.85v4h-1.72V61.79h12.45V63l-7.1,15.73Z" transform="translate(0 -1.45)"/><path class="cls-7" d="M308.36,78.89a6,6,0,0,1-3.49-1,6.82,6.82,0,0,1-2.4-3,12.81,12.81,0,0,1,0-9.28,6.85,6.85,0,0,1,2.4-3,6.41,6.41,0,0,1,7,0,7,7,0,0,1,2.42,3,12.67,12.67,0,0,1,0,9.28,6.93,6.93,0,0,1-2.42,3A6,6,0,0,1,308.36,78.89Zm0-1.6a4.31,4.31,0,0,0,2.61-.81,5.24,5.24,0,0,0,1.75-2.37,12,12,0,0,0,0-7.68A5.21,5.21,0,0,0,311,64.05a4.31,4.31,0,0,0-2.61-.81,4.38,4.38,0,0,0-2.6.81A5.18,5.18,0,0,0,304,66.43a12,12,0,0,0,0,7.68,5.2,5.2,0,0,0,1.77,2.37A4.38,4.38,0,0,0,308.36,77.29Z" transform="translate(0 -1.45)"/><path class="cls-7" d="M155.81,107.82v-17h1.79v17Zm1.55-4.21-.08-2.18,10.28-10.57h2.06l-7.49,7.85-1,1.09ZM168,107.82l-7.31-8.43,1.21-1.31,8.24,9.74Z" transform="translate(0 -1.45)"/><path class="cls-7" d="M172.84,97.62a1.21,1.21,0,0,1-.91-.39,1.39,1.39,0,0,1,0-1.89,1.26,1.26,0,0,1,.91-.36,1.33,1.33,0,0,1,.91,2.25A1.23,1.23,0,0,1,172.84,97.62Zm0,10.32a1.2,1.2,0,0,1-.91-.38,1.32,1.32,0,0,1-.37-1,1.28,1.28,0,1,1,2.56,0,1.32,1.32,0,0,1-.37,1A1.22,1.22,0,0,1,172.84,107.94Z" transform="translate(0 -1.45)"/><path class="cls-7" d="M182.72,103.36V102.1l9-11.24h1.94l-8.91,11.24-1-.29h13.64v1.55Zm9.58,4.46v-4.46l0-1.55V97.89H194v9.93Z" transform="translate(0 -1.45)"/><path class="cls-7" d="M202.59,100a3.53,3.53,0,0,1-2-.57,3.7,3.7,0,0,1-1.35-1.61,6.49,6.49,0,0,1,0-4.85,3.7,3.7,0,0,1,1.35-1.61,3.53,3.53,0,0,1,2-.57,3.6,3.6,0,0,1,2,.57,3.79,3.79,0,0,1,1.34,1.6,6.27,6.27,0,0,1,0,4.86,3.82,3.82,0,0,1-1.34,1.61A3.6,3.6,0,0,1,202.59,100Zm0-1.09a2.28,2.28,0,0,0,1.9-.93,5.06,5.06,0,0,0,0-5.17,2.43,2.43,0,0,0-3.82,0,5.12,5.12,0,0,0,0,5.17A2.28,2.28,0,0,0,202.62,98.86Zm-1.31,9,11.58-17h1.43l-11.58,17Zm11.7.12a3.66,3.66,0,0,1-2-.56,3.74,3.74,0,0,1-1.35-1.62,6.22,6.22,0,0,1,0-4.84A3.71,3.71,0,0,1,211,99.31a3.59,3.59,0,0,1,2-.57,3.55,3.55,0,0,1,2,.57,3.69,3.69,0,0,1,1.34,1.61,6.47,6.47,0,0,1,0,4.84,3.72,3.72,0,0,1-1.34,1.62A3.62,3.62,0,0,1,213,107.94Zm0-1.09a2.27,2.27,0,0,0,1.9-.93,5,5,0,0,0,0-5.16,2.41,2.41,0,0,0-3.8,0,5,5,0,0,0,0,5.16A2.28,2.28,0,0,0,213,106.85Z" transform="translate(0 -1.45)"/><path class="cls-7" d="M154.43,169.79a9.56,9.56,0,0,1-3.54-.64,8.57,8.57,0,0,1-2.81-1.8,8.34,8.34,0,0,1-1.85-2.74,9.17,9.17,0,0,1,0-6.88A8.14,8.14,0,0,1,148.1,155a8.48,8.48,0,0,1,2.82-1.81,10,10,0,0,1,7,0,7,7,0,0,1,2.74,1.85l-1.14,1.14a6.34,6.34,0,0,0-2.3-1.54,7.8,7.8,0,0,0-2.71-.47,7.55,7.55,0,0,0-2.84.52,6.85,6.85,0,0,0-2.28,1.48,7,7,0,0,0-1.51,2.23,7.11,7.11,0,0,0,1.51,7.83,6.83,6.83,0,0,0,2.28,1.47,8,8,0,0,0,5.55,0,6.37,6.37,0,0,0,2.3-1.55l1.14,1.14a7.1,7.1,0,0,1-2.74,1.86A9.53,9.53,0,0,1,154.43,169.79Z" transform="translate(0 -1.45)"/><path class="cls-7" d="M164.29,159.45a1.2,1.2,0,0,1-.9-.39,1.27,1.27,0,0,1-.38-.95,1.22,1.22,0,0,1,.38-.94,1.29,1.29,0,0,1,2.19.94,1.31,1.31,0,0,1-.38.95A1.21,1.21,0,0,1,164.29,159.45Zm0,10.32a1.2,1.2,0,0,1-.9-.39,1.27,1.27,0,0,1-.38-.94,1.23,1.23,0,0,1,.38-.95,1.29,1.29,0,0,1,2.19.95,1.31,1.31,0,0,1-.38.94A1.21,1.21,0,0,1,164.29,169.77Z" transform="translate(0 -1.45)"/><path class="cls-7" d="M180.92,169.79a9.49,9.49,0,0,1-3.51-.58,5,5,0,0,1-2.25-1.68,4.41,4.41,0,0,1-.79-2.61,4,4,0,0,1,.77-2.48,4.77,4.77,0,0,1,2.23-1.59,11.67,11.67,0,0,1,7.08,0,5,5,0,0,1,2.27,1.59,4,4,0,0,1,.79,2.48,4.35,4.35,0,0,1-.8,2.61,5.09,5.09,0,0,1-2.28,1.68A9.56,9.56,0,0,1,180.92,169.79Zm0-8.5a8.93,8.93,0,0,1-3.21-.51,4.36,4.36,0,0,1-2-1.47A3.73,3.73,0,0,1,175,157a4,4,0,0,1,.74-2.41,4.55,4.55,0,0,1,2.07-1.53,9.34,9.34,0,0,1,6.26,0,4.64,4.64,0,0,1,2.1,1.53,3.93,3.93,0,0,1,.75,2.41,3.73,3.73,0,0,1-.7,2.29,4.37,4.37,0,0,1-2,1.47A9.12,9.12,0,0,1,180.92,161.29Zm0,7a5.94,5.94,0,0,0,3.52-.92,2.93,2.93,0,0,0,1.27-2.5,2.87,2.87,0,0,0-1.27-2.48,7.26,7.26,0,0,0-7,0,2.89,2.89,0,0,0-1.26,2.48,3,3,0,0,0,1.26,2.5A5.89,5.89,0,0,0,180.92,168.32Zm0-8.19a5.14,5.14,0,0,0,3.1-.83,2.78,2.78,0,0,0,0-4.47,6.19,6.19,0,0,0-6.12,0,2.6,2.6,0,0,0-1.14,2.24,2.63,2.63,0,0,0,1.11,2.23A5,5,0,0,0,180.92,160.13Z" transform="translate(0 -1.45)"/><path class="cls-7" d="M189.64,165.19v-1.26l9-11.24h1.93l-8.91,11.24-1-.29h13.65v1.55Zm9.57,4.46v-4.46l0-1.55v-3.93H201v9.94Z" transform="translate(0 -1.45)"/><path class="cls-7" d="M209.51,161.77a3.54,3.54,0,0,1-2-.57,3.71,3.71,0,0,1-1.35-1.61,6.47,6.47,0,0,1,0-4.84,3.71,3.71,0,0,1,1.35-1.61,3.81,3.81,0,0,1,4,0,3.82,3.82,0,0,1,1.34,1.59,6.27,6.27,0,0,1,0,4.86,3.76,3.76,0,0,1-1.34,1.61A3.57,3.57,0,0,1,209.51,161.77Zm0-1.09a2.27,2.27,0,0,0,1.9-.93,5,5,0,0,0,0-5.16,2.42,2.42,0,0,0-3.81,0,5,5,0,0,0,0,5.16A2.25,2.25,0,0,0,209.53,160.68Zm-1.31,9,11.58-17h1.43l-11.58,17Zm11.7.12a3.53,3.53,0,0,1-2-.57,3.79,3.79,0,0,1-1.36-1.61,6.37,6.37,0,0,1,0-4.85,3.79,3.79,0,0,1,1.36-1.61,3.53,3.53,0,0,1,2-.57,3.6,3.6,0,0,1,2,.57,3.73,3.73,0,0,1,1.33,1.61,6.49,6.49,0,0,1,0,4.85A3.73,3.73,0,0,1,222,169.2,3.6,3.6,0,0,1,219.92,169.77Zm0-1.09a2.29,2.29,0,0,0,1.91-.93,5,5,0,0,0,0-5.16,2.4,2.4,0,0,0-3.81,0,5,5,0,0,0,0,5.16A2.28,2.28,0,0,0,219.92,168.68Z" transform="translate(0 -1.45)"/><path class="cls-7" d="M246.58,169.65v-17h6.35a9.05,9.05,0,0,1,3.7.69,5.34,5.34,0,0,1,2.39,2,5.68,5.68,0,0,1,.83,3.14,5.53,5.53,0,0,1-.83,3.09,5.29,5.29,0,0,1-2.39,2,9.05,9.05,0,0,1-3.7.69h-5.36l.8-.82v6.2Zm1.79-6.06-.8-.85h5.31a5.86,5.86,0,0,0,3.86-1.11,3.87,3.87,0,0,0,1.32-3.13,3.91,3.91,0,0,0-1.32-3.15,5.86,5.86,0,0,0-3.86-1.11h-5.31l.8-.85Zm9.79,6.06-4.36-6.16h1.94l4.38,6.16Z" transform="translate(0 -1.45)"/><path class="cls-7" d="M263.9,159.45a1.23,1.23,0,0,1-.91-.39,1.3,1.3,0,0,1-.37-.95,1.25,1.25,0,0,1,.37-.94,1.28,1.28,0,0,1,.91-.36,1.26,1.26,0,0,1,1.29,1.3,1.31,1.31,0,0,1-.38.95A1.21,1.21,0,0,1,263.9,159.45Zm0,10.32a1.23,1.23,0,0,1-.91-.39,1.3,1.3,0,0,1-.37-.94,1.26,1.26,0,0,1,.37-.95,1.28,1.28,0,0,1,.91-.36,1.26,1.26,0,0,1,1.29,1.31,1.31,1.31,0,0,1-.38.94A1.21,1.21,0,0,1,263.9,169.77Z" transform="translate(0 -1.45)"/><path class="cls-7" d="M279.43,169.79a10,10,0,0,1-3.46-.59,6.81,6.81,0,0,1-2.62-1.59l.85-1.38a5.93,5.93,0,0,0,2.19,1.41,8.11,8.11,0,0,0,3,.55,4.92,4.92,0,0,0,3.28-.95,3.15,3.15,0,0,0,1.13-2.51,3,3,0,0,0-2.28-3.1,10.5,10.5,0,0,0-3.39-.44h-3.61l.87-8.5h9.28v1.55h-8.58l.9-.85-.75,7.12-.9-.87h3.18a11.09,11.09,0,0,1,4.11.63A4.5,4.5,0,0,1,284.9,162a4.94,4.94,0,0,1,.69,2.63,5.12,5.12,0,0,1-.68,2.6,4.69,4.69,0,0,1-2,1.86A7.69,7.69,0,0,1,279.43,169.79Z" transform="translate(0 -1.45)"/><path class="cls-7" d="M294.55,169.79a6.07,6.07,0,0,1-3.49-1,7,7,0,0,1-2.4-2.95,12.81,12.81,0,0,1,0-9.28,7,7,0,0,1,2.4-3,6.43,6.43,0,0,1,7,0,6.94,6.94,0,0,1,2.41,3,12.54,12.54,0,0,1,0,9.28,6.91,6.91,0,0,1-2.41,2.95A6.07,6.07,0,0,1,294.55,169.79Zm0-1.6a4.34,4.34,0,0,0,2.62-.81,5.29,5.29,0,0,0,1.74-2.37,12,12,0,0,0,0-7.68,5.32,5.32,0,0,0-1.74-2.38,4.59,4.59,0,0,0-5.21,0,5.23,5.23,0,0,0-1.77,2.38,12,12,0,0,0,0,7.68,5.2,5.2,0,0,0,1.77,2.37A4.35,4.35,0,0,0,294.55,168.19Z" transform="translate(0 -1.45)"/><path class="cls-7" d="M147.07,198.72v-17h1.47L156.3,195h-.78l7.68-13.23h1.48v17H163V184.45h.41l-7.07,12.12h-.85l-7.12-12.12h.46v14.27Z" transform="translate(0 -1.45)"/><path class="cls-7" d="M170,188.52a1.25,1.25,0,0,1-.91-.38,1.32,1.32,0,0,1-.37-.95,1.29,1.29,0,1,1,2.57,0,1.33,1.33,0,0,1-.38.95A1.24,1.24,0,0,1,170,188.52Zm0,10.33a1.23,1.23,0,0,1-.91-.39,1.32,1.32,0,0,1-.37-1,1.25,1.25,0,0,1,.37-.94,1.29,1.29,0,0,1,.91-.37,1.28,1.28,0,0,1,1.29,1.31,1.33,1.33,0,0,1-.38,1A1.21,1.21,0,0,1,170,198.85Z" transform="translate(0 -1.45)"/><path class="cls-7" d="M187.14,198.87a6.75,6.75,0,0,1-3.8-1A6.14,6.14,0,0,1,181,195a11.64,11.64,0,0,1-.8-4.57,10.74,10.74,0,0,1,1-4.83,6.78,6.78,0,0,1,2.72-2.95,8.1,8.1,0,0,1,4.05-1,10.27,10.27,0,0,1,2.18.22,5.68,5.68,0,0,1,1.84.7l-.7,1.4a4.35,4.35,0,0,0-1.5-.61,8.62,8.62,0,0,0-1.79-.19,5.73,5.73,0,0,0-4.38,1.75A7.36,7.36,0,0,0,182,190.1q0,.53.06,1.32a7.63,7.63,0,0,0,.28,1.56l-.61-.46a4.72,4.72,0,0,1,1-2.14,5,5,0,0,1,1.94-1.35,7,7,0,0,1,2.55-.46,6.63,6.63,0,0,1,3,.63,4.71,4.71,0,0,1,2.74,4.46,4.87,4.87,0,0,1-2.82,4.57A6.67,6.67,0,0,1,187.14,198.87Zm-.07-1.48a4.85,4.85,0,0,0,2.14-.45,3.4,3.4,0,0,0,1.47-1.28,3.6,3.6,0,0,0,.53-1.95,3.35,3.35,0,0,0-1.15-2.67,4.61,4.61,0,0,0-3.11-1,5.1,5.1,0,0,0-2.28.48,4,4,0,0,0-1.53,1.33,3.34,3.34,0,0,0-.55,1.9,3.29,3.29,0,0,0,.51,1.75,3.72,3.72,0,0,0,1.51,1.36A5.26,5.26,0,0,0,187.07,197.39Z" transform="translate(0 -1.45)"/><path class="cls-7" d="M201.7,198.87a6,6,0,0,1-3.48-1,6.85,6.85,0,0,1-2.4-3,12.67,12.67,0,0,1,0-9.28,6.82,6.82,0,0,1,2.4-2.95,6.41,6.41,0,0,1,7,0,6.91,6.91,0,0,1,2.41,2.95,12.54,12.54,0,0,1,0,9.28,6.94,6.94,0,0,1-2.41,3A6,6,0,0,1,201.7,198.87Zm0-1.6a4.32,4.32,0,0,0,2.62-.81,5.36,5.36,0,0,0,1.75-2.38,12,12,0,0,0,0-7.68,5.38,5.38,0,0,0-1.75-2.37,4.59,4.59,0,0,0-5.21,0,5.2,5.2,0,0,0-1.77,2.37,12,12,0,0,0,0,7.68,5.18,5.18,0,0,0,1.77,2.38A4.35,4.35,0,0,0,201.7,197.27Z" transform="translate(0 -1.45)"/><path class="cls-7" d="M214.55,190.85a3.54,3.54,0,0,1-2-.57,3.77,3.77,0,0,1-1.35-1.61,6.49,6.49,0,0,1,0-4.85,3.77,3.77,0,0,1,1.35-1.61,3.81,3.81,0,0,1,4,0,3.79,3.79,0,0,1,1.34,1.6,6.27,6.27,0,0,1,0,4.86,3.82,3.82,0,0,1-1.34,1.61A3.57,3.57,0,0,1,214.55,190.85Zm0-1.09a2.27,2.27,0,0,0,1.9-.93,5,5,0,0,0,0-5.16,2.4,2.4,0,0,0-3.81,0,5,5,0,0,0,0,5.16A2.25,2.25,0,0,0,214.57,189.76Zm-1.31,9,11.58-17h1.43l-11.58,17Zm11.7.13a3.53,3.53,0,0,1-2-.57,3.79,3.79,0,0,1-1.36-1.61,5.79,5.79,0,0,1-.48-2.43,5.71,5.71,0,0,1,.48-2.42,3.73,3.73,0,0,1,1.36-1.61,3.53,3.53,0,0,1,2-.57,3.6,3.6,0,0,1,2,.57,3.67,3.67,0,0,1,1.33,1.61,5.71,5.71,0,0,1,.47,2.42,5.79,5.79,0,0,1-.47,2.43,3.73,3.73,0,0,1-1.33,1.61A3.6,3.6,0,0,1,225,198.85Zm0-1.09a2.3,2.3,0,0,0,1.91-.94,5,5,0,0,0,0-5.16,2.42,2.42,0,0,0-3.81,0,5,5,0,0,0,0,5.16A2.29,2.29,0,0,0,225,197.76Z" transform="translate(0 -1.45)"/><path class="cls-7" d="M259.06,198.87a9.66,9.66,0,0,1-3.58-.64,8.42,8.42,0,0,1-2.83-1.81,8.29,8.29,0,0,1-1.87-2.74,9.17,9.17,0,0,1,0-6.88,8.13,8.13,0,0,1,1.88-2.73,8.61,8.61,0,0,1,2.85-1.81,9.64,9.64,0,0,1,3.57-.64,10.09,10.09,0,0,1,3.55.6,7.12,7.12,0,0,1,2.75,1.85l-1.11,1.13a6.32,6.32,0,0,0-2.36-1.52,8,8,0,0,0-2.76-.46,7.74,7.74,0,0,0-2.89.52,6.84,6.84,0,0,0-2.3,1.48,6.63,6.63,0,0,0-1.53,2.23,7,7,0,0,0-.55,2.79,7.12,7.12,0,0,0,.55,2.79,6.67,6.67,0,0,0,1.53,2.24,6.84,6.84,0,0,0,2.3,1.48,7.67,7.67,0,0,0,2.87.52,8.34,8.34,0,0,0,2.75-.44,6.49,6.49,0,0,0,2.39-1.47l1,1.35a8.06,8.06,0,0,1-2.83,1.61A10.43,10.43,0,0,1,259.06,198.87Zm4.5-2.37v-6.26h1.72v6.47Z" transform="translate(0 -1.45)"/><path class="cls-7" d="M270.15,188.52a1.25,1.25,0,0,1-.91-.38,1.32,1.32,0,0,1-.37-.95,1.29,1.29,0,1,1,2.57,0,1.33,1.33,0,0,1-.38.95A1.24,1.24,0,0,1,270.15,188.52Zm0,10.33a1.23,1.23,0,0,1-.91-.39,1.32,1.32,0,0,1-.37-1,1.25,1.25,0,0,1,.37-.94,1.29,1.29,0,0,1,.91-.37,1.28,1.28,0,0,1,1.29,1.31,1.33,1.33,0,0,1-.38,1A1.21,1.21,0,0,1,270.15,198.85Z" transform="translate(0 -1.45)"/><path class="cls-7" d="M285.39,198.87a10.24,10.24,0,0,1-3.47-.59,7.14,7.14,0,0,1-2.63-1.59l.85-1.38a6.22,6.22,0,0,0,2.21,1.4,8,8,0,0,0,3,.56,5,5,0,0,0,3.24-.92,3.3,3.3,0,0,0,0-4.94,5.32,5.32,0,0,0-3.47-.92H284V189.2l5.24-6.56.24.67H280v-1.55h10.9V183l-5.23,6.57-.85-.56h.66a6.63,6.63,0,0,1,4.56,1.36,4.45,4.45,0,0,1,1.52,3.48,4.93,4.93,0,0,1-.68,2.57,4.66,4.66,0,0,1-2.05,1.8A8,8,0,0,1,285.39,198.87Z" transform="translate(0 -1.45)"/><path class="cls-7" d="M297,198.72l7.31-16.18.54.77h-10.5l.9-.84v4h-1.72v-4.73H306V183l-7.1,15.72Z" transform="translate(0 -1.45)"/><path class="cls-7" d="M151.11,227.8v-6.3l.41,1.12-7.19-11.78h1.91l6.33,10.35h-1l6.32-10.35h1.8l-7.2,11.78.41-1.12v6.3Z" transform="translate(0 -1.45)"/><path class="cls-7" d="M162.26,217.6a1.21,1.21,0,0,1-.91-.39,1.31,1.31,0,0,1-.38-.94,1.29,1.29,0,1,1,2.57,0,1.3,1.3,0,0,1-.37.94A1.23,1.23,0,0,1,162.26,217.6Zm0,10.32a1.21,1.21,0,0,1-.91-.39,1.37,1.37,0,0,1,0-1.89,1.26,1.26,0,0,1,.91-.36,1.33,1.33,0,0,1,.91,2.25A1.23,1.23,0,0,1,162.26,227.92Z" transform="translate(0 -1.45)"/><path class="cls-7" d="M177.5,228a10,10,0,0,1-3.48-.6,7,7,0,0,1-2.63-1.58l.85-1.39a6.24,6.24,0,0,0,2.22,1.41,8.14,8.14,0,0,0,3,.56,5,5,0,0,0,3.23-.92,3.3,3.3,0,0,0,0-5,5.42,5.42,0,0,0-3.48-.92h-1.21v-1.28l5.23-6.57.24.68H172.1v-1.55H183v1.24l-5.23,6.56-.85-.56h.65a6.69,6.69,0,0,1,4.57,1.36,4.48,4.48,0,0,1,1.51,3.49,4.87,4.87,0,0,1-.68,2.57,4.55,4.55,0,0,1-2,1.79A7.92,7.92,0,0,1,177.5,228Z" transform="translate(0 -1.45)"/><path class="cls-7" d="M191.38,210.69a6.89,6.89,0,0,1,3.81,1,6.28,6.28,0,0,1,2.35,2.89,11.81,11.81,0,0,1,.8,4.58,10.66,10.66,0,0,1-1,4.83,6.78,6.78,0,0,1-2.72,2.95,8.05,8.05,0,0,1-4,1,10.86,10.86,0,0,1-2.17-.22,6.14,6.14,0,0,1-1.85-.71l.7-1.4a4.31,4.31,0,0,0,1.52.62,8.6,8.6,0,0,0,1.78.18,5.69,5.69,0,0,0,4.37-1.75,7.34,7.34,0,0,0,1.64-5.2c0-.38,0-.82-.06-1.34a8.57,8.57,0,0,0-.28-1.55l.6.46a4.37,4.37,0,0,1-1,2.15,5.08,5.08,0,0,1-1.93,1.34,7.33,7.33,0,0,1-5.53-.17,4.74,4.74,0,0,1-2.75-4.46,4.82,4.82,0,0,1,2.82-4.56A6.68,6.68,0,0,1,191.38,210.69Zm.08,1.48a4.89,4.89,0,0,0-2.15.45,3.43,3.43,0,0,0-2,3.23,3.33,3.33,0,0,0,1.15,2.67,4.63,4.63,0,0,0,3.12,1,5.18,5.18,0,0,0,2.29-.48,3.73,3.73,0,0,0,1.52-1.33,3.39,3.39,0,0,0,.55-1.89,3.31,3.31,0,0,0-.51-1.77,3.81,3.81,0,0,0-1.5-1.35A5.4,5.4,0,0,0,191.46,212.17Z" transform="translate(0 -1.45)"/><path class="cls-7" d="M204.42,219.93a3.54,3.54,0,0,1-2-.57,3.65,3.65,0,0,1-1.34-1.62,6.34,6.34,0,0,1,0-4.84,3.62,3.62,0,0,1,1.34-1.61,3.81,3.81,0,0,1,4,0,3.88,3.88,0,0,1,1.35,1.6,6.37,6.37,0,0,1,0,4.85,3.88,3.88,0,0,1-1.35,1.62A3.57,3.57,0,0,1,204.42,219.93Zm0-1.1a2.27,2.27,0,0,0,1.9-.93,5,5,0,0,0,0-5.16,2.42,2.42,0,0,0-3.81,0,5.1,5.1,0,0,0,0,5.16A2.26,2.26,0,0,0,204.44,218.83Zm-1.31,9,11.59-17h1.42l-11.58,17Zm11.71.12a3.54,3.54,0,0,1-2-.57,3.8,3.8,0,0,1-1.36-1.61,5.71,5.71,0,0,1-.48-2.42,5.79,5.79,0,0,1,.48-2.43,3.86,3.86,0,0,1,1.36-1.61,3.81,3.81,0,0,1,4,0,3.73,3.73,0,0,1,1.33,1.61,5.79,5.79,0,0,1,.48,2.43,5.71,5.71,0,0,1-.48,2.42,3.67,3.67,0,0,1-1.33,1.61A3.57,3.57,0,0,1,214.84,227.92Zm0-1.09a2.28,2.28,0,0,0,1.9-.93,5,5,0,0,0,0-5.16,2.39,2.39,0,0,0-3.8,0,5,5,0,0,0,0,5.16A2.27,2.27,0,0,0,214.84,226.83Z" transform="translate(0 -1.45)"/><path class="cls-7" d="M235.14,227.8v-17h7.32a7.38,7.38,0,0,1,4.4,1.14,3.75,3.75,0,0,1,1.56,3.22A3.85,3.85,0,0,1,246,219a6,6,0,0,1-2.41.48l.41-.58a7.15,7.15,0,0,1,2.8.5,4,4,0,0,1,1.83,1.47,4.29,4.29,0,0,1,.66,2.44,3.92,3.92,0,0,1-1.59,3.34,8,8,0,0,1-4.79,1.19Zm1.8-1.48h6a6.35,6.35,0,0,0,3.42-.76,3.08,3.08,0,0,0,0-4.85,6.35,6.35,0,0,0-3.42-.76h-6.18v-1.48h5.6a5.59,5.59,0,0,0,3.16-.77,2.93,2.93,0,0,0,0-4.62,5.59,5.59,0,0,0-3.16-.76h-5.4Z" transform="translate(0 -1.45)"/><path class="cls-7" d="M253.22,217.6a1.21,1.21,0,0,1-.91-.39,1.31,1.31,0,0,1-.38-.94,1.29,1.29,0,0,1,2.19-1,1.23,1.23,0,0,1,.38,1,1.27,1.27,0,0,1-.38.94A1.2,1.2,0,0,1,253.22,217.6Zm0,10.32a1.21,1.21,0,0,1-.91-.39,1.37,1.37,0,0,1,0-1.89,1.32,1.32,0,0,1,1.81,0,1.37,1.37,0,0,1,0,1.89A1.2,1.2,0,0,1,253.22,227.92Z" transform="translate(0 -1.45)"/><path class="cls-7" d="M272.7,227.8V211.57l.77.82H268.7v-1.55h5.74v17Z" transform="translate(0 -1.45)"/><path class="cls-7" d="M285.25,228a6.15,6.15,0,0,1-3.49-1,6.91,6.91,0,0,1-2.4-3,12.81,12.81,0,0,1,0-9.28,6.91,6.91,0,0,1,2.4-3,6.43,6.43,0,0,1,7,0,7,7,0,0,1,2.41,3,12.67,12.67,0,0,1,0,9.28,7,7,0,0,1-2.41,3A6.15,6.15,0,0,1,285.25,228Zm0-1.6a4.25,4.25,0,0,0,2.61-.82,5.24,5.24,0,0,0,1.75-2.37,12,12,0,0,0,0-7.68,5.32,5.32,0,0,0-1.75-2.38,4.58,4.58,0,0,0-5.2,0,5.28,5.28,0,0,0-1.77,2.38,12,12,0,0,0,0,7.68,5.2,5.2,0,0,0,1.77,2.37A4.27,4.27,0,0,0,285.25,226.35Z" transform="translate(0 -1.45)"/><path class="cls-7" d="M301.29,228a6.15,6.15,0,0,1-3.49-1,6.91,6.91,0,0,1-2.4-3,12.81,12.81,0,0,1,0-9.28,6.91,6.91,0,0,1,2.4-3,6.43,6.43,0,0,1,7,0,7,7,0,0,1,2.41,3,12.67,12.67,0,0,1,0,9.28,7,7,0,0,1-2.41,3A6.15,6.15,0,0,1,301.29,228Zm0-1.6a4.25,4.25,0,0,0,2.61-.82,5.24,5.24,0,0,0,1.75-2.37,12,12,0,0,0,0-7.68,5.32,5.32,0,0,0-1.75-2.38,4.58,4.58,0,0,0-5.2,0,5.28,5.28,0,0,0-1.77,2.38,12,12,0,0,0,0,7.68,5.2,5.2,0,0,0,1.77,2.37A4.27,4.27,0,0,0,301.29,226.35Z" transform="translate(0 -1.45)"/><path class="cls-7" d="M147.07,256.88v-17h1.79v17Zm1.55-4.22-.08-2.18,10.28-10.56h2.06l-7.49,7.85-1,1.09Zm10.63,4.22-7.31-8.44,1.21-1.3,8.24,9.74Z" transform="translate(0 -1.45)"/><path class="cls-7" d="M164.1,246.68a1.21,1.21,0,0,1-.91-.39,1.32,1.32,0,0,1-.37-.95,1.25,1.25,0,0,1,.37-.94,1.3,1.3,0,0,1,1.82,0,1.25,1.25,0,0,1,.37.94,1.32,1.32,0,0,1-.37.95A1.21,1.21,0,0,1,164.1,246.68Zm0,10.32a1.21,1.21,0,0,1-.91-.39,1.3,1.3,0,0,1-.37-.94,1.28,1.28,0,1,1,2.56,0,1.3,1.3,0,0,1-.37.94A1.21,1.21,0,0,1,164.1,257Z" transform="translate(0 -1.45)"/><path class="cls-7" d="M179.34,257a10.25,10.25,0,0,1-3.48-.59,7.22,7.22,0,0,1-2.63-1.59l.85-1.38a6.38,6.38,0,0,0,2.22,1.41,8.14,8.14,0,0,0,3,.55,4.93,4.93,0,0,0,3.23-.92A3,3,0,0,0,183.7,252a3.06,3.06,0,0,0-1.1-2.47,5.42,5.42,0,0,0-3.48-.92h-1.21v-1.29l5.23-6.56.25.68h-9.45v-1.55h10.9v1.23l-5.23,6.57-.85-.56h.65a6.64,6.64,0,0,1,4.57,1.36,4.45,4.45,0,0,1,1.51,3.49,4.89,4.89,0,0,1-.67,2.56,4.71,4.71,0,0,1-2,1.8A8,8,0,0,1,179.34,257Z" transform="translate(0 -1.45)"/><path class="cls-7" d="M194.7,257a6.07,6.07,0,0,1-3.49-1,7,7,0,0,1-2.4-3,12.81,12.81,0,0,1,0-9.28,7,7,0,0,1,2.4-3,6.43,6.43,0,0,1,7,0,6.94,6.94,0,0,1,2.41,3,12.54,12.54,0,0,1,0,9.28,6.91,6.91,0,0,1-2.41,3A6.07,6.07,0,0,1,194.7,257Zm0-1.6a4.34,4.34,0,0,0,2.62-.81,5.29,5.29,0,0,0,1.74-2.37,12,12,0,0,0,0-7.68,5.27,5.27,0,0,0-1.74-2.38,4.59,4.59,0,0,0-5.21,0,5.18,5.18,0,0,0-1.77,2.38,12,12,0,0,0,0,7.68,5.2,5.2,0,0,0,1.77,2.37A4.35,4.35,0,0,0,194.7,255.42Z" transform="translate(0 -1.45)"/><path class="cls-7" d="M207.54,249a3.53,3.53,0,0,1-2-.57,3.71,3.71,0,0,1-1.35-1.61,6.47,6.47,0,0,1,0-4.84,3.74,3.74,0,0,1,1.35-1.62,3.53,3.53,0,0,1,2-.57,3.6,3.6,0,0,1,2,.57,3.85,3.85,0,0,1,1.34,1.6,6.27,6.27,0,0,1,0,4.86,3.76,3.76,0,0,1-1.34,1.61A3.6,3.6,0,0,1,207.54,249Zm0-1.09a2.28,2.28,0,0,0,1.9-.93,5,5,0,0,0,0-5.16,2.41,2.41,0,0,0-3.82,0,5.1,5.1,0,0,0,0,5.16A2.28,2.28,0,0,0,207.57,247.91Zm-1.31,9,11.58-17h1.43l-11.58,17ZM218,257a3.53,3.53,0,0,1-2-.57,3.72,3.72,0,0,1-1.36-1.61,6.25,6.25,0,0,1,0-4.85,3.72,3.72,0,0,1,1.36-1.61,3.53,3.53,0,0,1,2-.57,3.6,3.6,0,0,1,2,.57,3.8,3.8,0,0,1,1.33,1.61,6.49,6.49,0,0,1,0,4.85,3.8,3.8,0,0,1-1.33,1.61A3.6,3.6,0,0,1,218,257Zm0-1.09a2.25,2.25,0,0,0,1.9-.94,5,5,0,0,0,0-5.16,2.41,2.41,0,0,0-3.8,0,5,5,0,0,0,0,5.16A2.26,2.26,0,0,0,218,255.91Z" transform="translate(0 -1.45)"/><path class="cls-7" d="M154.46,317.78a9.49,9.49,0,0,1-3.54-.65,8.31,8.31,0,0,1-2.81-1.8,8.52,8.52,0,0,1-1.86-2.74,9.29,9.29,0,0,1,0-6.88,8.31,8.31,0,0,1,4.69-4.54,9.49,9.49,0,0,1,3.54-.65,9.66,9.66,0,0,1,3.46.62,6.82,6.82,0,0,1,2.74,1.86l-1.14,1.13a6.19,6.19,0,0,0-2.3-1.53,7.54,7.54,0,0,0-2.71-.48,7.79,7.79,0,0,0-2.84.52,6.71,6.71,0,0,0-2.27,1.48,7,7,0,0,0-1.52,2.23,7.53,7.53,0,0,0,0,5.6,7,7,0,0,0,1.52,2.23,6.71,6.71,0,0,0,2.27,1.48,7.79,7.79,0,0,0,2.84.52,7.33,7.33,0,0,0,2.71-.49,6.37,6.37,0,0,0,2.3-1.55l1.14,1.14a7,7,0,0,1-2.74,1.87A9.52,9.52,0,0,1,154.46,317.78Z" transform="translate(0 -1.45)"/><path class="cls-7" d="M164.32,307.43a1.21,1.21,0,0,1-.91-.39,1.31,1.31,0,0,1-.38-.94,1.29,1.29,0,1,1,2.57,0,1.3,1.3,0,0,1-.37.94A1.23,1.23,0,0,1,164.32,307.43Zm0,10.32a1.21,1.21,0,0,1-.91-.39,1.37,1.37,0,0,1,0-1.89,1.26,1.26,0,0,1,.91-.36,1.33,1.33,0,0,1,.91,2.25A1.23,1.23,0,0,1,164.32,317.75Z" transform="translate(0 -1.45)"/><path class="cls-7" d="M179.56,317.78a10,10,0,0,1-3.48-.6,7,7,0,0,1-2.63-1.58l.85-1.39a6.24,6.24,0,0,0,2.22,1.41,8.14,8.14,0,0,0,3,.56,5,5,0,0,0,3.23-.92,3.3,3.3,0,0,0,0-4.95,5.42,5.42,0,0,0-3.48-.92h-1.21v-1.28l5.23-6.57.24.68h-9.45v-1.55h10.91v1.24l-5.24,6.56-.84-.56h.65a6.69,6.69,0,0,1,4.57,1.36,4.48,4.48,0,0,1,1.51,3.49,4.87,4.87,0,0,1-.68,2.57,4.55,4.55,0,0,1-2,1.79A7.92,7.92,0,0,1,179.56,317.78Z" transform="translate(0 -1.45)"/><path class="cls-7" d="M191.14,317.63l7.32-16.19.53.78H188.5l.89-.85v4h-1.72v-4.72h12.46v1.24L193,317.63Z" transform="translate(0 -1.45)"/><path class="cls-7" d="M206,309.76a3.53,3.53,0,0,1-2-.57,3.67,3.67,0,0,1-1.35-1.62,6.47,6.47,0,0,1,0-4.84,3.64,3.64,0,0,1,1.35-1.61,3.53,3.53,0,0,1,2-.57,3.6,3.6,0,0,1,2,.57,3.79,3.79,0,0,1,1.34,1.6,6.25,6.25,0,0,1,0,4.85,3.79,3.79,0,0,1-1.34,1.62A3.6,3.6,0,0,1,206,309.76Zm0-1.09a2.29,2.29,0,0,0,1.9-.94,5,5,0,0,0,0-5.16,2.43,2.43,0,0,0-3.82,0,5.1,5.1,0,0,0,0,5.16A2.29,2.29,0,0,0,206,308.67Zm-1.31,9,11.58-17h1.43l-11.58,17Zm11.7.12a3.59,3.59,0,0,1-2-.57,3.71,3.71,0,0,1-1.35-1.61,5.56,5.56,0,0,1-.49-2.42,5.64,5.64,0,0,1,.49-2.43,3.77,3.77,0,0,1,1.35-1.61,3.59,3.59,0,0,1,2-.57,3.55,3.55,0,0,1,2,.57,3.75,3.75,0,0,1,1.34,1.61,6,6,0,0,1,.47,2.43,5.87,5.87,0,0,1-.47,2.42,3.69,3.69,0,0,1-1.34,1.61A3.55,3.55,0,0,1,216.41,317.75Zm0-1.09a2.27,2.27,0,0,0,1.9-.93,5,5,0,0,0,0-5.16,2.39,2.39,0,0,0-3.8,0,5,5,0,0,0,0,5.16A2.27,2.27,0,0,0,216.41,316.66Z" transform="translate(0 -1.45)"/><path class="cls-7" d="M243.06,317.63v-17h6.35a9.07,9.07,0,0,1,3.71.69,5.35,5.35,0,0,1,2.39,2,5.71,5.71,0,0,1,.83,3.13,5.62,5.62,0,0,1-.83,3.09,5.35,5.35,0,0,1-2.39,2,9.07,9.07,0,0,1-3.71.69h-5.35l.8-.82v6.2Zm1.8-6.06-.8-.85h5.3a5.88,5.88,0,0,0,3.87-1.11,3.86,3.86,0,0,0,1.32-3.13,3.91,3.91,0,0,0-1.32-3.15,5.88,5.88,0,0,0-3.87-1.11h-5.3l.8-.85Zm9.78,6.06-4.36-6.15h1.94l4.39,6.15Z" transform="translate(0 -1.45)"/><path class="cls-7" d="M260.39,307.43a1.21,1.21,0,0,1-.91-.39,1.31,1.31,0,0,1-.38-.94,1.29,1.29,0,1,1,2.57,0,1.3,1.3,0,0,1-.37.94A1.23,1.23,0,0,1,260.39,307.43Zm0,10.32a1.21,1.21,0,0,1-.91-.39,1.37,1.37,0,0,1,0-1.89,1.26,1.26,0,0,1,.91-.36,1.33,1.33,0,0,1,.91,2.25A1.23,1.23,0,0,1,260.39,317.75Z" transform="translate(0 -1.45)"/><path class="cls-7" d="M273.52,317.63V301.4l.78.82h-4.78v-1.55h5.75v17Z" transform="translate(0 -1.45)"/><path class="cls-7" d="M286.07,317.78a6.15,6.15,0,0,1-3.49-1,6.91,6.91,0,0,1-2.4-3,12.81,12.81,0,0,1,0-9.28,6.91,6.91,0,0,1,2.4-3,6.43,6.43,0,0,1,7,0,7,7,0,0,1,2.41,3,12.67,12.67,0,0,1,0,9.28,7,7,0,0,1-2.41,3A6.15,6.15,0,0,1,286.07,317.78Zm0-1.6a4.3,4.3,0,0,0,2.62-.82,5.29,5.29,0,0,0,1.74-2.37,12,12,0,0,0,0-7.68,5.29,5.29,0,0,0-1.74-2.37,4.55,4.55,0,0,0-5.21,0,5.2,5.2,0,0,0-1.77,2.37,12,12,0,0,0,0,7.68,5.2,5.2,0,0,0,1.77,2.37A4.3,4.3,0,0,0,286.07,316.18Z" transform="translate(0 -1.45)"/><path class="cls-7" d="M295,317.63v-1.24l7-6.9a11.27,11.27,0,0,0,1.45-1.66,4.59,4.59,0,0,0,.65-1.35,4.26,4.26,0,0,0,.17-1.18,2.89,2.89,0,0,0-1-2.33,4.53,4.53,0,0,0-3-.85,7.21,7.21,0,0,0-2.65.46,5.09,5.09,0,0,0-2,1.43L294.53,303a6.46,6.46,0,0,1,2.54-1.8,9.13,9.13,0,0,1,3.47-.63,7.55,7.55,0,0,1,3,.55,4.2,4.2,0,0,1,2.64,4,6.05,6.05,0,0,1-.23,1.63,6.22,6.22,0,0,1-.83,1.68,12.73,12.73,0,0,1-1.73,2l-6.47,6.35-.48-.68h10.51v1.55Z" transform="translate(0 -1.45)"/><path class="cls-7" d="M147.09,346.71v-17h1.48L156.32,343h-.77l7.68-13.23h1.47v17H163V332.44h.42l-7.08,12.11h-.85l-7.12-12.11h.46v14.27Z" transform="translate(0 -1.45)"/><path class="cls-7" d="M170,336.51a1.21,1.21,0,0,1-.91-.39,1.33,1.33,0,0,1-.38-.95,1.29,1.29,0,1,1,2.57,0,1.33,1.33,0,0,1-.38.95A1.2,1.2,0,0,1,170,336.51Zm0,10.32a1.21,1.21,0,0,1-.91-.39,1.31,1.31,0,0,1-.38-.94,1.29,1.29,0,1,1,2.57,0,1.31,1.31,0,0,1-.38.94A1.2,1.2,0,0,1,170,346.83Z" transform="translate(0 -1.45)"/><path class="cls-7" d="M183.19,346.71l7.32-16.19.53.78H180.55l.9-.85v4h-1.72v-4.72h12.45V331l-7.1,15.73Z" transform="translate(0 -1.45)"/><path class="cls-7" d="M194.19,342.25V341l9-11.24h1.94L196.2,341l-.94-.29H208.9v1.55Zm9.57,4.46v-4.46l.05-1.55v-3.93h1.7v9.94Z" transform="translate(0 -1.45)"/><path class="cls-7" d="M214.06,338.83a3.56,3.56,0,0,1-2-.57,3.62,3.62,0,0,1-1.34-1.61,6.47,6.47,0,0,1,0-4.84,3.65,3.65,0,0,1,1.34-1.62,3.81,3.81,0,0,1,4,0,3.87,3.87,0,0,1,1.35,1.6,6.39,6.39,0,0,1,0,4.86,3.78,3.78,0,0,1-1.35,1.61A3.55,3.55,0,0,1,214.06,338.83Zm0-1.09a2.29,2.29,0,0,0,1.91-.93,5,5,0,0,0,0-5.16,2.41,2.41,0,0,0-3.82,0,5.1,5.1,0,0,0,0,5.16A2.27,2.27,0,0,0,214.08,337.74Zm-1.3,9,11.58-17h1.43l-11.58,17Zm11.7.12a3.56,3.56,0,0,1-2-.57,3.77,3.77,0,0,1-1.35-1.61,6.25,6.25,0,0,1,0-4.85,3.77,3.77,0,0,1,1.35-1.61,3.81,3.81,0,0,1,4,0,3.75,3.75,0,0,1,1.34,1.61,6.49,6.49,0,0,1,0,4.85,3.75,3.75,0,0,1-1.34,1.61A3.57,3.57,0,0,1,224.48,346.83Zm0-1.09a2.26,2.26,0,0,0,1.9-.94,5,5,0,0,0,0-5.16,2.41,2.41,0,0,0-3.8,0,5,5,0,0,0,0,5.16A2.25,2.25,0,0,0,224.48,345.74Z" transform="translate(0 -1.45)"/><path class="cls-7" d="M258.57,346.85a9.64,9.64,0,0,1-3.57-.64,8.47,8.47,0,0,1-2.84-1.81,8.08,8.08,0,0,1-1.86-2.73,9.17,9.17,0,0,1,0-6.88,8.14,8.14,0,0,1,1.87-2.74,8.61,8.61,0,0,1,2.85-1.81,9.64,9.64,0,0,1,3.57-.64,9.83,9.83,0,0,1,3.55.61,6.85,6.85,0,0,1,2.75,1.84l-1.11,1.14a6.36,6.36,0,0,0-2.35-1.53,8.08,8.08,0,0,0-2.76-.46,7.79,7.79,0,0,0-2.9.52,6.84,6.84,0,0,0-2.3,1.48,7.24,7.24,0,0,0-1.53,7.81,6.86,6.86,0,0,0,3.83,3.72,7.71,7.71,0,0,0,2.87.52,8.56,8.56,0,0,0,2.75-.43,6.44,6.44,0,0,0,2.39-1.48l1,1.36a8.36,8.36,0,0,1-2.84,1.61A10.65,10.65,0,0,1,258.57,346.85Zm4.51-2.37v-6.25h1.72v6.47Z" transform="translate(0 -1.45)"/><path class="cls-7" d="M269.67,336.51a1.21,1.21,0,0,1-.91-.39,1.33,1.33,0,0,1-.38-.95,1.28,1.28,0,0,1,1.29-1.31,1.29,1.29,0,0,1,.91.37,1.25,1.25,0,0,1,.37.94,1.32,1.32,0,0,1-.37.95A1.23,1.23,0,0,1,269.67,336.51Zm0,10.32a1.21,1.21,0,0,1-.91-.39,1.31,1.31,0,0,1-.38-.94,1.29,1.29,0,1,1,2.57,0,1.3,1.3,0,0,1-.37.94A1.23,1.23,0,0,1,269.67,346.83Z" transform="translate(0 -1.45)"/><path class="cls-7" d="M285.2,346.85a10.32,10.32,0,0,1-3.47-.59,6.81,6.81,0,0,1-2.61-1.59l.84-1.38a6.19,6.19,0,0,0,2.2,1.41,8.05,8.05,0,0,0,3,.55,5,5,0,0,0,3.29-.95,3.14,3.14,0,0,0,1.12-2.51,3,3,0,0,0-2.27-3.1,10.61,10.61,0,0,0-3.4-.44H280.3l.88-8.5h9.28v1.55h-8.58l.89-.85-.75,7.12-.89-.87h3.17a11.14,11.14,0,0,1,4.12.63,4.47,4.47,0,0,1,2.24,1.76,4.91,4.91,0,0,1,.69,2.63,5,5,0,0,1-.68,2.6,4.7,4.7,0,0,1-2,1.85A7.58,7.58,0,0,1,285.2,346.85Z" transform="translate(0 -1.45)"/><path class="cls-7" d="M298.62,346.85a10.25,10.25,0,0,1-3.48-.59,7.09,7.09,0,0,1-2.62-1.59l.84-1.38a6.38,6.38,0,0,0,2.22,1.41,8.14,8.14,0,0,0,3,.55,5,5,0,0,0,3.24-.92,3,3,0,0,0,1.12-2.47,3.06,3.06,0,0,0-1.1-2.47,5.41,5.41,0,0,0-3.48-.92h-1.21v-1.29l5.24-6.56.24.68h-9.45v-1.55h10.9V331l-5.23,6.57L298,337h.65a6.64,6.64,0,0,1,4.57,1.36,4.47,4.47,0,0,1,1.52,3.49,4.9,4.9,0,0,1-.68,2.56,4.71,4.71,0,0,1-2.05,1.8A8,8,0,0,1,298.62,346.85Z" transform="translate(0 -1.45)"/><path class="cls-7" d="M151.14,375.78v-6.3l.41,1.12-7.2-11.78h1.92l6.32,10.35h-1l6.33-10.35h1.79l-7.2,11.78.41-1.12v6.3Z" transform="translate(0 -1.45)"/><path class="cls-7" d="M162.28,365.58a1.23,1.23,0,0,1-.91-.39,1.31,1.31,0,0,1,.91-2.25,1.26,1.26,0,0,1,.91.36,1.37,1.37,0,0,1,0,1.89A1.21,1.21,0,0,1,162.28,365.58Zm0,10.32a1.25,1.25,0,0,1-.91-.38,1.32,1.32,0,0,1-.37-.95,1.29,1.29,0,1,1,2.57,0,1.33,1.33,0,0,1-.38.95A1.24,1.24,0,0,1,162.28,375.9Z" transform="translate(0 -1.45)"/><path class="cls-7" d="M178.9,375.93a9.68,9.68,0,0,1-3.5-.58,4.84,4.84,0,0,1-2.25-1.69,4.31,4.31,0,0,1-.79-2.6,4.07,4.07,0,0,1,.76-2.49,4.88,4.88,0,0,1,2.23-1.58,11.5,11.5,0,0,1,7.09,0,5,5,0,0,1,2.27,1.58,4,4,0,0,1,.78,2.49,4.25,4.25,0,0,1-.8,2.6,5,5,0,0,1-2.27,1.69A9.79,9.79,0,0,1,178.9,375.93Zm0-8.51a8.93,8.93,0,0,1-3.21-.51,4.37,4.37,0,0,1-2-1.46,3.75,3.75,0,0,1-.7-2.29,3.9,3.9,0,0,1,.74-2.41,4.56,4.56,0,0,1,2.07-1.54,8.29,8.29,0,0,1,3.12-.53,8.4,8.4,0,0,1,3.14.53,4.66,4.66,0,0,1,2.1,1.54,3.91,3.91,0,0,1,.75,2.41,3.82,3.82,0,0,1-.7,2.29,4.41,4.41,0,0,1-2.05,1.46A9.18,9.18,0,0,1,178.9,367.42Zm0,7a6,6,0,0,0,3.53-.92,2.92,2.92,0,0,0,1.27-2.5,2.88,2.88,0,0,0-1.27-2.48,6,6,0,0,0-3.53-.91,5.88,5.88,0,0,0-3.51.91,2.9,2.9,0,0,0-1.26,2.48,2.93,2.93,0,0,0,1.26,2.5A5.88,5.88,0,0,0,178.9,374.45Zm0-8.19a5.1,5.1,0,0,0,3.1-.82,2.77,2.77,0,0,0,0-4.47,5.17,5.17,0,0,0-3.07-.82,5.1,5.1,0,0,0-3.05.82,2.59,2.59,0,0,0-1.14,2.24,2.66,2.66,0,0,0,1.1,2.23A5.09,5.09,0,0,0,178.9,366.26Z" transform="translate(0 -1.45)"/><path class="cls-7" d="M194.36,375.93a9.68,9.68,0,0,1-3.5-.58,4.84,4.84,0,0,1-2.25-1.69,4.31,4.31,0,0,1-.79-2.6,4.07,4.07,0,0,1,.76-2.49,4.83,4.83,0,0,1,2.23-1.58,11.5,11.5,0,0,1,7.09,0,5,5,0,0,1,2.26,1.58,4,4,0,0,1,.79,2.49,4.25,4.25,0,0,1-.8,2.6,5,5,0,0,1-2.27,1.69A9.79,9.79,0,0,1,194.36,375.93Zm0-8.51a8.93,8.93,0,0,1-3.21-.51,4.37,4.37,0,0,1-2-1.46,3.75,3.75,0,0,1-.7-2.29,4,4,0,0,1,.73-2.41,4.65,4.65,0,0,1,2.08-1.54,8.25,8.25,0,0,1,3.12-.53,8.4,8.4,0,0,1,3.14.53,4.71,4.71,0,0,1,2.1,1.54,3.91,3.91,0,0,1,.75,2.41,3.76,3.76,0,0,1-.71,2.29,4.33,4.33,0,0,1-2,1.46A9.18,9.18,0,0,1,194.36,367.42Zm0,7a6,6,0,0,0,3.53-.92,2.92,2.92,0,0,0,1.27-2.5,2.88,2.88,0,0,0-1.27-2.48,6,6,0,0,0-3.53-.91,5.88,5.88,0,0,0-3.51.91,2.9,2.9,0,0,0-1.26,2.48,2.93,2.93,0,0,0,1.26,2.5A5.88,5.88,0,0,0,194.36,374.45Zm0-8.19a5.1,5.1,0,0,0,3.1-.82,2.77,2.77,0,0,0,0-4.47,5.17,5.17,0,0,0-3.07-.82,5.1,5.1,0,0,0-3.05.82,2.59,2.59,0,0,0-1.14,2.24,2.66,2.66,0,0,0,1.1,2.23A5.09,5.09,0,0,0,194.36,366.26Z" transform="translate(0 -1.45)"/><path class="cls-7" d="M206.94,367.91a3.54,3.54,0,0,1-2-.57,3.77,3.77,0,0,1-1.35-1.61,6.49,6.49,0,0,1,0-4.85,3.77,3.77,0,0,1,1.35-1.61,3.81,3.81,0,0,1,4,0,3.79,3.79,0,0,1,1.34,1.6,5.58,5.58,0,0,1,.49,2.43,5.64,5.64,0,0,1-.49,2.43,3.82,3.82,0,0,1-1.34,1.61A3.57,3.57,0,0,1,206.94,367.91Zm0-1.09a2.25,2.25,0,0,0,1.9-.94,5,5,0,0,0,0-5.16,2.42,2.42,0,0,0-3.81,0,5,5,0,0,0,0,5.16A2.25,2.25,0,0,0,207,366.82Zm-1.31,9,11.58-17h1.43l-11.58,17Zm11.7.12a3.53,3.53,0,0,1-2-.57,3.73,3.73,0,0,1-1.36-1.61,6.34,6.34,0,0,1,0-4.84,3.73,3.73,0,0,1,1.36-1.61,3.53,3.53,0,0,1,2-.57,3.58,3.58,0,0,1,2,.57,3.67,3.67,0,0,1,1.33,1.61,6.47,6.47,0,0,1,0,4.84,3.67,3.67,0,0,1-1.33,1.61A3.58,3.58,0,0,1,217.35,375.9Zm0-1.09a2.29,2.29,0,0,0,1.91-.93,5,5,0,0,0,0-5.16,2.42,2.42,0,0,0-3.81,0,5,5,0,0,0,0,5.16A2.28,2.28,0,0,0,217.35,374.81Z" transform="translate(0 -1.45)"/><path class="cls-7" d="M237.66,375.78v-17H245a7.38,7.38,0,0,1,4.4,1.14,3.75,3.75,0,0,1,1.56,3.22,4.12,4.12,0,0,1-.64,2.33,4,4,0,0,1-1.75,1.43,6,6,0,0,1-2.41.48l.41-.58a7.19,7.19,0,0,1,2.8.5,4,4,0,0,1,1.83,1.48,4.24,4.24,0,0,1,.65,2.43,3.91,3.91,0,0,1-1.58,3.34,7.92,7.92,0,0,1-4.79,1.19Zm1.79-1.48h6a6.31,6.31,0,0,0,3.41-.76,3.07,3.07,0,0,0,0-4.85,6.41,6.41,0,0,0-3.41-.76h-6.18v-1.48h5.6a5.51,5.51,0,0,0,3.16-.77,2.94,2.94,0,0,0,0-4.62,5.59,5.59,0,0,0-3.16-.76h-5.41Z" transform="translate(0 -1.45)"/><path class="cls-7" d="M255.74,365.58a1.21,1.21,0,0,1-.91-.39,1.37,1.37,0,0,1,0-1.89,1.32,1.32,0,0,1,1.81,0,1.37,1.37,0,0,1,0,1.89A1.2,1.2,0,0,1,255.74,365.58Zm0,10.32a1.24,1.24,0,0,1-.91-.38,1.33,1.33,0,0,1-.38-.95,1.24,1.24,0,0,1,.38-.94,1.29,1.29,0,0,1,1.81,0,1.24,1.24,0,0,1,.38.94,1.33,1.33,0,0,1-.38.95A1.23,1.23,0,0,1,255.74,375.9Z" transform="translate(0 -1.45)"/><path class="cls-7" d="M271.94,375.78v-1.23l7.06-6.91a11.27,11.27,0,0,0,1.45-1.66,4.55,4.55,0,0,0,.65-1.34,4.32,4.32,0,0,0,.17-1.19,2.89,2.89,0,0,0-1-2.33,4.53,4.53,0,0,0-3-.85,7,7,0,0,0-2.65.47,4.9,4.9,0,0,0-2,1.43l-1.23-1.07a6.44,6.44,0,0,1,2.54-1.79,9.11,9.11,0,0,1,3.46-.63,7.6,7.6,0,0,1,3,.54,4.2,4.2,0,0,1,2.64,4,6,6,0,0,1-.23,1.62,6.22,6.22,0,0,1-.83,1.68,12.73,12.73,0,0,1-1.73,2l-6.47,6.35-.48-.68h10.51v1.55Z" transform="translate(0 -1.45)"/><path class="cls-7" d="M293,375.93a6.87,6.87,0,0,1-3.81-1,6.23,6.23,0,0,1-2.35-2.91,11.77,11.77,0,0,1-.8-4.56,10.75,10.75,0,0,1,1-4.84,6.84,6.84,0,0,1,2.73-2.94,8,8,0,0,1,4-1,11.12,11.12,0,0,1,2.18.21,5.79,5.79,0,0,1,1.84.71l-.7,1.4a4.53,4.53,0,0,0-1.51-.62,8.55,8.55,0,0,0-1.79-.18,5.67,5.67,0,0,0-4.37,1.75,7.37,7.37,0,0,0-1.64,5.21q0,.52.06,1.32a7.75,7.75,0,0,0,.28,1.56l-.61-.46a4.59,4.59,0,0,1,1.05-2.14,5,5,0,0,1,1.93-1.35,6.84,6.84,0,0,1,2.55-.46,6.7,6.7,0,0,1,3,.63,4.82,4.82,0,0,1,2,1.77,4.92,4.92,0,0,1,.73,2.69,5,5,0,0,1-.75,2.75,5.05,5.05,0,0,1-2.08,1.82A6.8,6.8,0,0,1,293,375.93Zm-.08-1.48a4.89,4.89,0,0,0,2.15-.45,3.46,3.46,0,0,0,2-3.23,3.36,3.36,0,0,0-1.15-2.67,4.63,4.63,0,0,0-3.12-1,5.1,5.1,0,0,0-2.28.48,4,4,0,0,0-1.52,1.32,3.37,3.37,0,0,0-.56,1.9,3.32,3.32,0,0,0,.51,1.76,3.72,3.72,0,0,0,1.51,1.36A5.26,5.26,0,0,0,292.9,374.45Z" transform="translate(0 -1.45)"/><path class="cls-7" d="M147.09,404.86v-17h1.79v17Zm1.55-4.22-.07-2.18,10.27-10.56h2.06l-7.49,7.85-1,1.09Zm10.64,4.22L152,396.43l1.21-1.31,8.24,9.74Z" transform="translate(0 -1.45)"/><path class="cls-7" d="M164.12,394.66a1.2,1.2,0,0,1-.9-.39,1.27,1.27,0,0,1-.38-.95,1.22,1.22,0,0,1,.38-.94,1.29,1.29,0,0,1,2.19.94,1.31,1.31,0,0,1-.38.95A1.21,1.21,0,0,1,164.12,394.66Zm0,10.32a1.2,1.2,0,0,1-.9-.39,1.27,1.27,0,0,1-.38-.94,1.23,1.23,0,0,1,.38-.95,1.29,1.29,0,0,1,2.19.95,1.31,1.31,0,0,1-.38.94A1.21,1.21,0,0,1,164.12,405Z" transform="translate(0 -1.45)"/><path class="cls-7" d="M179.65,405a10,10,0,0,1-3.46-.59,6.81,6.81,0,0,1-2.62-1.59l.85-1.38a5.93,5.93,0,0,0,2.19,1.41,8.11,8.11,0,0,0,3,.55,4.92,4.92,0,0,0,3.28-.95,3.15,3.15,0,0,0,1.13-2.51,3.32,3.32,0,0,0-.52-1.88,3.37,3.37,0,0,0-1.76-1.22,10.5,10.5,0,0,0-3.39-.44h-3.61l.87-8.5h9.28v1.55h-8.58l.9-.85-.75,7.12-.9-.87h3.18a11.18,11.18,0,0,1,4.12.63,4.52,4.52,0,0,1,2.24,1.76,4.94,4.94,0,0,1,.69,2.63,5.12,5.12,0,0,1-.68,2.6,4.72,4.72,0,0,1-2,1.86A7.77,7.77,0,0,1,179.65,405Z" transform="translate(0 -1.45)"/><path class="cls-7" d="M187.72,400.4v-1.26l9-11.24h1.94l-8.92,11.24-.94-.29h13.64v1.55Zm9.57,4.46V400.4l.05-1.55v-3.93H199v9.94Z" transform="translate(0 -1.45)"/><path class="cls-7" d="M207.59,397a3.54,3.54,0,0,1-3.33-2.18,6.47,6.47,0,0,1,0-4.84,3.54,3.54,0,0,1,3.33-2.18,3.55,3.55,0,0,1,2,.57,3.77,3.77,0,0,1,1.35,1.59,6.39,6.39,0,0,1,0,4.86,3.71,3.71,0,0,1-1.35,1.61A3.55,3.55,0,0,1,207.59,397Zm0-1.09a2.28,2.28,0,0,0,1.9-.93,5,5,0,0,0,0-5.16,2.43,2.43,0,0,0-3.82,0,5.1,5.1,0,0,0,0,5.16A2.28,2.28,0,0,0,207.62,395.89Zm-1.31,9,11.58-17h1.43l-11.58,17ZM218,405a3.56,3.56,0,0,1-2-.57,3.77,3.77,0,0,1-1.35-1.61,6.25,6.25,0,0,1,0-4.85,3.77,3.77,0,0,1,1.35-1.61,3.81,3.81,0,0,1,4,0,3.75,3.75,0,0,1,1.34,1.61,6.49,6.49,0,0,1,0,4.85,3.75,3.75,0,0,1-1.34,1.61A3.55,3.55,0,0,1,218,405Zm0-1.09a2.27,2.27,0,0,0,1.9-.93,5,5,0,0,0,0-5.16,2.39,2.39,0,0,0-3.8,0,5,5,0,0,0,0,5.16A2.27,2.27,0,0,0,218,403.89Z" transform="translate(0 -1.45)"/><path class="cls-7" d="M154.48,468.43a9.48,9.48,0,0,1-3.54-.64,8.34,8.34,0,0,1-2.81-1.81,8.2,8.2,0,0,1-1.85-2.73,9.19,9.19,0,0,1,0-6.89,8.08,8.08,0,0,1,1.86-2.73,8.42,8.42,0,0,1,2.83-1.81,10,10,0,0,1,7,0,7,7,0,0,1,2.74,1.85l-1.14,1.14a6.42,6.42,0,0,0-2.3-1.54,7.81,7.81,0,0,0-2.72-.47,7.53,7.53,0,0,0-2.83.52,7,7,0,0,0,0,13,8,8,0,0,0,5.55,0,6.59,6.59,0,0,0,2.3-1.55l1.14,1.14A7.18,7.18,0,0,1,158,467.8,9.57,9.57,0,0,1,154.48,468.43Z" transform="translate(0 -1.45)"/><path class="cls-7" d="M164.34,458.08a1.22,1.22,0,0,1-.91-.38,1.32,1.32,0,0,1-.37-.95,1.29,1.29,0,1,1,2.57,0,1.33,1.33,0,0,1-.38.95A1.2,1.2,0,0,1,164.34,458.08Zm0,10.33a1.23,1.23,0,0,1-.91-.39,1.3,1.3,0,0,1-.37-.95,1.25,1.25,0,0,1,.37-.94,1.28,1.28,0,0,1,.91-.36,1.26,1.26,0,0,1,1.29,1.3,1.31,1.31,0,0,1-.38.95A1.21,1.21,0,0,1,164.34,468.41Z" transform="translate(0 -1.45)"/><path class="cls-7" d="M181,468.43a9.47,9.47,0,0,1-3.5-.58,4.89,4.89,0,0,1-2.25-1.68,4.36,4.36,0,0,1-.79-2.61,4,4,0,0,1,.77-2.48,4.74,4.74,0,0,1,2.22-1.59,11.5,11.5,0,0,1,7.09,0,5,5,0,0,1,2.27,1.59,4,4,0,0,1,.78,2.48,4.3,4.3,0,0,1-.8,2.61,5,5,0,0,1-2.27,1.68A9.58,9.58,0,0,1,181,468.43Zm0-8.5a8.93,8.93,0,0,1-3.21-.51,4.38,4.38,0,0,1-2-1.47,3.75,3.75,0,0,1-.7-2.29,3.9,3.9,0,0,1,.74-2.41,4.64,4.64,0,0,1,2.07-1.54,8.49,8.49,0,0,1,3.12-.53,8.6,8.6,0,0,1,3.14.53,4.73,4.73,0,0,1,2.1,1.54,3.91,3.91,0,0,1,.75,2.41,3.82,3.82,0,0,1-.7,2.29,4.42,4.42,0,0,1-2.05,1.47A9.18,9.18,0,0,1,181,459.93Zm0,7a5.88,5.88,0,0,0,3.53-.92,3.08,3.08,0,0,0,0-5,6,6,0,0,0-3.53-.91,6,6,0,0,0-3.51.91,3.09,3.09,0,0,0,0,5A5.81,5.81,0,0,0,181,467Zm0-8.19a5.1,5.1,0,0,0,3.1-.82,2.77,2.77,0,0,0,0-4.47,5.24,5.24,0,0,0-3.07-.81,5.17,5.17,0,0,0-3.05.81,2.6,2.6,0,0,0-1.14,2.24,2.65,2.65,0,0,0,1.1,2.23A5.09,5.09,0,0,0,181,458.76Z" transform="translate(0 -1.45)"/><path class="cls-7" d="M193.54,460.41a3.54,3.54,0,0,1-2-.57,3.68,3.68,0,0,1-1.34-1.61,5.71,5.71,0,0,1-.48-2.42,5.79,5.79,0,0,1,.48-2.43,3.68,3.68,0,0,1,1.34-1.61,3.81,3.81,0,0,1,4,0,3.94,3.94,0,0,1,1.35,1.6,6.39,6.39,0,0,1,0,4.86,3.91,3.91,0,0,1-1.35,1.61A3.57,3.57,0,0,1,193.54,460.41Zm0-1.09a2.27,2.27,0,0,0,1.9-.93,5,5,0,0,0,0-5.16,2.4,2.4,0,0,0-3.81,0,5.1,5.1,0,0,0,0,5.16A2.26,2.26,0,0,0,193.56,459.32Zm-1.31,9,11.59-17h1.43l-11.59,17Zm11.71.12a3.54,3.54,0,0,1-2-.57,3.86,3.86,0,0,1-1.36-1.61,5.79,5.79,0,0,1-.48-2.43,5.71,5.71,0,0,1,.48-2.42,3.86,3.86,0,0,1,1.36-1.61,3.81,3.81,0,0,1,4,0,3.73,3.73,0,0,1,1.33,1.61,5.71,5.71,0,0,1,.48,2.42,5.79,5.79,0,0,1-.48,2.43,3.73,3.73,0,0,1-1.33,1.61A3.57,3.57,0,0,1,204,468.41Zm0-1.09a2.26,2.26,0,0,0,1.9-.94,5,5,0,0,0,0-5.16,2.41,2.41,0,0,0-3.8,0,5,5,0,0,0,0,5.16A2.25,2.25,0,0,0,204,467.32Z" transform="translate(0 -1.45)"/><path class="cls-7" d="M243.31,468.29v-17h6.34a9.07,9.07,0,0,1,3.71.69,5.48,5.48,0,0,1,2.39,2,5.66,5.66,0,0,1,.83,3.14,5.58,5.58,0,0,1-.83,3.09,5.41,5.41,0,0,1-2.39,2,9.07,9.07,0,0,1-3.71.69H244.3l.8-.83v6.21Zm1.79-6.06-.8-.85h5.31a5.86,5.86,0,0,0,3.86-1.11,4.39,4.39,0,0,0,0-6.28,5.86,5.86,0,0,0-3.86-1.11H244.3l.8-.85Zm9.79,6.06-4.36-6.16h1.93l4.39,6.16Z" transform="translate(0 -1.45)"/><path class="cls-7" d="M260.63,458.08a1.2,1.2,0,0,1-.91-.38,1.32,1.32,0,0,1-.37-.95,1.28,1.28,0,1,1,2.56,0,1.32,1.32,0,0,1-.37.95A1.22,1.22,0,0,1,260.63,458.08Zm0,10.33a1.21,1.21,0,0,1-.91-.39,1.3,1.3,0,0,1-.37-.95,1.25,1.25,0,0,1,1.28-1.3,1.28,1.28,0,0,1,.91.36,1.25,1.25,0,0,1,.37.94,1.3,1.3,0,0,1-.37.95A1.23,1.23,0,0,1,260.63,468.41Z" transform="translate(0 -1.45)"/><path class="cls-7" d="M270.49,468.29v-1.24l7.05-6.91a11.42,11.42,0,0,0,1.46-1.66,4.43,4.43,0,0,0,.65-1.34,4.74,4.74,0,0,0,.17-1.19,2.87,2.87,0,0,0-1-2.32,4.47,4.47,0,0,0-3-.85,7.06,7.06,0,0,0-2.66.46,5,5,0,0,0-2,1.43L270,453.6a6.5,6.5,0,0,1,2.55-1.79,9.11,9.11,0,0,1,3.46-.63,7.52,7.52,0,0,1,3,.54,4.41,4.41,0,0,1,1.95,1.59,4.34,4.34,0,0,1,.69,2.45,5.57,5.57,0,0,1-.23,1.62,6.21,6.21,0,0,1-.82,1.69,13.28,13.28,0,0,1-1.73,2l-6.47,6.35-.49-.68h10.52v1.56Z" transform="translate(0 -1.45)"/><path class="cls-7" d="M289.63,468.43a10.3,10.3,0,0,1-3.48-.59,7.09,7.09,0,0,1-2.62-1.59l.84-1.38a6.36,6.36,0,0,0,2.22,1.4,8,8,0,0,0,3,.56,5,5,0,0,0,3.24-.92,3.3,3.3,0,0,0,0-4.94,5.33,5.33,0,0,0-3.48-.92H288.2v-1.29l5.24-6.56.24.68h-9.45v-1.56h10.9v1.24l-5.23,6.57-.85-.56h.65a6.64,6.64,0,0,1,4.57,1.36,4.46,4.46,0,0,1,1.52,3.49,4.92,4.92,0,0,1-.68,2.56,4.66,4.66,0,0,1-2.05,1.8A8,8,0,0,1,289.63,468.43Z" transform="translate(0 -1.45)"/><path class="cls-7" d="M305,468.43a6,6,0,0,1-3.48-1,6.85,6.85,0,0,1-2.4-3,12.67,12.67,0,0,1,0-9.28,6.88,6.88,0,0,1,2.4-3,6.41,6.41,0,0,1,7,0,7,7,0,0,1,2.41,3,12.54,12.54,0,0,1,0,9.28,6.94,6.94,0,0,1-2.41,3A6,6,0,0,1,305,468.43Zm0-1.6a4.32,4.32,0,0,0,2.62-.81,5.31,5.31,0,0,0,1.75-2.37,12,12,0,0,0,0-7.69,5.31,5.31,0,0,0-1.75-2.37,4.59,4.59,0,0,0-5.21,0,5.2,5.2,0,0,0-1.77,2.37,12,12,0,0,0,0,7.69A5.2,5.2,0,0,0,302.4,466,4.35,4.35,0,0,0,305,466.83Z" transform="translate(0 -1.45)"/><path class="cls-7" d="M147.11,497.36v-17h1.48l7.76,13.23h-.78l7.68-13.23h1.48v17H163V483.09h.41l-7.07,12.12h-.85l-7.13-12.12h.46v14.27Z" transform="translate(0 -1.45)"/><path class="cls-7" d="M170.06,487.16a1.21,1.21,0,0,1-.91-.39,1.3,1.3,0,0,1-.37-.94,1.28,1.28,0,1,1,2.56,0,1.3,1.3,0,0,1-.37.94A1.21,1.21,0,0,1,170.06,487.16Zm0,10.32a1.21,1.21,0,0,1-.91-.39,1.28,1.28,0,0,1-.37-.94,1.28,1.28,0,1,1,2.56,0,1.28,1.28,0,0,1-.37.94A1.21,1.21,0,0,1,170.06,497.48Z" transform="translate(0 -1.45)"/><path class="cls-7" d="M183.22,497.36l7.31-16.18.54.77H180.58l.89-.85v4h-1.72V480.4h12.46v1.24l-7.1,15.72Z" transform="translate(0 -1.45)"/><path class="cls-7" d="M194.22,492.9v-1.26l9-11.24h1.93l-8.91,11.24-.95-.29h13.64v1.55Zm9.57,4.46V492.9l.05-1.55v-3.92h1.69v9.93Z" transform="translate(0 -1.45)"/><path class="cls-7" d="M214.08,489.49a3.53,3.53,0,0,1-2-.57,3.77,3.77,0,0,1-1.35-1.61,6,6,0,0,1-.47-2.43,5.87,5.87,0,0,1,.47-2.42,3.77,3.77,0,0,1,1.35-1.61,3.53,3.53,0,0,1,2-.57,3.6,3.6,0,0,1,2,.57,3.79,3.79,0,0,1,1.34,1.6,5.55,5.55,0,0,1,.49,2.43,5.64,5.64,0,0,1-.49,2.43,3.82,3.82,0,0,1-1.34,1.61A3.6,3.6,0,0,1,214.08,489.49Zm0-1.09a2.26,2.26,0,0,0,1.9-.94,5,5,0,0,0,0-5.16,2.43,2.43,0,0,0-3.82,0,5.1,5.1,0,0,0,0,5.16A2.26,2.26,0,0,0,214.11,488.4Zm-1.31,9,11.58-17h1.43l-11.58,17Zm11.7.12a3.53,3.53,0,0,1-2-.57,3.73,3.73,0,0,1-1.36-1.61,6.34,6.34,0,0,1,0-4.84,3.76,3.76,0,0,1,1.36-1.62,3.61,3.61,0,0,1,2-.57,3.69,3.69,0,0,1,2,.57,3.77,3.77,0,0,1,1.33,1.62,6.47,6.47,0,0,1,0,4.84,3.74,3.74,0,0,1-1.33,1.61A3.6,3.6,0,0,1,224.5,497.48Zm0-1.09a2.29,2.29,0,0,0,1.91-.93,5,5,0,0,0,0-5.16,2.42,2.42,0,0,0-3.81,0,5,5,0,0,0,0,5.16A2.28,2.28,0,0,0,224.5,496.39Z" transform="translate(0 -1.45)"/><path class="cls-7" d="M258.6,497.51a9.66,9.66,0,0,1-3.58-.65,8.4,8.4,0,0,1-2.83-1.8,8.24,8.24,0,0,1-1.87-2.74,9.17,9.17,0,0,1,0-6.88,8.12,8.12,0,0,1,1.88-2.74,8.64,8.64,0,0,1,2.85-1.8,9.65,9.65,0,0,1,3.57-.65,10.14,10.14,0,0,1,3.55.61,7.1,7.1,0,0,1,2.75,1.84l-1.12,1.14a6.36,6.36,0,0,0-2.35-1.53,8.24,8.24,0,0,0-2.76-.46,7.74,7.74,0,0,0-2.89.53,7,7,0,0,0-2.31,1.47,6.85,6.85,0,0,0-1.52,2.23,7,7,0,0,0,3.83,9.31,7.87,7.87,0,0,0,2.87.52,8.61,8.61,0,0,0,2.75-.44A6.28,6.28,0,0,0,263.8,494l1,1.36A8.15,8.15,0,0,1,262,497,10.47,10.47,0,0,1,258.6,497.51Zm4.5-2.38v-6.25h1.72v6.47Z" transform="translate(0 -1.45)"/><path class="cls-7" d="M269.69,487.16a1.23,1.23,0,0,1-.91-.39,1.3,1.3,0,0,1-.37-.94,1.26,1.26,0,0,1,.37-.95,1.28,1.28,0,0,1,.91-.36,1.26,1.26,0,0,1,1.29,1.31,1.31,1.31,0,0,1-.38.94A1.21,1.21,0,0,1,269.69,487.16Zm0,10.32a1.23,1.23,0,0,1-.91-.39,1.28,1.28,0,0,1-.37-.94,1.29,1.29,0,1,1,2.57,0,1.29,1.29,0,0,1-.38.94A1.21,1.21,0,0,1,269.69,497.48Z" transform="translate(0 -1.45)"/><path class="cls-7" d="M282.82,497.36V481.13l.78.82h-4.77V480.4h5.74v17Z" transform="translate(0 -1.45)"/><path class="cls-7" d="M294,497.51a10.09,10.09,0,0,1-3.47-.6,6.75,6.75,0,0,1-2.61-1.58l.85-1.39a5.93,5.93,0,0,0,2.19,1.41,8.07,8.07,0,0,0,3,.56,4.94,4.94,0,0,0,3.28-1,3.13,3.13,0,0,0,1.12-2.51,3,3,0,0,0-2.27-3.1,10.63,10.63,0,0,0-3.39-.43h-3.61l.87-8.51h9.28V482h-8.58l.9-.85-.75,7.13-.9-.88h3.17a11.11,11.11,0,0,1,4.12.63,4.48,4.48,0,0,1,2.24,1.76,4.94,4.94,0,0,1,.69,2.63,5.11,5.11,0,0,1-.67,2.6,4.74,4.74,0,0,1-2,1.86A7.69,7.69,0,0,1,294,497.51Z" transform="translate(0 -1.45)"/><path class="cls-7" d="M307.61,480.25a6.89,6.89,0,0,1,3.81,1,6.31,6.31,0,0,1,2.35,2.9,11.78,11.78,0,0,1,.79,4.58,10.65,10.65,0,0,1-1,4.82,6.73,6.73,0,0,1-2.72,2.95,8,8,0,0,1-4.05,1,10.86,10.86,0,0,1-2.17-.22,6.4,6.4,0,0,1-1.85-.7l.7-1.41a4.31,4.31,0,0,0,1.52.62,8.6,8.6,0,0,0,1.78.18,5.72,5.72,0,0,0,4.37-1.74A7.38,7.38,0,0,0,312.8,489c0-.38,0-.82-.06-1.34a9.54,9.54,0,0,0-.28-1.55l.6.46a4.37,4.37,0,0,1-1,2.15,4.94,4.94,0,0,1-1.94,1.34,7.31,7.31,0,0,1-5.52-.17,4.74,4.74,0,0,1-2.75-4.46,4.82,4.82,0,0,1,2.82-4.56A6.68,6.68,0,0,1,307.61,480.25Zm.07,1.48a4.88,4.88,0,0,0-2.14.45,3.39,3.39,0,0,0-2,3.24,3.33,3.33,0,0,0,1.15,2.66,4.63,4.63,0,0,0,3.12,1,5.1,5.1,0,0,0,2.28-.48,3.69,3.69,0,0,0,1.53-1.33,3.48,3.48,0,0,0,.55-1.89,3.31,3.31,0,0,0-.51-1.77,3.77,3.77,0,0,0-1.51-1.35A5.35,5.35,0,0,0,307.68,481.73Z" transform="translate(0 -1.45)"/><path class="cls-7" d="M151.16,526.44v-6.3l.41,1.11-7.19-11.77h1.91l6.32,10.34h-1l6.32-10.34h1.79l-7.19,11.77.41-1.11v6.3Z" transform="translate(0 -1.45)"/><path class="cls-7" d="M162.31,516.24a1.21,1.21,0,0,1-.91-.39,1.31,1.31,0,0,1-.38-1,1.29,1.29,0,0,1,2.19-.94,1.22,1.22,0,0,1,.38.94,1.27,1.27,0,0,1-.38,1A1.2,1.2,0,0,1,162.31,516.24Zm0,10.32a1.21,1.21,0,0,1-.91-.39,1.31,1.31,0,0,1-.38-.94,1.29,1.29,0,0,1,2.19-1,1.23,1.23,0,0,1,.38,1,1.27,1.27,0,0,1-.38.94A1.2,1.2,0,0,1,162.31,526.56Z" transform="translate(0 -1.45)"/><path class="cls-7" d="M178.93,526.58a9.4,9.4,0,0,1-3.5-.58,5,5,0,0,1-2.26-1.68,4.42,4.42,0,0,1-.78-2.61,4,4,0,0,1,.76-2.48,4.77,4.77,0,0,1,2.23-1.59,11.5,11.5,0,0,1,7.09,0,4.92,4.92,0,0,1,2.26,1.59,3.93,3.93,0,0,1,.79,2.48,4.37,4.37,0,0,1-.8,2.61,5,5,0,0,1-2.28,1.68A9.52,9.52,0,0,1,178.93,526.58Zm0-8.5a8.93,8.93,0,0,1-3.21-.51,4.41,4.41,0,0,1-2-1.47,3.82,3.82,0,0,1-.7-2.29,4,4,0,0,1,.74-2.41,4.64,4.64,0,0,1,2.07-1.54,9.51,9.51,0,0,1,6.26,0,4.73,4.73,0,0,1,2.1,1.54,3.93,3.93,0,0,1,.75,2.41,3.75,3.75,0,0,1-.7,2.29,4.37,4.37,0,0,1-2.05,1.47A9.09,9.09,0,0,1,178.93,518.08Zm0,7a5.86,5.86,0,0,0,3.52-.92,3.06,3.06,0,0,0,0-5,7.33,7.33,0,0,0-7,0,3.09,3.09,0,0,0,0,5A5.84,5.84,0,0,0,178.93,525.1Zm0-8.19a5.12,5.12,0,0,0,3.1-.82,2.78,2.78,0,0,0,0-4.47,6.18,6.18,0,0,0-6.12,0,2.59,2.59,0,0,0-1.13,2.24,2.62,2.62,0,0,0,1.1,2.23A5,5,0,0,0,178.93,516.91Z" transform="translate(0 -1.45)"/><path class="cls-7" d="M194.39,526.58a9.4,9.4,0,0,1-3.5-.58,5,5,0,0,1-2.26-1.68,4.43,4.43,0,0,1-.79-2.61,4,4,0,0,1,.77-2.48,4.77,4.77,0,0,1,2.23-1.59,11.47,11.47,0,0,1,7.08,0,5,5,0,0,1,2.27,1.59,4,4,0,0,1,.79,2.48,4.37,4.37,0,0,1-.8,2.61A5.09,5.09,0,0,1,197.9,526,9.56,9.56,0,0,1,194.39,526.58Zm0-8.5a8.93,8.93,0,0,1-3.21-.51,4.41,4.41,0,0,1-2-1.47,3.75,3.75,0,0,1-.7-2.29,4,4,0,0,1,.74-2.41,4.64,4.64,0,0,1,2.07-1.54,9.51,9.51,0,0,1,6.26,0,4.73,4.73,0,0,1,2.1,1.54,3.93,3.93,0,0,1,.75,2.41,3.75,3.75,0,0,1-.7,2.29,4.37,4.37,0,0,1-2,1.47A9.12,9.12,0,0,1,194.39,518.08Zm0,7a5.86,5.86,0,0,0,3.52-.92,3.08,3.08,0,0,0,0-5,7.33,7.33,0,0,0-7,0,3.09,3.09,0,0,0,0,5A5.82,5.82,0,0,0,194.39,525.1Zm0-8.19a5.14,5.14,0,0,0,3.1-.82,2.78,2.78,0,0,0,0-4.47,6.18,6.18,0,0,0-6.12,0,2.6,2.6,0,0,0-1.14,2.24,2.63,2.63,0,0,0,1.11,2.23A5,5,0,0,0,194.39,516.91Z" transform="translate(0 -1.45)"/><path class="cls-7" d="M207,518.56a3.54,3.54,0,0,1-3.33-2.18,6.47,6.47,0,0,1,0-4.84,3.65,3.65,0,0,1,1.34-1.62,3.59,3.59,0,0,1,2-.57,3.55,3.55,0,0,1,2,.57,3.8,3.8,0,0,1,1.35,1.6,6.39,6.39,0,0,1,0,4.86A3.71,3.71,0,0,1,209,518,3.55,3.55,0,0,1,207,518.56Zm0-1.09a2.29,2.29,0,0,0,1.91-.93,5,5,0,0,0,0-5.16,2.43,2.43,0,0,0-3.82,0,5.1,5.1,0,0,0,0,5.16A2.27,2.27,0,0,0,207,517.47Zm-1.3,9,11.58-17h1.43l-11.58,17Zm11.7.12a3.56,3.56,0,0,1-2-.57,3.77,3.77,0,0,1-1.35-1.61,6.25,6.25,0,0,1,0-4.85,3.77,3.77,0,0,1,1.35-1.61,3.81,3.81,0,0,1,4,0,3.75,3.75,0,0,1,1.34,1.61,6.49,6.49,0,0,1,0,4.85A3.75,3.75,0,0,1,219.4,526,3.57,3.57,0,0,1,217.38,526.56Zm0-1.09a2.27,2.27,0,0,0,1.9-.93,5,5,0,0,0,0-5.17,2.41,2.41,0,0,0-3.8,0,5,5,0,0,0,0,5.17A2.27,2.27,0,0,0,217.38,525.47Z" transform="translate(0 -1.45)"/><path class="cls-7" d="M237.69,526.44v-17H245a7.43,7.43,0,0,1,4.4,1.13,3.77,3.77,0,0,1,1.56,3.23,3.86,3.86,0,0,1-2.38,3.75,5.84,5.84,0,0,1-2.41.49l.41-.58a7.23,7.23,0,0,1,2.8.49,4,4,0,0,1,1.82,1.48,4.27,4.27,0,0,1,.66,2.44,3.93,3.93,0,0,1-1.59,3.34,8,8,0,0,1-4.78,1.19Zm1.79-1.48h6a6.42,6.42,0,0,0,3.42-.76,2.69,2.69,0,0,0,1.19-2.44,2.66,2.66,0,0,0-1.19-2.41,6.33,6.33,0,0,0-3.42-.76h-6.18v-1.48h5.6a5.49,5.49,0,0,0,3.16-.78,2.92,2.92,0,0,0,0-4.61,5.57,5.57,0,0,0-3.16-.77h-5.4Z" transform="translate(0 -1.45)"/><path class="cls-7" d="M255.76,516.24a1.21,1.21,0,0,1-.91-.39,1.3,1.3,0,0,1-.37-1,1.28,1.28,0,1,1,2.56,0,1.3,1.3,0,0,1-.37,1A1.21,1.21,0,0,1,255.76,516.24Zm0,10.32a1.21,1.21,0,0,1-.91-.39,1.3,1.3,0,0,1-.37-.94,1.28,1.28,0,1,1,2.56,0,1.3,1.3,0,0,1-.37.94A1.21,1.21,0,0,1,255.76,526.56Z" transform="translate(0 -1.45)"/><path class="cls-7" d="M275.24,526.44V510.2l.78.83h-4.78v-1.55H277v17Z" transform="translate(0 -1.45)"/><path class="cls-7" d="M280.72,526.44V525.2l7-6.9a11.8,11.8,0,0,0,1.45-1.66,4.59,4.59,0,0,0,.65-1.35,4.27,4.27,0,0,0,.17-1.19,2.87,2.87,0,0,0-1-2.32,4.48,4.48,0,0,0-3-.85,7,7,0,0,0-2.65.46,5,5,0,0,0-2,1.43l-1.23-1.07a6.54,6.54,0,0,1,2.54-1.79,9.13,9.13,0,0,1,3.47-.63,7.37,7.37,0,0,1,3,.55,4.17,4.17,0,0,1,2.64,4,5.93,5.93,0,0,1-.23,1.62,6.13,6.13,0,0,1-.83,1.69,13.2,13.2,0,0,1-1.73,2l-6.47,6.34-.48-.67h10.51v1.55Z" transform="translate(0 -1.45)"/><path class="cls-7" d="M297.77,526.44l7.32-16.19.53.78H295.13l.9-.85v4h-1.72v-4.72h12.45v1.23l-7.1,15.73Z" transform="translate(0 -1.45)"/><path class="cls-7" d="M147.11,555.51v-17h1.8v17Zm1.55-4.21-.07-2.18,10.28-10.57h2.06l-7.49,7.85-1,1.09Zm10.64,4.21L152,547.08l1.22-1.31,8.23,9.74Z" transform="translate(0 -1.45)"/><path class="cls-7" d="M164.15,545.31a1.21,1.21,0,0,1-.91-.39,1.37,1.37,0,0,1,0-1.89,1.26,1.26,0,0,1,.91-.36,1.33,1.33,0,0,1,.91,2.25A1.23,1.23,0,0,1,164.15,545.31Zm0,10.32a1.2,1.2,0,0,1-.91-.38,1.33,1.33,0,0,1-.38-1,1.24,1.24,0,0,1,.38-.94,1.23,1.23,0,0,1,.91-.37,1.26,1.26,0,0,1,1.28,1.31,1.32,1.32,0,0,1-.37,1A1.22,1.22,0,0,1,164.15,555.63Z" transform="translate(0 -1.45)"/><path class="cls-7" d="M179.68,555.66a10.09,10.09,0,0,1-3.47-.6,6.68,6.68,0,0,1-2.61-1.58l.84-1.38a6.18,6.18,0,0,0,2.2,1.4,8.06,8.06,0,0,0,3,.56,5,5,0,0,0,3.29-1,3.13,3.13,0,0,0,1.12-2.51,3,3,0,0,0-2.27-3.1,10.65,10.65,0,0,0-3.4-.43h-3.61l.88-8.51h9.28v1.55h-8.58l.9-.85-.76,7.13-.89-.87h3.17a11.14,11.14,0,0,1,4.12.63,4.46,4.46,0,0,1,2.24,1.75,4.94,4.94,0,0,1,.69,2.63,5.06,5.06,0,0,1-.68,2.61,4.7,4.7,0,0,1-2,1.85A7.72,7.72,0,0,1,179.68,555.66Z" transform="translate(0 -1.45)"/><path class="cls-7" d="M187.75,551.05v-1.26l9-11.24h1.93l-8.91,11.24-.95-.29h13.64v1.55Zm9.57,4.46v-4.46l.05-1.55v-3.92h1.69v9.93Z" transform="translate(0 -1.45)"/><path class="cls-7" d="M207.62,547.64a3.54,3.54,0,0,1-2-.57,3.77,3.77,0,0,1-1.35-1.61,6.49,6.49,0,0,1,0-4.85,3.77,3.77,0,0,1,1.35-1.61,3.81,3.81,0,0,1,4,0,3.79,3.79,0,0,1,1.34,1.6,6.27,6.27,0,0,1,0,4.86,3.82,3.82,0,0,1-1.34,1.61A3.57,3.57,0,0,1,207.62,547.64Zm0-1.09a2.27,2.27,0,0,0,1.9-.93,5,5,0,0,0,0-5.17,2.42,2.42,0,0,0-3.81,0,5.06,5.06,0,0,0,0,5.17A2.25,2.25,0,0,0,207.64,546.55Zm-1.31,9,11.58-17h1.43l-11.58,17Zm11.7.12a3.53,3.53,0,0,1-2-.57,3.67,3.67,0,0,1-1.36-1.61,6.34,6.34,0,0,1,0-4.84,3.73,3.73,0,0,1,1.36-1.61,3.53,3.53,0,0,1,2-.57,3.6,3.6,0,0,1,2,.57,3.67,3.67,0,0,1,1.33,1.61,6.47,6.47,0,0,1,0,4.84,3.51,3.51,0,0,1-3.36,2.18Zm0-1.09a2.29,2.29,0,0,0,1.91-.93,5,5,0,0,0,0-5.16,2.42,2.42,0,0,0-3.81,0,5,5,0,0,0,0,5.16A2.28,2.28,0,0,0,218,554.54Z" transform="translate(0 -1.45)"/><path class="cls-7" d="M154.46,613.2a9.69,9.69,0,0,1-3.54-.64,8.34,8.34,0,0,1-2.81-1.81,8.52,8.52,0,0,1-1.86-2.74,9.29,9.29,0,0,1,0-6.88,8.39,8.39,0,0,1,1.87-2.74,8.61,8.61,0,0,1,2.82-1.8,9.48,9.48,0,0,1,3.54-.64,9.65,9.65,0,0,1,3.46.61,6.92,6.92,0,0,1,2.74,1.86l-1.14,1.14a6.22,6.22,0,0,0-2.3-1.54,7.88,7.88,0,0,0-5.55.05,6.69,6.69,0,0,0-2.27,1.47,7,7,0,0,0-1.52,2.23,7.53,7.53,0,0,0,0,5.6,7,7,0,0,0,1.52,2.23,6.71,6.71,0,0,0,2.27,1.48,7.79,7.79,0,0,0,2.84.52,7.33,7.33,0,0,0,2.71-.49,6.37,6.37,0,0,0,2.3-1.55l1.14,1.14a6.94,6.94,0,0,1-2.74,1.87A9.52,9.52,0,0,1,154.46,613.2Z" transform="translate(0 -1.45)"/><path class="cls-7" d="M164.32,602.85a1.21,1.21,0,0,1-.91-.39,1.37,1.37,0,0,1,0-1.89,1.26,1.26,0,0,1,.91-.36,1.33,1.33,0,0,1,.91,2.25A1.23,1.23,0,0,1,164.32,602.85Zm0,10.32a1.24,1.24,0,0,1-.91-.38,1.33,1.33,0,0,1-.38-.95,1.24,1.24,0,0,1,.38-.94,1.23,1.23,0,0,1,.91-.37,1.26,1.26,0,0,1,1.28,1.31,1.32,1.32,0,0,1-.37.95A1.25,1.25,0,0,1,164.32,613.17Z" transform="translate(0 -1.45)"/><path class="cls-7" d="M177.45,613.05V596.82l.78.82h-4.78v-1.55h5.74v17Z" transform="translate(0 -1.45)"/><path class="cls-7" d="M188.52,596a6.89,6.89,0,0,1,3.81,1,6.31,6.31,0,0,1,2.35,2.9,11.77,11.77,0,0,1,.8,4.58,10.64,10.64,0,0,1-1,4.82,6.73,6.73,0,0,1-2.72,3,8,8,0,0,1-4.05,1,10.86,10.86,0,0,1-2.17-.22,6.4,6.4,0,0,1-1.85-.7l.7-1.41a4.31,4.31,0,0,0,1.52.62,8.6,8.6,0,0,0,1.78.18,5.72,5.72,0,0,0,4.37-1.74,7.38,7.38,0,0,0,1.64-5.21c0-.37,0-.82-.06-1.34a8.57,8.57,0,0,0-.28-1.55l.6.46a4.37,4.37,0,0,1-1,2.15,5,5,0,0,1-1.93,1.34,7.33,7.33,0,0,1-5.53-.17,4.74,4.74,0,0,1-2.75-4.46,4.82,4.82,0,0,1,2.82-4.56A6.67,6.67,0,0,1,188.52,596Zm.08,1.47a4.89,4.89,0,0,0-2.15.45,3.39,3.39,0,0,0-2,3.24,3.33,3.33,0,0,0,1.15,2.66,4.64,4.64,0,0,0,3.12,1,5.18,5.18,0,0,0,2.29-.49,3.73,3.73,0,0,0,1.52-1.33,3.39,3.39,0,0,0,.55-1.89,3.31,3.31,0,0,0-.51-1.77,3.81,3.81,0,0,0-1.5-1.35A5.4,5.4,0,0,0,188.6,597.42Z" transform="translate(0 -1.45)"/><path class="cls-7" d="M201.56,605.18a3.54,3.54,0,0,1-2-.57,3.68,3.68,0,0,1-1.34-1.61,6.37,6.37,0,0,1,0-4.85,3.68,3.68,0,0,1,1.34-1.61,3.81,3.81,0,0,1,4,0,3.88,3.88,0,0,1,1.35,1.6,5.73,5.73,0,0,1,.48,2.43,5.79,5.79,0,0,1-.48,2.43,3.91,3.91,0,0,1-1.35,1.61A3.57,3.57,0,0,1,201.56,605.18Zm0-1.09a2.25,2.25,0,0,0,1.9-.94,5,5,0,0,0,0-5.16,2.42,2.42,0,0,0-3.81,0,5.1,5.1,0,0,0,0,5.16A2.25,2.25,0,0,0,201.58,604.09Zm-1.31,9,11.58-17h1.43l-11.58,17Zm11.71.12a3.54,3.54,0,0,1-2-.57,3.8,3.8,0,0,1-1.36-1.61,6.34,6.34,0,0,1,0-4.84,3.74,3.74,0,0,1,1.36-1.61,3.81,3.81,0,0,1,4,0,3.61,3.61,0,0,1,1.33,1.61,6.34,6.34,0,0,1,0,4.84A3.67,3.67,0,0,1,214,612.6,3.57,3.57,0,0,1,212,613.17Zm0-1.09a2.28,2.28,0,0,0,1.9-.93,5,5,0,0,0,0-5.16,2.42,2.42,0,0,0-3.81,0,5,5,0,0,0,0,5.16A2.3,2.3,0,0,0,212,612.08Z" transform="translate(0 -1.45)"/><path class="cls-7" d="M245,613.05v-17h6.35a9.05,9.05,0,0,1,3.7.69,5.29,5.29,0,0,1,2.39,2,6.2,6.2,0,0,1,0,6.23,5.34,5.34,0,0,1-2.39,2,9.05,9.05,0,0,1-3.7.69H246l.8-.82v6.2Zm1.79-6.06-.8-.84h5.31a5.86,5.86,0,0,0,3.86-1.12,4.38,4.38,0,0,0,0-6.27,5.81,5.81,0,0,0-3.86-1.12H246l.8-.85Zm9.79,6.06-4.36-6.15h1.94l4.38,6.15Z" transform="translate(0 -1.45)"/><path class="cls-7" d="M262.3,602.85a1.23,1.23,0,0,1-.91-.39,1.31,1.31,0,0,1,.91-2.25,1.26,1.26,0,0,1,.91.36,1.37,1.37,0,0,1,0,1.89A1.21,1.21,0,0,1,262.3,602.85Zm0,10.32a1.25,1.25,0,0,1-.91-.38,1.32,1.32,0,0,1-.37-.95,1.29,1.29,0,1,1,2.57,0,1.33,1.33,0,0,1-.38.95A1.24,1.24,0,0,1,262.3,613.17Z" transform="translate(0 -1.45)"/><path class="cls-7" d="M275.43,613.05V596.82l.78.82h-4.77v-1.55h5.74v17Z" transform="translate(0 -1.45)"/><path class="cls-7" d="M286.51,596a6.83,6.83,0,0,1,3.8,1,6.25,6.25,0,0,1,2.35,2.9,11.77,11.77,0,0,1,.8,4.58,10.78,10.78,0,0,1-1,4.82,6.75,6.75,0,0,1-2.73,3,7.94,7.94,0,0,1-4,1,10.86,10.86,0,0,1-2.17-.22,6.18,6.18,0,0,1-1.85-.7l.7-1.41a4.26,4.26,0,0,0,1.51.62,8.74,8.74,0,0,0,1.78.18,5.72,5.72,0,0,0,4.38-1.74,7.38,7.38,0,0,0,1.63-5.21c0-.37,0-.82-.06-1.34a7.79,7.79,0,0,0-.28-1.55l.61.46a4.46,4.46,0,0,1-1,2.15,5,5,0,0,1-1.94,1.34,6.78,6.78,0,0,1-2.56.46,6.67,6.67,0,0,1-3-.63,4.69,4.69,0,0,1-2.75-4.46,4.82,4.82,0,0,1,2.82-4.56A6.67,6.67,0,0,1,286.51,596Zm.07,1.47a4.85,4.85,0,0,0-2.14.45,3.45,3.45,0,0,0-1.47,1.27,3.52,3.52,0,0,0-.53,2,3.33,3.33,0,0,0,1.15,2.66,4.59,4.59,0,0,0,3.11,1,5.15,5.15,0,0,0,2.29-.49,3.82,3.82,0,0,0,1.53-1.33,3.47,3.47,0,0,0,.54-1.89,3.31,3.31,0,0,0-.51-1.77,3.81,3.81,0,0,0-1.5-1.35A5.38,5.38,0,0,0,286.58,597.42Z" transform="translate(0 -1.45)"/><path class="cls-7" d="M295.69,608.59v-1.26l9-11.24h1.94l-8.92,11.24-.94-.29H310.4v1.55Zm9.57,4.46v-4.46l.05-1.55v-3.92H307v9.93Z" transform="translate(0 -1.45)"/><path class="cls-7" d="M147.09,642.13v-17h1.48l7.75,13.23h-.77l7.68-13.23h1.47v17H163V627.86h.42L156.32,640h-.85l-7.12-12.11h.46v14.27Z" transform="translate(0 -1.45)"/><path class="cls-7" d="M170,631.93a1.21,1.21,0,0,1-.91-.39,1.31,1.31,0,0,1-.38-.95,1.29,1.29,0,1,1,2.57,0,1.31,1.31,0,0,1-.38.95A1.2,1.2,0,0,1,170,631.93Zm0,10.32a1.21,1.21,0,0,1-.91-.39,1.31,1.31,0,0,1-.38-.94,1.29,1.29,0,1,1,2.57,0,1.31,1.31,0,0,1-.38.94A1.2,1.2,0,0,1,170,642.25Z" transform="translate(0 -1.45)"/><path class="cls-7" d="M186.66,642.27a9.4,9.4,0,0,1-3.5-.58A5,5,0,0,1,180.9,640a4.43,4.43,0,0,1-.79-2.61,4,4,0,0,1,.77-2.48,4.77,4.77,0,0,1,2.23-1.59,11.67,11.67,0,0,1,7.08,0,4.9,4.9,0,0,1,2.27,1.59,4,4,0,0,1,.79,2.48,4.37,4.37,0,0,1-.8,2.61,5.09,5.09,0,0,1-2.28,1.68A9.52,9.52,0,0,1,186.66,642.27Zm0-8.5a8.93,8.93,0,0,1-3.21-.51,4.41,4.41,0,0,1-2-1.47,3.73,3.73,0,0,1-.7-2.29,4,4,0,0,1,.74-2.41,4.64,4.64,0,0,1,2.07-1.54,9.51,9.51,0,0,1,6.26,0,4.73,4.73,0,0,1,2.1,1.54,3.93,3.93,0,0,1,.75,2.41,3.73,3.73,0,0,1-.7,2.29,4.37,4.37,0,0,1-2.05,1.47A9.12,9.12,0,0,1,186.66,633.77Zm0,7a5.86,5.86,0,0,0,3.52-.93,2.9,2.9,0,0,0,1.27-2.49,2.87,2.87,0,0,0-1.27-2.48,7.26,7.26,0,0,0-7,0,2.89,2.89,0,0,0-1.26,2.48,2.92,2.92,0,0,0,1.26,2.49A5.82,5.82,0,0,0,186.66,640.8Zm0-8.19a5.12,5.12,0,0,0,3.1-.83,2.78,2.78,0,0,0,0-4.47,6.18,6.18,0,0,0-6.12,0,2.59,2.59,0,0,0-1.13,2.24,2.62,2.62,0,0,0,1.1,2.23A5,5,0,0,0,186.66,632.61Z" transform="translate(0 -1.45)"/><path class="cls-7" d="M195.35,642.13v-1.24l7.06-6.9a11.8,11.8,0,0,0,1.45-1.66,4.59,4.59,0,0,0,.65-1.35,4.27,4.27,0,0,0,.17-1.19,2.87,2.87,0,0,0-1-2.32,4.48,4.48,0,0,0-3-.85,7,7,0,0,0-2.65.46,5,5,0,0,0-2,1.43l-1.23-1.07a6.54,6.54,0,0,1,2.54-1.79,9.11,9.11,0,0,1,3.46-.63,7.42,7.42,0,0,1,3,.55,4.17,4.17,0,0,1,2.64,4,5.93,5.93,0,0,1-.23,1.62,6.13,6.13,0,0,1-.83,1.69,13.2,13.2,0,0,1-1.73,2l-6.47,6.35-.48-.68h10.51v1.55Z" transform="translate(0 -1.45)"/><path class="cls-7" d="M213,634.25a3.53,3.53,0,0,1-2-.57,3.71,3.71,0,0,1-1.35-1.61,6.47,6.47,0,0,1,0-4.84,3.71,3.71,0,0,1,1.35-1.61,3.53,3.53,0,0,1,2-.57,3.6,3.6,0,0,1,2,.57,3.82,3.82,0,0,1,1.34,1.59,6.27,6.27,0,0,1,0,4.86,3.76,3.76,0,0,1-1.34,1.61A3.6,3.6,0,0,1,213,634.25Zm0-1.09a2.28,2.28,0,0,0,1.9-.93,5,5,0,0,0,0-5.16,2.43,2.43,0,0,0-3.82,0,5.1,5.1,0,0,0,0,5.16A2.28,2.28,0,0,0,213,633.16Zm-1.31,9,11.58-17h1.43l-11.58,17Zm11.7.12a3.53,3.53,0,0,1-2-.57,3.72,3.72,0,0,1-1.36-1.61,6.25,6.25,0,0,1,0-4.85,3.72,3.72,0,0,1,1.36-1.61,3.53,3.53,0,0,1,2-.57,3.6,3.6,0,0,1,2,.57,3.8,3.8,0,0,1,1.33,1.61,6.49,6.49,0,0,1,0,4.85,3.8,3.8,0,0,1-1.33,1.61A3.6,3.6,0,0,1,223.41,642.25Zm0-1.09a2.27,2.27,0,0,0,1.9-.93,5,5,0,0,0,0-5.17,2.41,2.41,0,0,0-3.8,0,5.06,5.06,0,0,0,0,5.17A2.28,2.28,0,0,0,223.41,641.16Z" transform="translate(0 -1.45)"/><path class="cls-7" d="M257.5,642.27a9.64,9.64,0,0,1-3.57-.64,8.45,8.45,0,0,1-2.83-1.8,8.24,8.24,0,0,1-1.87-2.74,9.17,9.17,0,0,1,0-6.88,8,8,0,0,1,1.88-2.74,8.47,8.47,0,0,1,2.84-1.81,10.48,10.48,0,0,1,7.13,0,7.1,7.1,0,0,1,2.75,1.84l-1.12,1.14a6.36,6.36,0,0,0-2.35-1.53,8,8,0,0,0-2.76-.46,7.74,7.74,0,0,0-2.89.52,7,7,0,0,0,0,13,7.67,7.67,0,0,0,2.87.52,8.61,8.61,0,0,0,2.75-.43,6.4,6.4,0,0,0,2.38-1.48l1,1.36a8.31,8.31,0,0,1-2.83,1.61A10.76,10.76,0,0,1,257.5,642.27ZM262,639.9v-6.25h1.72v6.47Z" transform="translate(0 -1.45)"/><path class="cls-7" d="M268.6,631.93a1.23,1.23,0,0,1-.91-.39,1.3,1.3,0,0,1-.37-.95,1.25,1.25,0,0,1,.37-.94,1.28,1.28,0,0,1,.91-.36,1.26,1.26,0,0,1,1.29,1.3,1.31,1.31,0,0,1-.38.95A1.21,1.21,0,0,1,268.6,631.93Zm0,10.32a1.23,1.23,0,0,1-.91-.39,1.3,1.3,0,0,1-.37-.94,1.26,1.26,0,0,1,.37-.95,1.28,1.28,0,0,1,.91-.36,1.26,1.26,0,0,1,1.29,1.31,1.31,1.31,0,0,1-.38.94A1.21,1.21,0,0,1,268.6,642.25Z" transform="translate(0 -1.45)"/><path class="cls-7" d="M281.76,642.13l7.31-16.19.54.78H279.12l.89-.85v4h-1.72v-4.72h12.46v1.23l-7.1,15.73Z" transform="translate(0 -1.45)"/><path class="cls-7" d="M296,642.13V625.89l.78.83H292v-1.55h5.74v17Z" transform="translate(0 -1.45)"/><path class="cls-7" d="M151.14,671.2v-6.3l.41,1.12-7.2-11.78h1.92l6.32,10.35h-1l6.33-10.35h1.79L152.49,666l.41-1.12v6.3Z" transform="translate(0 -1.45)"/><path class="cls-7" d="M162.28,661a1.25,1.25,0,0,1-.91-.38,1.32,1.32,0,0,1-.37-1,1.29,1.29,0,1,1,2.57,0,1.33,1.33,0,0,1-.38,1A1.24,1.24,0,0,1,162.28,661Zm0,10.32a1.22,1.22,0,0,1-.91-.38,1.32,1.32,0,0,1-.37-1,1.29,1.29,0,1,1,2.57,0,1.33,1.33,0,0,1-.38,1A1.2,1.2,0,0,1,162.28,671.32Z" transform="translate(0 -1.45)"/><path class="cls-7" d="M177.52,671.35a10.3,10.3,0,0,1-3.48-.59,7.09,7.09,0,0,1-2.62-1.59l.84-1.38a6.36,6.36,0,0,0,2.22,1.4,8.14,8.14,0,0,0,3,.56,5,5,0,0,0,3.24-.92,3.3,3.3,0,0,0,0-4.94,5.33,5.33,0,0,0-3.48-.92h-1.21v-1.29l5.24-6.57.24.68h-9.45v-1.55H183v1.24L177.79,662l-.85-.55h.65a6.69,6.69,0,0,1,4.57,1.35,4.49,4.49,0,0,1,1.52,3.49,4.93,4.93,0,0,1-.68,2.57,4.58,4.58,0,0,1-2.05,1.79A7.89,7.89,0,0,1,177.52,671.35Z" transform="translate(0 -1.45)"/><path class="cls-7" d="M191.19,671.35a10.25,10.25,0,0,1-3.48-.59,7.14,7.14,0,0,1-2.63-1.59l.85-1.38a6.36,6.36,0,0,0,2.22,1.4,8.14,8.14,0,0,0,3,.56,5,5,0,0,0,3.23-.92,3.29,3.29,0,0,0,0-4.94A5.37,5.37,0,0,0,191,663h-1.21v-1.29l5.23-6.57.24.68h-9.45v-1.55h10.91v1.24L191.45,662l-.84-.55h.65a6.69,6.69,0,0,1,4.57,1.35,4.48,4.48,0,0,1,1.51,3.49,4.84,4.84,0,0,1-.68,2.57,4.55,4.55,0,0,1-2,1.79A7.92,7.92,0,0,1,191.19,671.35Z" transform="translate(0 -1.45)"/><path class="cls-7" d="M203.35,663.33a3.59,3.59,0,0,1-2-.57,3.68,3.68,0,0,1-1.34-1.61,6.49,6.49,0,0,1,0-4.85,3.68,3.68,0,0,1,1.34-1.61,3.59,3.59,0,0,1,2-.57,3.55,3.55,0,0,1,2,.57,3.74,3.74,0,0,1,1.35,1.6,6.39,6.39,0,0,1,0,4.86,3.77,3.77,0,0,1-1.35,1.61A3.55,3.55,0,0,1,203.35,663.33Zm0-1.09a2.28,2.28,0,0,0,1.9-.93,5.06,5.06,0,0,0,0-5.17,2.43,2.43,0,0,0-3.82,0,5.12,5.12,0,0,0,0,5.17A2.28,2.28,0,0,0,203.38,662.24Zm-1.31,9,11.58-17h1.43l-11.58,17Zm11.7.12a3.56,3.56,0,0,1-2-.56,3.74,3.74,0,0,1-1.35-1.62,6.22,6.22,0,0,1,0-4.84,3.71,3.71,0,0,1,1.35-1.61,3.81,3.81,0,0,1,4,0,3.69,3.69,0,0,1,1.34,1.61,6.47,6.47,0,0,1,0,4.84,3.72,3.72,0,0,1-1.34,1.62A3.54,3.54,0,0,1,213.77,671.32Zm0-1.09a2.27,2.27,0,0,0,1.9-.93,5,5,0,0,0,0-5.16,2.41,2.41,0,0,0-3.8,0,5,5,0,0,0,0,5.16A2.27,2.27,0,0,0,213.77,670.23Z" transform="translate(0 -1.45)"/><path class="cls-7" d="M234.07,671.2v-17h7.32a7.36,7.36,0,0,1,4.4,1.14,3.75,3.75,0,0,1,1.56,3.22,3.86,3.86,0,0,1-2.38,3.76,6,6,0,0,1-2.41.48l.41-.58a7.22,7.22,0,0,1,2.8.5,3.93,3.93,0,0,1,1.82,1.48,4.24,4.24,0,0,1,.66,2.43,3.94,3.94,0,0,1-1.59,3.35,8,8,0,0,1-4.78,1.18Zm1.8-1.47h6a6.32,6.32,0,0,0,3.42-.77,2.68,2.68,0,0,0,1.19-2.43,2.65,2.65,0,0,0-1.19-2.41,6.32,6.32,0,0,0-3.42-.77h-6.18v-1.47h5.6a5.49,5.49,0,0,0,3.16-.78,2.93,2.93,0,0,0,0-4.62,5.65,5.65,0,0,0-3.16-.76h-5.4Z" transform="translate(0 -1.45)"/><path class="cls-7" d="M252.15,661a1.24,1.24,0,0,1-.91-.38,1.32,1.32,0,0,1-.37-1,1.28,1.28,0,1,1,2.56,0,1.32,1.32,0,0,1-.37,1A1.24,1.24,0,0,1,252.15,661Zm0,10.32a1.2,1.2,0,0,1-.91-.38,1.32,1.32,0,0,1-.37-1,1.28,1.28,0,1,1,2.56,0,1.32,1.32,0,0,1-.37,1A1.2,1.2,0,0,1,252.15,671.32Z" transform="translate(0 -1.45)"/><path class="cls-7" d="M271.63,671.2V655l.78.82h-4.78v-1.55h5.75v17Z" transform="translate(0 -1.45)"/><path class="cls-7" d="M280.38,671.2V655l.77.82h-4.77v-1.55h5.74v17Z" transform="translate(0 -1.45)"/><path class="cls-7" d="M292.93,671.35a6.07,6.07,0,0,1-3.49-1,6.85,6.85,0,0,1-2.4-3,12.81,12.81,0,0,1,0-9.28,6.82,6.82,0,0,1,2.4-3,6.43,6.43,0,0,1,7,0,6.91,6.91,0,0,1,2.41,3,12.67,12.67,0,0,1,0,9.28,6.94,6.94,0,0,1-2.41,3A6.07,6.07,0,0,1,292.93,671.35Zm0-1.6a4.31,4.31,0,0,0,2.61-.81,5.21,5.21,0,0,0,1.75-2.38,12,12,0,0,0,0-7.68,5.24,5.24,0,0,0-1.75-2.37,4.58,4.58,0,0,0-5.2,0,5.2,5.2,0,0,0-1.77,2.37,12,12,0,0,0,0,7.68,5.18,5.18,0,0,0,1.77,2.38A4.33,4.33,0,0,0,292.93,669.75Z" transform="translate(0 -1.45)"/><path class="cls-7" d="M147.09,700.28v-17h1.79v17Zm1.55-4.22-.07-2.18,10.27-10.56h2.06l-7.49,7.85-1,1.09Zm10.64,4.22L152,691.85l1.21-1.31,8.24,9.74Z" transform="translate(0 -1.45)"/><path class="cls-7" d="M164.12,690.08a1.2,1.2,0,0,1-.9-.39,1.27,1.27,0,0,1-.38-.94,1.23,1.23,0,0,1,.38-1,1.29,1.29,0,0,1,2.19,1,1.31,1.31,0,0,1-.38.94A1.21,1.21,0,0,1,164.12,690.08Zm0,10.32a1.2,1.2,0,0,1-.9-.39,1.27,1.27,0,0,1-.38-.94,1.26,1.26,0,0,1,1.28-1.31,1.26,1.26,0,0,1,.91.36,1.28,1.28,0,0,1,.38,1,1.31,1.31,0,0,1-.38.94A1.21,1.21,0,0,1,164.12,700.4Z" transform="translate(0 -1.45)"/><path class="cls-7" d="M177.28,700.28l7.32-16.19.53.78H174.64l.9-.85v4h-1.73v-4.72h12.46v1.23l-7.1,15.73Z" transform="translate(0 -1.45)"/><path class="cls-7" d="M192.13,692.41a3.53,3.53,0,0,1-2-.57,3.67,3.67,0,0,1-1.35-1.62,6.47,6.47,0,0,1,0-4.84,3.64,3.64,0,0,1,1.35-1.61,3.53,3.53,0,0,1,2-.57,3.6,3.6,0,0,1,2,.57,3.79,3.79,0,0,1,1.34,1.6,6.25,6.25,0,0,1,0,4.85,3.79,3.79,0,0,1-1.34,1.62A3.6,3.6,0,0,1,192.13,692.41Zm0-1.1a2.28,2.28,0,0,0,1.9-.93,5,5,0,0,0,0-5.16,2.43,2.43,0,0,0-3.82,0,5.1,5.1,0,0,0,0,5.16A2.28,2.28,0,0,0,192.16,691.31Zm-1.31,9,11.58-17h1.43l-11.58,17Zm11.7.12a3.59,3.59,0,0,1-2-.57,3.71,3.71,0,0,1-1.35-1.61,5.56,5.56,0,0,1-.49-2.42,5.64,5.64,0,0,1,.49-2.43,3.77,3.77,0,0,1,1.35-1.61,3.59,3.59,0,0,1,2-.57,3.55,3.55,0,0,1,2,.57,3.75,3.75,0,0,1,1.34,1.61,6,6,0,0,1,.47,2.43,5.87,5.87,0,0,1-.47,2.42,3.69,3.69,0,0,1-1.34,1.61A3.55,3.55,0,0,1,202.55,700.4Zm0-1.09a2.27,2.27,0,0,0,1.9-.93,5,5,0,0,0,0-5.16,2.39,2.39,0,0,0-3.8,0,5,5,0,0,0,0,5.16A2.28,2.28,0,0,0,202.55,699.31Z" transform="translate(0 -1.45)"/><path class="cls-7" d="M155.74,756.57a9.49,9.49,0,0,1-3.54-.65,8.21,8.21,0,0,1-4.66-4.54,9.17,9.17,0,0,1,0-6.88,8.22,8.22,0,0,1,1.86-2.74,8.4,8.4,0,0,1,2.83-1.8,9.47,9.47,0,0,1,3.53-.65,9.71,9.71,0,0,1,3.47.62,7,7,0,0,1,2.74,1.86l-1.14,1.13a6.27,6.27,0,0,0-2.3-1.53,7.59,7.59,0,0,0-2.72-.48,7.74,7.74,0,0,0-2.83.52,6.75,6.75,0,0,0-2.28,1.48,6.82,6.82,0,0,0-1.51,2.23,7.4,7.4,0,0,0,0,5.6A6.82,6.82,0,0,0,150.7,753a6.75,6.75,0,0,0,2.28,1.48,7.74,7.74,0,0,0,2.83.52,7.38,7.38,0,0,0,2.72-.49,6.45,6.45,0,0,0,2.3-1.55l1.14,1.14a7.2,7.2,0,0,1-2.74,1.87A9.57,9.57,0,0,1,155.74,756.57Z" transform="translate(0 -1.45)"/><path class="cls-7" d="M165.6,746.22a1.23,1.23,0,0,1-.91-.39,1.3,1.3,0,0,1-.37-.94,1.26,1.26,0,0,1,.37-.95,1.28,1.28,0,0,1,.91-.36,1.26,1.26,0,0,1,1.29,1.31,1.31,1.31,0,0,1-.38.94A1.21,1.21,0,0,1,165.6,746.22Zm0,10.32a1.23,1.23,0,0,1-.91-.39,1.31,1.31,0,0,1,.91-2.25,1.26,1.26,0,0,1,.91.36,1.37,1.37,0,0,1,0,1.89A1.21,1.21,0,0,1,165.6,756.54Z" transform="translate(0 -1.45)"/><path class="cls-7" d="M178.73,756.42V740.19l.78.82h-4.77v-1.55h5.74v17Z" transform="translate(0 -1.45)"/><path class="cls-7" d="M187.48,756.42V740.19l.78.82h-4.78v-1.55h5.75v17Z" transform="translate(0 -1.45)"/><path class="cls-7" d="M196.83,748.55a3.53,3.53,0,0,1-2-.57,3.67,3.67,0,0,1-1.35-1.62,6.47,6.47,0,0,1,0-4.84,3.64,3.64,0,0,1,1.35-1.61,3.53,3.53,0,0,1,2-.57,3.6,3.6,0,0,1,2,.57,3.79,3.79,0,0,1,1.34,1.6,6.25,6.25,0,0,1,0,4.85,3.79,3.79,0,0,1-1.34,1.62A3.6,3.6,0,0,1,196.83,748.55Zm0-1.09a2.29,2.29,0,0,0,1.9-.94,5,5,0,0,0,0-5.16,2.43,2.43,0,0,0-3.82,0,5.1,5.1,0,0,0,0,5.16A2.29,2.29,0,0,0,196.86,747.46Zm-1.31,9,11.58-17h1.43l-11.58,17Zm11.7.12a3.53,3.53,0,0,1-2-.57,3.66,3.66,0,0,1-1.36-1.61,5.56,5.56,0,0,1-.49-2.42,5.64,5.64,0,0,1,.49-2.43,3.72,3.72,0,0,1,1.36-1.61,3.79,3.79,0,0,1,4,0,3.75,3.75,0,0,1,1.34,1.61,6,6,0,0,1,.47,2.43,5.87,5.87,0,0,1-.47,2.42,3.69,3.69,0,0,1-1.34,1.61A3.55,3.55,0,0,1,207.25,756.54Zm0-1.09a2.27,2.27,0,0,0,1.9-.93,5,5,0,0,0,0-5.16,2.39,2.39,0,0,0-3.8,0,5,5,0,0,0,0,5.16A2.28,2.28,0,0,0,207.25,755.45Z" transform="translate(0 -1.45)"/><path class="cls-7" d="M240.25,756.42v-17h6.35a9.1,9.1,0,0,1,3.71.69,5.27,5.27,0,0,1,2.38,2,5.63,5.63,0,0,1,.84,3.13,5.54,5.54,0,0,1-.84,3.09,5.27,5.27,0,0,1-2.38,2,9.1,9.1,0,0,1-3.71.69h-5.35l.8-.82v6.2Zm1.8-6.06-.8-.85h5.3a5.88,5.88,0,0,0,3.87-1.11,3.86,3.86,0,0,0,1.32-3.13,3.91,3.91,0,0,0-1.32-3.15,5.88,5.88,0,0,0-3.87-1.11h-5.3l.8-.85Zm9.78,6.06-4.36-6.15h1.94l4.39,6.15Z" transform="translate(0 -1.45)"/><path class="cls-7" d="M257.58,746.22a1.21,1.21,0,0,1-.91-.39,1.31,1.31,0,0,1-.38-.94,1.29,1.29,0,0,1,2.19-.95,1.23,1.23,0,0,1,.38.95,1.27,1.27,0,0,1-.38.94A1.2,1.2,0,0,1,257.58,746.22Zm0,10.32a1.21,1.21,0,0,1-.91-.39,1.37,1.37,0,0,1,0-1.89,1.32,1.32,0,0,1,1.81,0,1.37,1.37,0,0,1,0,1.89A1.2,1.2,0,0,1,257.58,756.54Z" transform="translate(0 -1.45)"/><path class="cls-7" d="M267.44,756.42v-1.24l7.05-6.9a11.27,11.27,0,0,0,1.45-1.66,4.34,4.34,0,0,0,.83-2.53,2.89,2.89,0,0,0-1-2.33,4.53,4.53,0,0,0-3-.85,7.25,7.25,0,0,0-2.65.46,5.09,5.09,0,0,0-2,1.43l-1.23-1.06a6.46,6.46,0,0,1,2.54-1.8,9.16,9.16,0,0,1,3.47-.63,7.55,7.55,0,0,1,3,.55,4.2,4.2,0,0,1,2.64,4,6.05,6.05,0,0,1-.23,1.63,6.16,6.16,0,0,1-.82,1.68,13.43,13.43,0,0,1-1.74,2l-6.47,6.35-.48-.68h10.51v1.55Z" transform="translate(0 -1.45)"/><path class="cls-7" d="M286.58,756.57a10,10,0,0,1-3.48-.6,7.07,7.07,0,0,1-2.63-1.58l.85-1.39a6.24,6.24,0,0,0,2.22,1.41,8.14,8.14,0,0,0,3,.56,5,5,0,0,0,3.23-.92,3.3,3.3,0,0,0,0-4.95,5.42,5.42,0,0,0-3.48-.92h-1.21V746.9l5.23-6.57.25.68h-9.45v-1.55h10.9v1.24l-5.23,6.56-.85-.56h.65a6.69,6.69,0,0,1,4.57,1.36,4.48,4.48,0,0,1,1.51,3.49,5,5,0,0,1-.67,2.57,4.63,4.63,0,0,1-2.05,1.79A7.89,7.89,0,0,1,286.58,756.57Z" transform="translate(0 -1.45)"/><path class="cls-7" d="M301.63,756.57a9.39,9.39,0,0,1-3.5-.59,4.84,4.84,0,0,1-2.26-1.68,4.38,4.38,0,0,1-.79-2.6,4.08,4.08,0,0,1,.77-2.49,4.92,4.92,0,0,1,2.23-1.59,11.67,11.67,0,0,1,7.08,0,5.1,5.1,0,0,1,2.27,1.59,4,4,0,0,1,.79,2.49,4.32,4.32,0,0,1-.8,2.6,5,5,0,0,1-2.28,1.68A9.55,9.55,0,0,1,301.63,756.57Zm0-8.51a8.93,8.93,0,0,1-3.21-.51,4.47,4.47,0,0,1-2-1.46,3.75,3.75,0,0,1-.7-2.29,4,4,0,0,1,.74-2.41,4.56,4.56,0,0,1,2.07-1.54,9.34,9.34,0,0,1,6.26,0,4.66,4.66,0,0,1,2.1,1.54,3.91,3.91,0,0,1,.75,2.41,3.75,3.75,0,0,1-.7,2.29,4.43,4.43,0,0,1-2.05,1.46A9.12,9.12,0,0,1,301.63,748.06Zm0,7a5.94,5.94,0,0,0,3.52-.92,2.93,2.93,0,0,0,1.27-2.5,2.87,2.87,0,0,0-1.27-2.48,7.26,7.26,0,0,0-7,0,2.89,2.89,0,0,0-1.26,2.48,3,3,0,0,0,1.26,2.5A5.89,5.89,0,0,0,301.63,755.09Zm0-8.19a5.14,5.14,0,0,0,3.1-.83,2.59,2.59,0,0,0,1.11-2.2,2.63,2.63,0,0,0-1.15-2.27,6.18,6.18,0,0,0-6.12,0,2.8,2.8,0,0,0,0,4.47A5,5,0,0,0,301.63,746.9Z" transform="translate(0 -1.45)"/><path class="cls-7" d="M148.37,785.5v-17h1.48l7.76,13.23h-.78l7.68-13.23H166v17h-1.72V771.23h.41l-7.07,12.11h-.85l-7.13-12.11h.46V785.5Z" transform="translate(0 -1.45)"/><path class="cls-7" d="M171.32,775.3a1.21,1.21,0,0,1-.91-.39A1.32,1.32,0,0,1,170,774a1.25,1.25,0,0,1,.37-.94,1.3,1.3,0,0,1,1.82,0,1.25,1.25,0,0,1,.37.94,1.32,1.32,0,0,1-.37.95A1.21,1.21,0,0,1,171.32,775.3Zm0,10.32a1.21,1.21,0,0,1-.91-.39,1.3,1.3,0,0,1-.37-.94,1.28,1.28,0,1,1,2.56,0,1.3,1.3,0,0,1-.37.94A1.21,1.21,0,0,1,171.32,785.62Z" transform="translate(0 -1.45)"/><path class="cls-7" d="M188.26,785.64a6,6,0,0,1-3.49-1,6.82,6.82,0,0,1-2.4-3,12.81,12.81,0,0,1,0-9.28,6.85,6.85,0,0,1,2.4-3,6.41,6.41,0,0,1,7,0,7,7,0,0,1,2.42,3,12.67,12.67,0,0,1,0,9.28,6.93,6.93,0,0,1-2.42,3A6,6,0,0,1,188.26,785.64Zm0-1.6a4.31,4.31,0,0,0,2.61-.81,5.24,5.24,0,0,0,1.75-2.37,12,12,0,0,0,0-7.68,5.21,5.21,0,0,0-1.75-2.38,4.31,4.31,0,0,0-2.61-.81,4.38,4.38,0,0,0-2.6.81,5.18,5.18,0,0,0-1.77,2.38,12,12,0,0,0,0,7.68,5.2,5.2,0,0,0,1.77,2.37A4.38,4.38,0,0,0,188.26,784Z" transform="translate(0 -1.45)"/><path class="cls-7" d="M201.1,777.62a3.54,3.54,0,0,1-2-.57,3.62,3.62,0,0,1-1.34-1.61,6.34,6.34,0,0,1,0-4.84,3.65,3.65,0,0,1,1.34-1.62,3.81,3.81,0,0,1,4,0,3.94,3.94,0,0,1,1.35,1.6,6.39,6.39,0,0,1,0,4.86,3.85,3.85,0,0,1-1.35,1.61A3.57,3.57,0,0,1,201.1,777.62Zm0-1.09a2.27,2.27,0,0,0,1.9-.93,5,5,0,0,0,0-5.16,2.4,2.4,0,0,0-3.81,0,5.1,5.1,0,0,0,0,5.16A2.26,2.26,0,0,0,201.12,776.53Zm-1.31,9,11.58-17h1.43l-11.58,17Zm11.71.12a3.54,3.54,0,0,1-2-.57,3.86,3.86,0,0,1-1.36-1.61,6.37,6.37,0,0,1,0-4.85,3.86,3.86,0,0,1,1.36-1.61,3.81,3.81,0,0,1,4,0,3.73,3.73,0,0,1,1.33,1.61,6.37,6.37,0,0,1,0,4.85,3.73,3.73,0,0,1-1.33,1.61A3.57,3.57,0,0,1,211.52,785.62Zm0-1.09a2.26,2.26,0,0,0,1.9-.94,5,5,0,0,0,0-5.16,2.42,2.42,0,0,0-3.81,0,5,5,0,0,0,0,5.16A2.28,2.28,0,0,0,211.52,784.53Z" transform="translate(0 -1.45)"/><path class="cls-7" d="M258.3,785.64a9.64,9.64,0,0,1-3.57-.64,8.47,8.47,0,0,1-2.84-1.81,8.22,8.22,0,0,1-1.86-2.73,9.17,9.17,0,0,1,0-6.88,8,8,0,0,1,1.88-2.74,8.47,8.47,0,0,1,2.84-1.81,9.7,9.7,0,0,1,3.58-.64,9.91,9.91,0,0,1,3.55.61,7,7,0,0,1,2.75,1.84L263.51,772a6.36,6.36,0,0,0-2.35-1.53,8,8,0,0,0-2.76-.46,7.74,7.74,0,0,0-2.89.52,7.09,7.09,0,0,0-3.83,9.29A6.69,6.69,0,0,0,253.2,782a6.88,6.88,0,0,0,2.31,1.48,7.67,7.67,0,0,0,2.87.52,8.61,8.61,0,0,0,2.75-.43,6.4,6.4,0,0,0,2.38-1.48l1,1.36a8.31,8.31,0,0,1-2.83,1.61A10.76,10.76,0,0,1,258.3,785.64Zm4.51-2.37V777h1.72v6.47Z" transform="translate(0 -1.45)"/><path class="cls-7" d="M269.4,775.3a1.23,1.23,0,0,1-.91-.39,1.32,1.32,0,0,1-.37-.95,1.25,1.25,0,0,1,.37-.94,1.29,1.29,0,0,1,.91-.37,1.28,1.28,0,0,1,1.29,1.31,1.33,1.33,0,0,1-.38.95A1.21,1.21,0,0,1,269.4,775.3Zm0,10.32a1.23,1.23,0,0,1-.91-.39,1.3,1.3,0,0,1-.37-.94,1.26,1.26,0,0,1,.37-.95,1.28,1.28,0,0,1,.91-.36,1.26,1.26,0,0,1,1.29,1.31,1.31,1.31,0,0,1-.38.94A1.21,1.21,0,0,1,269.4,785.62Z" transform="translate(0 -1.45)"/><path class="cls-7" d="M279.26,785.5v-1.24l7.05-6.9a12,12,0,0,0,1.46-1.66,4.59,4.59,0,0,0,.65-1.35,4.68,4.68,0,0,0,.17-1.19,2.84,2.84,0,0,0-1-2.32,4.45,4.45,0,0,0-3-.85,7.06,7.06,0,0,0-2.66.46,5,5,0,0,0-2,1.43l-1.24-1.07A6.57,6.57,0,0,1,281.3,769a9.11,9.11,0,0,1,3.46-.63,7.34,7.34,0,0,1,3,.55,4.17,4.17,0,0,1,2.64,4,5.57,5.57,0,0,1-.23,1.62,5.81,5.81,0,0,1-.82,1.69,13.8,13.8,0,0,1-1.73,2l-6.47,6.34-.49-.67h10.52v1.55Z" transform="translate(0 -1.45)"/><path class="cls-7" d="M298.4,785.64a10.24,10.24,0,0,1-3.47-.59,7.14,7.14,0,0,1-2.63-1.59l.85-1.38a6.24,6.24,0,0,0,2.21,1.41,8.17,8.17,0,0,0,3,.55,5,5,0,0,0,3.24-.92,3.28,3.28,0,0,0,0-4.94,5.37,5.37,0,0,0-3.47-.92H297V776l5.24-6.56.24.68H293v-1.55h10.9v1.23l-5.23,6.57-.85-.56h.66a6.63,6.63,0,0,1,4.56,1.36,4.47,4.47,0,0,1,1.52,3.49,4.9,4.9,0,0,1-.68,2.56,4.66,4.66,0,0,1-2.05,1.8A8,8,0,0,1,298.4,785.64Z" transform="translate(0 -1.45)"/><path class="cls-7" d="M312.36,785.64a10.32,10.32,0,0,1-3.47-.59,6.89,6.89,0,0,1-2.61-1.59l.85-1.38a6.05,6.05,0,0,0,2.19,1.41,8.07,8.07,0,0,0,3,.55,5,5,0,0,0,3.28-.95,3.14,3.14,0,0,0,1.12-2.51,3,3,0,0,0-2.27-3.1,10.59,10.59,0,0,0-3.39-.44h-3.61l.87-8.5h9.28v1.55H309l.9-.85-.75,7.12-.9-.87h3.17a11.11,11.11,0,0,1,4.12.63,4.42,4.42,0,0,1,2.24,1.76,4.91,4.91,0,0,1,.69,2.63,5.11,5.11,0,0,1-.67,2.6,4.78,4.78,0,0,1-2,1.85A7.58,7.58,0,0,1,312.36,785.64Z" transform="translate(0 -1.45)"/><path class="cls-7" d="M152.42,814.57v-6.3l.41,1.12-7.19-11.78h1.91L153.87,808h-1l6.32-10.35H161l-7.19,11.78.41-1.12v6.3Z" transform="translate(0 -1.45)"/><path class="cls-7" d="M163.57,804.37a1.21,1.21,0,0,1-.91-.39,1.37,1.37,0,0,1,0-1.89,1.32,1.32,0,0,1,1.81,0,1.37,1.37,0,0,1,0,1.89A1.2,1.2,0,0,1,163.57,804.37Zm0,10.32a1.24,1.24,0,0,1-.91-.38,1.33,1.33,0,0,1-.38-.95,1.24,1.24,0,0,1,.38-.94,1.29,1.29,0,0,1,1.81,0,1.21,1.21,0,0,1,.38.94,1.29,1.29,0,0,1-.38.95A1.23,1.23,0,0,1,163.57,814.69Z" transform="translate(0 -1.45)"/><path class="cls-7" d="M179.1,814.72a10.09,10.09,0,0,1-3.47-.6,6.68,6.68,0,0,1-2.61-1.58l.84-1.38a6.18,6.18,0,0,0,2.2,1.4,8,8,0,0,0,3,.56,5,5,0,0,0,3.29-1,3.13,3.13,0,0,0,1.12-2.51,3.28,3.28,0,0,0-.52-1.87,3.32,3.32,0,0,0-1.76-1.23,10.54,10.54,0,0,0-3.39-.43H174.2l.87-8.51h9.28v1.55h-8.57l.89-.85-.75,7.13-.89-.87h3.17a11.14,11.14,0,0,1,4.12.63,4.51,4.51,0,0,1,2.24,1.75,4.94,4.94,0,0,1,.69,2.63,5.18,5.18,0,0,1-.68,2.61,4.7,4.7,0,0,1-2,1.85A7.72,7.72,0,0,1,179.1,814.72Z" transform="translate(0 -1.45)"/><path class="cls-7" d="M193.9,814.72a9.68,9.68,0,0,1-3.5-.58,4.84,4.84,0,0,1-2.25-1.69,4.31,4.31,0,0,1-.79-2.6,4.07,4.07,0,0,1,.76-2.49,4.83,4.83,0,0,1,2.23-1.58,11.5,11.5,0,0,1,7.09,0,5,5,0,0,1,2.26,1.58,4,4,0,0,1,.79,2.49,4.25,4.25,0,0,1-.8,2.6,5,5,0,0,1-2.27,1.69A9.79,9.79,0,0,1,193.9,814.72Zm0-8.51a8.93,8.93,0,0,1-3.21-.51,4.37,4.37,0,0,1-2-1.46A3.75,3.75,0,0,1,188,802a4,4,0,0,1,.73-2.41,4.65,4.65,0,0,1,2.08-1.54,8.25,8.25,0,0,1,3.12-.53A8.4,8.4,0,0,1,197,798a4.71,4.71,0,0,1,2.1,1.54,3.91,3.91,0,0,1,.75,2.41,3.76,3.76,0,0,1-.71,2.29,4.33,4.33,0,0,1-2,1.46A9.18,9.18,0,0,1,193.9,806.21Zm0,7a6,6,0,0,0,3.53-.92,2.92,2.92,0,0,0,1.27-2.5,2.88,2.88,0,0,0-1.27-2.48,6,6,0,0,0-3.53-.91,5.88,5.88,0,0,0-3.51.91,2.9,2.9,0,0,0-1.26,2.48,2.93,2.93,0,0,0,1.26,2.5A5.88,5.88,0,0,0,193.9,813.24Zm0-8.19a5.1,5.1,0,0,0,3.1-.82,2.77,2.77,0,0,0,0-4.47,5.17,5.17,0,0,0-3.07-.82,5.1,5.1,0,0,0-3.05.82,2.59,2.59,0,0,0-1.14,2.24,2.66,2.66,0,0,0,1.1,2.23A5.09,5.09,0,0,0,193.9,805.05Z" transform="translate(0 -1.45)"/><path class="cls-7" d="M206.48,806.7a3.54,3.54,0,0,1-2-.57,3.77,3.77,0,0,1-1.35-1.61,6.49,6.49,0,0,1,0-4.85,3.77,3.77,0,0,1,1.35-1.61,3.81,3.81,0,0,1,4,0,3.79,3.79,0,0,1,1.34,1.6,5.58,5.58,0,0,1,.49,2.43,5.64,5.64,0,0,1-.49,2.43,3.82,3.82,0,0,1-1.34,1.61A3.57,3.57,0,0,1,206.48,806.7Zm0-1.09a2.25,2.25,0,0,0,1.9-.94,5,5,0,0,0,0-5.16,2.42,2.42,0,0,0-3.81,0,5,5,0,0,0,0,5.16A2.25,2.25,0,0,0,206.5,805.61Zm-1.31,9,11.58-17h1.43l-11.58,17Zm11.7.12a3.53,3.53,0,0,1-2-.57,3.73,3.73,0,0,1-1.36-1.61,6.34,6.34,0,0,1,0-4.84,3.73,3.73,0,0,1,1.36-1.61,3.53,3.53,0,0,1,2-.57,3.58,3.58,0,0,1,2,.57,3.67,3.67,0,0,1,1.33,1.61,6.47,6.47,0,0,1,0,4.84,3.67,3.67,0,0,1-1.33,1.61A3.58,3.58,0,0,1,216.89,814.69Zm0-1.09a2.29,2.29,0,0,0,1.91-.93,5,5,0,0,0,0-5.16,2.42,2.42,0,0,0-3.81,0,5,5,0,0,0,0,5.16A2.28,2.28,0,0,0,216.89,813.6Z" transform="translate(0 -1.45)"/><path class="cls-7" d="M237.2,814.57v-17h7.32a7.33,7.33,0,0,1,4.39,1.14,3.73,3.73,0,0,1,1.57,3.22,4.12,4.12,0,0,1-.64,2.33,4,4,0,0,1-1.75,1.43,6,6,0,0,1-2.41.48l.41-.58a7.19,7.19,0,0,1,2.8.5,4,4,0,0,1,1.83,1.48,4.24,4.24,0,0,1,.65,2.43,3.94,3.94,0,0,1-1.58,3.34,7.92,7.92,0,0,1-4.79,1.19Zm1.79-1.48h6a6.31,6.31,0,0,0,3.41-.76,3.07,3.07,0,0,0,0-4.85,6.41,6.41,0,0,0-3.41-.76H238.8v-1.48h5.6a5.51,5.51,0,0,0,3.16-.77,2.94,2.94,0,0,0,0-4.62,5.59,5.59,0,0,0-3.16-.76H239Z" transform="translate(0 -1.45)"/><path class="cls-7" d="M255.27,804.37a1.2,1.2,0,0,1-.9-.39,1.37,1.37,0,0,1,0-1.89,1.32,1.32,0,0,1,1.81,0,1.37,1.37,0,0,1,0,1.89A1.21,1.21,0,0,1,255.27,804.37Zm0,10.32a1.23,1.23,0,0,1-.9-.38,1.33,1.33,0,0,1-.38-.95,1.24,1.24,0,0,1,.38-.94,1.29,1.29,0,0,1,1.81,0,1.24,1.24,0,0,1,.38.94,1.33,1.33,0,0,1-.38.95A1.24,1.24,0,0,1,255.27,814.69Z" transform="translate(0 -1.45)"/><path class="cls-7" d="M268.41,814.57V798.34l.77.82h-4.77v-1.55h5.74v17Z" transform="translate(0 -1.45)"/><path class="cls-7" d="M279.26,814.72a10.06,10.06,0,0,1-3.48-.6,7,7,0,0,1-2.62-1.58l.84-1.38a6.36,6.36,0,0,0,2.22,1.4,8.14,8.14,0,0,0,3,.56,5,5,0,0,0,3.24-.92,3.31,3.31,0,0,0,0-5,5.39,5.39,0,0,0-3.48-.92h-1.21v-1.28l5.24-6.57.24.68h-9.45v-1.55h10.9v1.24l-5.23,6.56-.85-.55h.65a6.69,6.69,0,0,1,4.57,1.35,4.49,4.49,0,0,1,1.52,3.49,4.93,4.93,0,0,1-.68,2.57,4.58,4.58,0,0,1-2.05,1.79A7.85,7.85,0,0,1,279.26,814.72Z" transform="translate(0 -1.45)"/><path class="cls-7" d="M293.22,814.72a10.09,10.09,0,0,1-3.47-.6,6.68,6.68,0,0,1-2.61-1.58l.84-1.38a6.18,6.18,0,0,0,2.2,1.4,8.06,8.06,0,0,0,3,.56,5,5,0,0,0,3.29-1,3.13,3.13,0,0,0,1.12-2.51,3,3,0,0,0-2.27-3.1,10.63,10.63,0,0,0-3.39-.43h-3.62l.88-8.51h9.28v1.55H289.9l.9-.85-.76,7.13-.89-.87h3.17a11.14,11.14,0,0,1,4.12.63,4.46,4.46,0,0,1,2.24,1.75,4.94,4.94,0,0,1,.69,2.63,5.09,5.09,0,0,1-.68,2.61,4.7,4.7,0,0,1-2,1.85A7.72,7.72,0,0,1,293.22,814.72Z" transform="translate(0 -1.45)"/><path class="cls-7" d="M148.37,843.65v-17h1.8v17Zm1.55-4.22-.07-2.18,10.28-10.56h2.06l-7.49,7.85-1,1.09Zm10.64,4.22-7.32-8.43,1.22-1.31,8.23,9.74Z" transform="translate(0 -1.45)"/><path class="cls-7" d="M165.41,833.45a1.21,1.21,0,0,1-.91-.39,1.31,1.31,0,0,1-.38-.95,1.26,1.26,0,0,1,1.29-1.3,1.28,1.28,0,0,1,.91.36,1.25,1.25,0,0,1,.37.94,1.3,1.3,0,0,1-.37.95A1.23,1.23,0,0,1,165.41,833.45Zm0,10.32a1.21,1.21,0,0,1-.91-.39,1.31,1.31,0,0,1-.38-.94,1.29,1.29,0,1,1,2.57,0,1.3,1.3,0,0,1-.37.94A1.23,1.23,0,0,1,165.41,843.77Z" transform="translate(0 -1.45)"/><path class="cls-7" d="M182.34,843.79a6.09,6.09,0,0,1-3.49-1,6.87,6.87,0,0,1-2.39-3,12.67,12.67,0,0,1,0-9.28,6.9,6.9,0,0,1,2.39-3,6.43,6.43,0,0,1,7,0,6.94,6.94,0,0,1,2.41,3,12.54,12.54,0,0,1,0,9.28,6.91,6.91,0,0,1-2.41,3A6.07,6.07,0,0,1,182.34,843.79Zm0-1.6a4.32,4.32,0,0,0,2.62-.81,5.38,5.38,0,0,0,1.75-2.37,12,12,0,0,0,0-7.68A5.41,5.41,0,0,0,185,829a4.59,4.59,0,0,0-5.21,0,5.23,5.23,0,0,0-1.77,2.38,12,12,0,0,0,0,7.68,5.2,5.2,0,0,0,1.77,2.37A4.35,4.35,0,0,0,182.34,842.19Z" transform="translate(0 -1.45)"/><path class="cls-7" d="M195.19,835.77a3.54,3.54,0,0,1-2-.57,3.71,3.71,0,0,1-1.35-1.61,6.47,6.47,0,0,1,0-4.84,3.71,3.71,0,0,1,1.35-1.61,3.81,3.81,0,0,1,4,0,3.82,3.82,0,0,1,1.34,1.59,6.27,6.27,0,0,1,0,4.86,3.76,3.76,0,0,1-1.34,1.61A3.57,3.57,0,0,1,195.19,835.77Zm0-1.09a2.27,2.27,0,0,0,1.9-.93,5,5,0,0,0,0-5.16,2.42,2.42,0,0,0-3.81,0,5,5,0,0,0,0,5.16A2.25,2.25,0,0,0,195.21,834.68Zm-1.31,9,11.58-17h1.43l-11.58,17Zm11.7.12a3.53,3.53,0,0,1-2-.57,3.79,3.79,0,0,1-1.36-1.61,6.37,6.37,0,0,1,0-4.85,3.79,3.79,0,0,1,1.36-1.61,3.53,3.53,0,0,1,2-.57,3.6,3.6,0,0,1,2,.57,3.8,3.8,0,0,1,1.33,1.61,6.49,6.49,0,0,1,0,4.85,3.8,3.8,0,0,1-1.33,1.61A3.6,3.6,0,0,1,205.6,843.77Zm0-1.09a2.29,2.29,0,0,0,1.91-.93,5,5,0,0,0,0-5.16,2.4,2.4,0,0,0-3.81,0,5,5,0,0,0,0,5.16A2.28,2.28,0,0,0,205.6,842.68Z" transform="translate(0 -1.45)"/></g></g></svg>