<svg xmlns="http://www.w3.org/2000/svg" viewBox="0 0 1708.39 384.69"><defs><style>.cls-1{fill:#e69f7f;}.cls-12,.cls-13,.cls-2,.cls-24,.cls-26,.cls-28,.cls-29,.cls-30,.cls-33,.cls-34,.cls-35,.cls-36,.cls-5,.cls-8{fill:none;}.cls-13,.cls-2,.cls-28,.cls-33{stroke:#b2775f;}.cls-12,.cls-13,.cls-2,.cls-24,.cls-25,.cls-26,.cls-27,.cls-28,.cls-29,.cls-30,.cls-32,.cls-33,.cls-34,.cls-35,.cls-36,.cls-5,.cls-8{stroke-miterlimit:10;}.cls-12,.cls-2{stroke-width:0.47px;}.cls-3{fill:#c2476e;opacity:0.4;}.cls-27,.cls-32,.cls-4{fill:#699eaa;}.cls-12,.cls-26,.cls-5{stroke:#699eaa;}.cls-13,.cls-27,.cls-5{stroke-width:0.93px;}.cls-6{fill:#a51a1a;}.cls-7{fill:#b5ddda;}.cls-29,.cls-34,.cls-8{stroke:#000;}.cls-8{stroke-width:0.23px;}.cls-9{fill:#321c13;}.cls-10{fill:#fff;}.cls-11,.cls-31{fill:#b2775f;}.cls-14{fill:#efeaea;}.cls-15{fill:#af1918;}.cls-16{fill:#211918;}.cls-17{fill:#324d64;}.cls-18{fill:#f0e5c5;}.cls-19,.cls-25{fill:#66351a;}.cls-20{fill:#472515;}.cls-21{fill:#75452d;}.cls-22{fill:#253b4c;}.cls-23{fill:#e0dcdc;}.cls-24,.cls-25,.cls-30,.cls-36{stroke:#432314;}.cls-24{stroke-width:0.44px;}.cls-25{stroke-width:0.47px;}.cls-26{stroke-width:0.93px;}.cls-27,.cls-32{stroke:#5e9aa0;}.cls-28{stroke-width:0.48px;}.cls-29{stroke-width:0.2px;}.cls-30{stroke-width:0.46px;}.cls-31{opacity:0.64;}.cls-32{stroke-width:0.98px;}.cls-33{stroke-width:0.4px;}.cls-34{stroke-width:0.16px;}.cls-35{stroke:#253b4c;stroke-width:1.13px;}.cls-36{stroke-width:0.45px;}</style></defs><g id="Capa_2" data-name="Capa 2"><g id="ficha_pg3_VISTAS" data-name="ficha pg3 VISTAS"><g id="FROTAL"><g id="cara"><g id="cara-2" data-name="cara"><path class="cls-1" d="M8.71,66.86S.64,65.69,0,74.26c0,0-.79,7,12.91,9.14,0,0,6.48,16.36,17.79,22.95,0,0,14.32,12.87,40.06,11.86,0,0,30.64,2,54.31-34.81,0,0,11.85.06,11.67-10.5,0,0-.57-6.65-8.51-6,0,0-6.85-46.31-44.86-50.81-1.93-.23-3.89-.06-5.84-.24C68.68,15,39.74,14.73,18.2,42.62c-.46.58-.9,1.18-1.37,1.75C15.7,45.74,11.53,51.61,8.71,66.86Z"/></g><path class="cls-2" d="M127.82,74.12a7.09,7.09,0,0,1,6-1.53"/><path class="cls-2" d="M130.33,77.82s1.91-1,2.25-5.23"/><path class="cls-2" d="M6.33,77s-2.22-1.28-1.6-5.22"/><path class="cls-2" d="M2.9,71.6s3.92-.12,5.62,2.08"/><circle class="cls-3" cx="35.06" cy="77.78" r="10.93"/><circle class="cls-3" cx="103.43" cy="76.45" r="10.93"/></g><path class="cls-4" d="M3.1,24.74S-6.23,43.68,14,43.81c0,0-9.47,21.75-3.48,45.38,0,0,8,23.77,19.38,34.27,0,0-19.53-29.53-13.9-49,0,0,3.73-16.38,17.65-21.84,0,0,22.87-3.81,27.68-21.41,0,0,3.86-9.63-9.63-13.8a20.56,20.56,0,0,0-17,2.17S31.45-.52,13.58,5a16,16,0,0,0-9.74,8C2,16.61,1.17,21.71,5.08,27.49"/><path class="cls-4" d="M121.28,9.87s10.29-3.44,15.54,1.89c0,0,10.82,8.09,2.24,22.93,0,0-2.27,5.73-15.91,5,0,0,12,27.81-1.87,56.24,0,0-8.88,20.28-16.24,27.29,0,0,18.08-29.89,15.17-51.08a23.91,23.91,0,0,0-9.53-16.33c-.51-.36-1-.73-1.49-1.12-2.41-2-11.52-9.13-19.18-9.17,0,0-14.87.26-28.73-14.4,0,0,4.22-9-9.63-13.8,0,0,8.58-7.77,23.89-7.92a45,45,0,0,1,27.56,8.32s4.35-13,11.84-13.72c0,0,8.25-2.86,11.89,4.85"/><path class="cls-5" d="M56.09,48s4.24-3.75,5-16.73c0,0-.34,13,6.34,19.29"/><g id="moñas"><path class="cls-6" d="M14,43.81s4.49-12.43,20.66-24.28c0,0-.64-2.57-.74-2.94S18,22.47,10,43.5Z"/><path class="cls-6" d="M103.1,17.76s14.91,10.47,20.05,22l3.3,0s-3.09-14.11-22-25.22Z"/></g><g id="aretes"><circle class="cls-7" cx="6.9" cy="84.08" r="3.1"/><circle class="cls-7" cx="127.87" cy="84.28" r="3.1"/><circle class="cls-7" cx="132.4" cy="81.65" r="2.06"/><path class="cls-8" d="M2.65,68.45S.28,67.51.32,69.55c0,0,0,2.13,2.58,1.11"/></g><g id="ojos_nariz_boca" data-name="ojos,nariz, boca"><ellipse class="cls-9" cx="61.79" cy="66.52" rx="1.95" ry="2.8"/><ellipse class="cls-9" cx="75.83" cy="66.28" rx="1.95" ry="2.8"/><circle class="cls-10" cx="75.83" cy="65.15" r="0.84"/><circle class="cls-10" cx="61.93" cy="65.15" r="0.84"/><ellipse class="cls-11" cx="69.1" cy="70.66" rx="4.86" ry="1.85"/></g><g id="cejas"><path class="cls-4" d="M47.6,63.18l16.07-5.79c-.09,0-1.32-3.32-6.57-1.69C56.79,55.55,51.29,58.1,47.6,63.18Z"/><path class="cls-12" d="M62.7,54a2.86,2.86,0,0,1,.48,3.32"/><path class="cls-4" d="M90.59,60.89,74.16,57.27c.08-.06.87-3.42,6.21-2.49C80.64,54.59,86.34,56.38,90.59,60.89Z"/><path class="cls-12" d="M74.43,53.75a2.88,2.88,0,0,0-.05,3.36"/></g><g id="boca"><path class="cls-13" d="M60.7,88.51s23.71,6.62,37.42-14.29"/><path class="cls-13" d="M93.59,73.14s7.56-.54,7,5.46"/></g><path id="cuello" class="cls-1" d="M81.6,139.8c-3.57-5.12-3.32-23.11-3.32-23.11-.72.32-8.45.6-8.45.6v.11a41,41,0,0,1-7.81-.71s.46,18.05-3.11,23.17C66.34,144.08,73.9,144.11,81.6,139.8Z"/><g id="bicep_der." data-name="bicep der."><circle class="cls-14" cx="35.89" cy="151.01" r="12.26"/><polygon class="cls-1" points="24.18 146.69 10 204.39 23.34 204.38 41.19 148.92 24.18 146.69"/><g id="manga"><path class="cls-14" d="M44.75,142.93a9.86,9.86,0,0,0-6.1-4.2c-4.73-.7-7.22,0-9.75,1.41-2.83,1.57-5.47,3.48-6.9,6.39L11.34,168.22l24,2.71,3.32-14C44.87,154.38,47,146.79,44.75,142.93Z"/><path class="cls-15" d="M12.13,168.2l-1.92-.34a.65.65,0,0,0-.75.55l-.36,2.14a.67.67,0,0,0,.52.78,240.24,240.24,0,0,0,25.43,3.12.66.66,0,0,0,.7-.57l.33-2.26a.69.69,0,0,0-.57-.78l-23.34-2.63Z"/></g></g><g id="antebrazo_der." data-name="antebrazo der."><path id="antebrazo" class="cls-1" d="M10.24,204.2l13.32.4s2,26.7-4.79,40.22l-11.38-.3S5.8,213.9,10.24,204.2Z"/><circle class="cls-1" cx="16.68" cy="205.58" r="6.67"/></g><g id="mano_der." data-name="mano der."><circle class="cls-16" cx="13.28" cy="247.11" r="6.07"/><polygon class="cls-1" points="7.23 247.66 5.97 258.44 8.44 273.4 18.64 281.43 19.57 279.14 16.89 262.12 22.64 272.12 22.23 252.39 19.32 246.56 7.23 247.66"/><polygon class="cls-16" points="7.39 244.52 19.02 244.3 22.23 252.39 22.44 262.6 18.56 265.03 16.89 262.12 18.38 271.55 12.57 276.65 8.44 273.4 5.97 258.44 7.39 244.52"/></g><g id="bicep_izq." data-name="bicep izq."><circle class="cls-14" cx="106.8" cy="150.89" r="12.26"/><polygon class="cls-1" points="118.57 146.75 131.9 204.65 118.57 204.44 101.53 148.73 118.57 146.75"/><g id="manga-2" data-name="manga"><path class="cls-14" d="M98.06,142.69a9.87,9.87,0,0,1,6.16-4.11c4.74-.63,7.22.12,9.73,1.56,2.81,1.61,5.42,3.55,6.81,6.48l10.34,21.84-24,2.36L104,156.73C97.77,154.13,95.71,146.51,98.06,142.69Z"/><path class="cls-15" d="M130.3,168.44l1.93-.32a.65.65,0,0,1,.74.56l.33,2.15a.67.67,0,0,1-.53.77,237.87,237.87,0,0,1-25.47,2.75.66.66,0,0,1-.69-.58l-.3-2.27a.66.66,0,0,1,.58-.76l23.37-2.3Z"/></g></g><g id="antebrazo_izq." data-name="antebrazo izq."><path id="antebrazo-2" data-name="antebrazo" class="cls-1" d="M131.66,204.4l-13.33.32s-2.13,26.69,4.53,40.25l11.39-.23S136,214.14,131.66,204.4Z"/><circle class="cls-1" cx="125.21" cy="205.74" r="6.67"/></g><g id="mano_izq." data-name="mano izq."><circle class="cls-16" cx="128.42" cy="247.35" r="6.07"/><polygon class="cls-1" points="134.47 247.83 135.85 258.6 133.54 273.58 123.43 281.72 122.47 279.44 124.97 262.39 119.33 272.45 119.52 252.72 122.37 246.86 134.47 247.83"/><polygon class="cls-16" points="134.28 244.69 122.64 244.6 119.52 252.72 119.42 262.93 123.33 265.32 124.97 262.39 123.58 271.84 129.45 276.88 133.54 273.58 135.85 258.6 134.28 244.69"/></g><g id="pantorrilla_der." data-name="pantorrilla der."><ellipse class="cls-17" cx="50.19" cy="309.62" rx="14.03" ry="14.45"/><path class="cls-17" d="M36.43,306.77l27.71.33c1.52,20.18,0,35.86-3.45,45.79L36.74,353A118.79,118.79,0,0,1,36.43,306.77Z"/></g><g id="pie_der." data-name="pie der."><path class="cls-1" d="M64.67,380.77c1.1-22.85-19-22.65-19-22.65C28.27,357.94,26,380.46,26,380.46Z"/><circle class="cls-17" cx="48.7" cy="353.48" r="11.98"/><path class="cls-18" d="M36.72,353.38a8.18,8.18,0,0,0,.67,4.05l22.51.33a8.8,8.8,0,0,0,.79-4.19Z"/><path class="cls-19" d="M37.39,357.43l-1.7,0,1.37,2.89s-9,4.14-11.1,20.16l39.71.36s.9-13.2-8-19.54l2.6-3.51Z"/><polygon class="cls-20" points="26.53 377.3 65.61 377.65 65.67 380.82 25.96 380.46 26.53 377.3"/><path class="cls-21" d="M26.53,377.3s8.79-9.72,19.45-8.15c0,0,13,.41,19.63,8.5Z"/></g><g id="muslo_der." data-name="muslo der."><path id="muslo" class="cls-17" d="M35.39,233c-1.75,12.49-6.63,54.52,2.54,80.12l22,.42S71.49,267,69.79,255.7C67.73,242,38.1,229,38.32,232.09h0A1.68,1.68,0,0,0,35.39,233Z"/><ellipse class="cls-17" cx="52.88" cy="245.16" rx="19.28" ry="19.87"/><path class="cls-17" d="M33.6,245.59l36.53,1.64c1,0-1.24,53.12-7,66.2L36,313.2S27.8,282.89,33.6,245.59Z"/><path class="cls-22" d="M35.39,233l10.37,18.24-1.33,28.8-11.67,10.4S29.92,258.88,35.39,233Z"/></g><g id="pantorrilla_izq." data-name="pantorrilla izq."><ellipse class="cls-17" cx="96.44" cy="309.38" rx="14.03" ry="14.45"/><path class="cls-17" d="M110.2,306.53l-27.71.33c-1.53,20.18,0,35.86,3.45,45.79l24,.13A119,119,0,0,0,110.2,306.53Z"/></g><g id="pie_izq." data-name="pie izq."><path class="cls-1" d="M82,380.53c-1.11-22.85,19-22.65,19-22.65,17.38-.18,19.69,22.34,19.69,22.34Z"/><circle class="cls-17" cx="97.92" cy="353.24" r="11.98"/><path class="cls-18" d="M109.9,353.14a8.29,8.29,0,0,1-.66,4.05l-22.51.33a8.71,8.71,0,0,1-.79-4.19Z"/><path class="cls-19" d="M109.24,357.19l1.7,0-1.37,2.9s9,4.14,11.1,20.16L81,380.58s-.91-13.2,8-19.54l-2.6-3.51Z"/><polygon class="cls-20" points="120.09 377.06 81.02 377.41 80.96 380.58 120.67 380.22 120.09 377.06"/><path class="cls-21" d="M120.09,377.06s-8.78-9.72-19.45-8.15c0,0-12.94.41-19.62,8.5Z"/></g><g id="muslo_izq." data-name="muslo izq."><path id="muslo-2" data-name="muslo" class="cls-17" d="M111.23,232.78c1.75,12.49,6.64,54.52-2.53,80.12l-22,.42s-11.6-46.56-9.9-57.86c2.06-13.68,31.69-26.67,31.47-23.62h0A1.68,1.68,0,0,1,111.23,232.78Z"/><ellipse class="cls-17" cx="93.74" cy="244.92" rx="19.28" ry="19.87"/><path class="cls-17" d="M113,245.35,76.5,247c-1,0,1.23,53.12,7,66.2l27.1-.23S118.82,282.65,113,245.35Z"/><path class="cls-22" d="M111.23,232.78,100.86,251l1.34,28.8,11.67,10.4S116.71,258.64,111.23,232.78Z"/></g><g id="torzo_con_ropa" data-name="torzo con ropa"><path id="torzo" class="cls-1" d="M104.34,138.53h-68s4.06,86.07-2.28,102.66c0,0,25.17-3.55,27.5,11.21H87s5.54-9,24.72-14.13C111.76,239,100.71,175,104.34,138.53Z"/><path class="cls-14" d="M53,133.86l-16.68,4.67c1.14,25.68,1.69,56,.62,84L84,225.29l14.57-.6L110,223.07c-3.43-24.6-6.37-57.35-5.69-84.54L88,133.22"/><path class="cls-15" d="M61.75,130.22s7.18,4.11,17.12-.36L88,133.22c-19.66,18.54-35,.64-35,.64S58.91,132,61.75,130.22Z"/><path class="cls-17" d="M33.66,241.64s24.46-4.1,27.91,10.76h0c7.8,1,16.41.77,25.4,0h0c.29.1,10.34-10.09,25.09-14l-1.84-12.38-73.89,4.11C35.24,234.64,33.66,241.64,33.66,241.64Z"/><polygon class="cls-15" points="76.25 151.26 76.25 154.59 90.61 154.41 90.61 151.26 76.25 151.26"/><polygon class="cls-23" points="76.25 154.59 76.25 158.82 84.04 162.82 90.61 158.72 90.61 154.41 76.25 154.59"/><polygon class="cls-22" points="71.02 230.76 71.99 253.06 74.65 253.06 74.08 230.68 71.02 230.76"/><g id="CINTURON_FINAL" data-name="CINTURON FINAL"><g id="CINTURON"><path class="cls-19" d="M110,223.07,37,222.57A51.14,51.14,0,0,0,35.62,232l75,.29C110.89,228.78,110,225.7,110,223.07Z"/><line class="cls-24" x1="51.43" y1="222.86" x2="51.43" y2="231.84"/><line class="cls-24" x1="53.68" y1="222.86" x2="53.68" y2="231.84"/><line class="cls-24" x1="72.44" y1="223.04" x2="72.44" y2="231.91"/><line class="cls-24" x1="74.96" y1="223.04" x2="74.96" y2="231.91"/><line class="cls-24" x1="95.22" y1="223.19" x2="95.22" y2="231.91"/><line class="cls-24" x1="97.52" y1="223.2" x2="97.52" y2="232.01"/></g><rect class="cls-25" x="79.69" y="218.09" width="11.9" height="6.99"/><rect class="cls-25" x="81.4" y="225.08" width="8.78" height="9.45"/></g></g></g><g id="_3_4_DER" data-name="3/4 DER"><g id="cara-3" data-name="cara"><g id="cara-4" data-name="cara"><path class="cls-4" d="M213.53,43.65S208,54.77,208.56,67c0,0-2.17,27.08,18.14,37.14L215.81,43.76Z"/><path class="cls-1" d="M328.57,62.84c-1.75-8.64-9.29-43.49-42.76-47.45-1.93-.23-3.9-.06-5.84-.25-8.86-.84-37.8-1.16-59.34,26.74-.46.58-.9,1.18-1.37,1.75-1.13,1.36,1.72,6.59-1.1,21.84,0,0-7.67-.54-10.09,4.15a5.79,5.79,0,0,0-.59,2.84c.06,2-.77,8.6,10.68,9.38,0,0,3.67,17.18,15,23.77,0,0,14.32,12.86,40.06,11.86,3.66-.67,39.36.38,54.31-34.81,0,0-1.29-.13-.8-.17.86-4.9.82-7.16,1.57-15.08C328.15,66.45,328.55,63.79,328.57,62.84Z"/></g><path class="cls-2" d="M214.44,76.57s-2.22-1.29-1.6-5.22"/><path class="cls-2" d="M211,71.2s3.92-.12,5.62,2.07"/><circle class="cls-3" cx="257.07" cy="78.08" r="10.93"/><circle class="cls-3" cx="317.63" cy="78.03" r="10.93"/></g><path class="cls-4" d="M205.29,23.06s-10,20.57,10.52,20.7c.39-.17-.2,5.47-.35,14.18A96.15,96.15,0,0,0,237,120.63c1.95,2.37,2.06,1.84,4.44,3.43,0,0-14.3-27.07-8.58-46.89,0,0,6.41-17.59,18.22-24.93a23.16,23.16,0,0,0,9.09-10.46,89.42,89.42,0,0,0,4.15-12.21s3.92-9.77-9.77-14c0,0-5.87-4.15-14.89,1.29,0,0-5.67-19.6-24-13.76a16.15,16.15,0,0,0-9.8,8.32c-1.75,3.69-2.45,8.73,1.41,14.43"/><path class="cls-4" d="M338.16,11.68c-2.68-2.72-6.69-3.14-10-2.9C324.56,1.17,316.39,4,316.39,4c-7.45.73-11.79,13.66-11.79,13.66a44.74,44.74,0,0,0-27.43-8.28c-15.24.15-23.78,7.88-23.78,7.88C267.18,22,263,31,263,31c13.79,14.59,32.18,13.08,32.18,13.08,7.63,0,13.5,6.65,15.9,8.64.48.4,1,1.12,1.46,1.48C321.32,60.56,322.64,73,322.64,73c2.9,21.09-14.39,51.1-14.39,51.1,7.33-7,14.44-28.55,14.44-28.55a72.65,72.65,0,0,0,4.51-12.6c.8-4.63,1.48-8.2,2-12.78v-.59a5.65,5.65,0,0,1,.12-1.12c0-.41,0-.81,0-1.21a20.19,20.19,0,0,1-.1-2.79,6.41,6.41,0,0,1,.08-.65,72.78,72.78,0,0,0-4.74-24.24c13.58.68,15.84-5,15.84-5C348.94,19.74,338.16,11.68,338.16,11.68Z"/><path class="cls-26" d="M262.21,47.77s3.41-4.49,1.63-17.32c0,0,2.19,12.75,9.94,17.61"/><path class="cls-6" d="M219.76,44.07s4.49-12.43,20.66-24.27c0,0-.64-2.57-.74-2.95s-15.9,5.88-23.87,26.91Z"/><path class="cls-6" d="M304.37,17.81s15.2,10.49,20.33,22l3.3,0s-3.37-14.13-22.31-25.25Z"/><circle class="cls-7" cx="216.92" cy="81.99" r="3.1"/><path class="cls-8" d="M208.24,69.43s-2.37-.94-2.33,1.11c0,0,0,2.12,2.58,1.11"/><g id="ojos_nariz_boca-2" data-name="ojos,nariz, boca"><ellipse class="cls-9" cx="282.63" cy="67.36" rx="1.95" ry="2.8"/><ellipse class="cls-9" cx="296.67" cy="67.12" rx="1.95" ry="2.8"/><circle class="cls-10" cx="296.67" cy="66" r="0.84"/><circle class="cls-10" cx="282.77" cy="66" r="0.84"/><ellipse class="cls-11" cx="289.94" cy="71.51" rx="4.86" ry="1.85"/></g><g id="cejas-2" data-name="cejas"><path class="cls-4" d="M268.44,64l16.07-5.79c-.09-.05-1.32-3.33-6.57-1.7C277.64,56.39,272.13,58.94,268.44,64Z"/><path class="cls-12" d="M283.54,54.84a2.87,2.87,0,0,1,.48,3.33"/><path class="cls-4" d="M311.43,61.73,295,58.11c.08-.06.87-3.41,6.21-2.49C301.49,55.44,307.19,57.23,311.43,61.73Z"/><path class="cls-12" d="M295.28,54.6a2.86,2.86,0,0,0-.06,3.35"/></g><g id="boca-2" data-name="boca"><path class="cls-13" d="M278.66,88.88s23.71,6.62,37.41-14.29"/><path class="cls-13" d="M311.54,73.51s7.57-.54,7,5.46"/></g><path id="cuello-2" data-name="cuello" class="cls-1" d="M282.24,140.06c-3.57-5.12-3.32-23.11-3.32-23.11-.72.32-8.45.6-8.45.6v.1a40.34,40.34,0,0,1-7.81-.7s.46,18-3.11,23.16C267,144.34,274.54,144.37,282.24,140.06Z"/><g id="bicep_izq.-2" data-name="bicep izq."><circle class="cls-14" cx="304.64" cy="152.28" r="12.26"/><polygon class="cls-1" points="316.94 150.21 320.16 209.54 307.06 207.06 299.82 149.25 316.94 150.21"/><g id="manga-3" data-name="manga"><path class="cls-14" d="M297.43,142.7a9.8,9.8,0,0,1,6.77-3c4.78.19,7.09,1.35,9.32,3.19,2.49,2.07,4.73,4.43,5.6,7.56l6.44,23.29L301.51,172l-.65-14.41C295.19,153.93,294.46,146.06,297.43,142.7Z"/><path class="cls-15" d="M324.79,173.59l1.95,0a.64.64,0,0,1,.63.68l0,2.17a.67.67,0,0,1-.66.67,245.58,245.58,0,0,1-25.56-1.65.66.66,0,0,1-.58-.69l.09-2.29a.68.68,0,0,1,.71-.66l23.42,1.75Z"/></g></g><g id="antebrazo_izq.-2" data-name="antebrazo izq."><path id="antebrazo-3" data-name="antebrazo" class="cls-1" d="M319.89,208.45l-13.33-.34s-3.45,26.55,2.53,40.43l11.39.33S323.78,218.39,319.89,208.45Z"/><circle class="cls-1" cx="313.38" cy="209.47" r="6.67"/></g><g id="mano_izq.-2" data-name="mano izq."><circle class="cls-16" cx="315.26" cy="251.06" r="6.07"/><polygon class="cls-1" points="321.27 251.84 322.12 262.66 319.07 277.52 308.57 285.14 307.72 282.82 311.07 265.91 304.94 275.68 306.1 255.99 309.24 250.28 321.27 251.84"/><polygon class="cls-16" points="321.24 248.69 309.62 248.03 306.1 255.99 305.5 266.18 309.28 268.76 311.07 265.91 309.21 275.28 314.82 280.6 319.07 277.52 322.12 262.66 321.24 248.69"/></g><g id="pantorrilla_der.-2" data-name="pantorrilla der."><ellipse class="cls-17" cx="254.38" cy="310.7" rx="15.57" ry="14.45" transform="translate(-2.08 1.71) rotate(-0.38)"/><path class="cls-17" d="M239,308.33l30.74-.64c2.41,20.11,1.27,35.83-2.2,45.88l-26.55,1A107.63,107.63,0,0,1,239,308.33Z"/></g><g id="pie_der.-2" data-name="pie der."><path class="cls-1" d="M273,381.3c.41-22.88-21.9-22-21.9-22-19.27.43-21,23-21,23Z"/><ellipse class="cls-17" cx="254.3" cy="354.58" rx="13.29" ry="11.98" transform="translate(-5.01 3.64) rotate(-0.81)"/><path class="cls-18" d="M241,354.9a7.56,7.56,0,0,0,.88,4l25-.46a7.84,7.84,0,0,0,.72-4.21Z"/><path class="cls-19" d="M241.89,358.93,240,359l1.62,2.85s-9.86,4.45-11.58,20.53l44-1s.53-13.23-9.56-19.25l2.75-3.61Z"/><polygon class="cls-20" points="230.56 379.17 273.9 378.15 274.08 381.32 230.04 382.34 230.56 379.17"/><path class="cls-21" d="M230.56,379.17s9.4-10,21.28-8.83c0,0,14.36,0,22.06,7.81Z"/></g><g id="muslo_der.-2" data-name="muslo der."><path id="muslo-3" data-name="muslo" class="cls-17" d="M235.24,234.65c-1.49,12.55-5.41,54.72,5.67,80l24.36-.35s11.21-46.94,8.92-58.17c-2.78-13.6-36.09-25.54-35.73-22.5h0A1.93,1.93,0,0,0,235.24,234.65Z"/><ellipse class="cls-17" cx="255.07" cy="246.18" rx="21.39" ry="19.87" transform="translate(-1.56 1.63) rotate(-0.36)"/><path class="cls-17" d="M233.71,247.29l40.56.35c1.15,0,.52,53.13-5.4,66.41l-30.06.72S228.61,284.77,233.71,247.29Z"/><path class="cls-22" d="M235.24,234.65l12.15,17.87-.45,28.83-12.57,10.81S230.09,260.7,235.24,234.65Z"/></g><g id="pantorrilla_der.-3" data-name="pantorrilla der."><ellipse class="cls-17" cx="293.66" cy="310.1" rx="13.17" ry="14.45"/><path class="cls-17" d="M306.58,307.25l-26,.33c-1.43,20.17,0,35.85,3.24,45.78l22.48.14A126.81,126.81,0,0,0,306.58,307.25Z"/></g><g id="pie_der.-3" data-name="pie der."><path class="cls-1" d="M280.38,381.69C279.09,358.84,298,358.8,298,358.8c16.3-.39,18.73,22.1,18.73,22.1Z"/><ellipse class="cls-17" cx="295.06" cy="353.95" rx="11.25" ry="11.98"/><path class="cls-18" d="M306.3,354a8.75,8.75,0,0,1-.58,4.06l-21.12.61a9.13,9.13,0,0,1-.79-4.18Z"/><path class="cls-19" d="M305.72,358l1.6,0-1.25,2.91c1.46,1,15.6,4.64,16.11,20.57l-42.73.3A30.52,30.52,0,0,1,285.21,362l-1-3.36Z"/><path class="cls-20" d="M321.84,378l-42.37.55,0,3.17,42.73-.3C322.19,380,322.27,378.72,321.84,378Z"/><path class="cls-21" d="M321.84,378a1.63,1.63,0,0,1-.26-.63c-2.3-15.3-17.94-16.69-28.67-5.42-2.38,2.51-2.71,3.82-4.78,6.56Z"/></g><g id="muslo_der.-3" data-name="muslo der."><path id="muslo-4" data-name="muslo" class="cls-17" d="M307.55,233.49c1.64,12.49,6.23,54.52-2.38,80.12l-20.61.42s-10.89-46.55-9.29-57.86c1.93-13.67,29.74-26.66,29.53-23.61h0A1.56,1.56,0,0,1,307.55,233.49Z"/><ellipse class="cls-17" cx="291.13" cy="245.63" rx="18.1" ry="19.87"/><path class="cls-17" d="M309.23,246.07l-34.29,1.63c-1,0,1.16,53.12,6.57,66.21l25.44-.23S314.67,283.37,309.23,246.07Z"/><path class="cls-22" d="M307.55,233.49l-9.73,18.25,1.25,28.79L310,290.94S312.69,259.36,307.55,233.49Z"/></g><g id="torzo_con_ropa-2" data-name="torzo con ropa"><path id="torzo-2" data-name="torzo" class="cls-1" d="M304.25,138.79h-68c1.43,1.06,5.71,87.29-2.28,102.65,0,0,25.17-3.54,27.51,11.22h25.42s2.17-9.52,21.34-14.64C308.29,238.73,300.62,175.23,304.25,138.79Z"/><path class="cls-14" d="M252.94,134.28,236.26,139c2.29,25.79,3.14,56.06-.26,83.88l73.06.49c1.18-21.73-.27-53.95-4.81-84.37l-16.31-5.31"/><path class="cls-15" d="M261.66,130.47s7.18,4.11,17.12-.35l9.16,3.35c-19.66,18.54-35,.65-35,.65S258.82,132.29,261.66,130.47Z"/><path class="cls-17" d="M233.57,241.9s24.46-4.11,27.91,10.76h0c7.8,1,16.41.77,25.4,0h0c.78.34,8.44-8.48,21.7-13.1.23-4.13.29-8.48.22-13l-72.56,3.86C235.15,234.9,233.57,241.9,233.57,241.9Z"/><polygon class="cls-23" points="285.43 159.24 285.43 163.47 293.22 167.47 299.79 163.37 299.79 159.07 285.43 159.24"/><path class="cls-15" d="M285.43,155.92v3.32a54.8,54.8,0,0,0,14.36-.17v-3.15A62.44,62.44,0,0,1,285.43,155.92Z"/><polygon class="cls-22" points="274.65 231.02 275.61 253.32 278.28 253.32 277.7 230.94 274.65 231.02"/><g id="CINTURON_FINAL-2" data-name="CINTURON FINAL"><g id="CINTURON-2" data-name="CINTURON"><path class="cls-19" d="M309.06,223.32,236,222.83a51.15,51.15,0,0,0-1.35,9.43l75,.29C309.91,229,309,226,309.06,223.32Z"/><line class="cls-24" x1="250.45" y1="223.12" x2="250.45" y2="232.09"/><line class="cls-24" x1="252.71" y1="223.12" x2="252.71" y2="232.1"/><line class="cls-24" x1="271.47" y1="223.3" x2="271.47" y2="232.17"/><line class="cls-24" x1="273.98" y1="223.3" x2="273.98" y2="232.17"/><line class="cls-24" x1="294.24" y1="223.44" x2="294.24" y2="232.17"/><line class="cls-24" x1="296.55" y1="223.46" x2="296.55" y2="232.26"/></g><rect class="cls-25" x="288.29" y="218.34" width="11.9" height="6.99"/><rect class="cls-25" x="290" y="225.33" width="8.78" height="9.45"/></g></g><g id="bicep_der.-2" data-name="bicep der."><circle class="cls-14" cx="237.93" cy="150.1" r="12.26"/><polygon class="cls-1" points="225.72 147.52 220.06 206.67 233.25 204.73 242.87 147.26 225.72 147.52"/><g id="manga-4" data-name="manga"><path class="cls-14" d="M245.52,140.83a9.9,9.9,0,0,0-6.65-3.28c-4.77,0-7.13,1.06-9.43,2.82-2.58,2-4.91,4.23-5.91,7.31l-7.4,23,24.1-.8,1.25-14.37C247.3,152.13,248.35,144.31,245.52,140.83Z"/><path class="cls-15" d="M216.92,170.56,215,170.5a.66.66,0,0,0-.67.65l0,2.18a.66.66,0,0,0,.62.69,243.27,243.27,0,0,0,25.62-.6.65.65,0,0,0,.6-.66v-2.3a.68.68,0,0,0-.69-.68l-23.46.78Z"/></g></g><g id="antebrazo_der.-2" data-name="antebrazo der."><path id="antebrazo-4" data-name="antebrazo" class="cls-1" d="M220.35,205.74l13.33-.09s2.95,26.61-3.29,40.37l-11.39.12S216.27,215.61,220.35,205.74Z"/><circle class="cls-1" cx="226.84" cy="206.88" r="6.67"/></g><g id="mano_der.-2" data-name="mano der."><circle class="cls-16" cx="224.98" cy="248.51" r="6.07"/><polygon class="cls-1" points="218.97 249.29 218.1 260.11 221.13 274.97 231.62 282.61 232.47 280.29 229.15 263.37 235.27 273.15 234.13 253.46 231 247.74 218.97 249.29"/><polygon class="cls-16" points="219 246.14 230.62 245.49 234.13 253.46 234.72 263.65 230.93 266.22 229.15 263.37 230.99 272.75 225.37 278.06 221.13 274.97 218.1 260.11 219 246.14"/></g></g><g id="LADO"><path class="cls-1" d="M503.82,31.43s14.54,10.24,13.93,37.2a3.71,3.71,0,0,1,5.15,2.55,4.56,4.56,0,0,1,.08,2.94c-.43,1.29-1.6,2.75-4.75,1.94,0,0-7.8,28.79-27.68,36.35,0,0-10.61,6.27-30.61,3.62L448.35,83.87l6.1-2.8s-7.21-2.75-5.39-10.22c0,0,1.81-7.09,8.88-6.11l8.59,2.18Z"/><g id="CABELLO"><path class="cls-4" d="M435.79,110.33s8,3.77,24.15,5.7c0,0-9.51-23.61-5.49-35,0,0-5.67-3.26-5-8.6,0,0,.25-8.23,8.42-6.89,0,0,4.83,40.72,28.85,57.8,0,0-20.19-23.9-14.34-56.58,0,0,1.1-8.78,14-16.71,0,0,18.91-10,17.32-20.49,0,0-8.17-21-36.59-20.61-2.88-1.74-17.85.78-32.31,7.13a46.11,46.11,0,0,0-26.55,32.14c-.47,2.12-.91,4.35-1.27,6.64-3.33,20.73,5.64,41.73,23.55,52.68A42.82,42.82,0,0,0,435.79,110.33Z"/><path class="cls-27" d="M429.82,42.28s-14.64,4.39-20-7.8c0,0-4.64-10.73,4.14-15.12,0,0-.48-20,17.56-18.27,0,0,18.3.22,19.27,23.14C450.79,24.23,434.21,35.7,429.82,42.28Z"/><path class="cls-6" d="M425.81,42.32S439.72,24.8,450.7,21.26l.6,3.5s-14.39,8.41-20.86,18.29A29.92,29.92,0,0,1,425.81,42.32Z"/><path class="cls-5" d="M515.37,39c-4.94-7-11.55-7.56-11.55-7.56s5.67,4.45,5.31,10.49"/></g><g id="ACCESORIOS_OREJ" data-name="ACCESORIOS OREJ"><circle class="cls-7" cx="455.06" cy="81.49" r="3.1"/><path class="cls-28" d="M455.69,76.35S453.42,75,454.06,71"/><path class="cls-28" d="M452.18,70.85s4-.13,5.76,2.12"/><path class="cls-29" d="M450.74,68.25s-2-.8-2,.93c0,0,0,1.8,2.19.94"/></g><path id="cuello-3" data-name="cuello" class="cls-1" d="M479.61,137.39c-3.57-5.12-3.32-23.12-3.32-23.12-.72.32-8.45.6-8.45.6V115a39.43,39.43,0,0,1-7.81-.71s.46,18-3.11,23.17C464.35,141.67,471.91,141.7,479.61,137.39Z"/><path class="cls-15" d="M458.56,131.92a39.18,39.18,0,0,0,19-.37l3.71,5.25a23.74,23.74,0,0,1-26.22.75Z"/><g id="pantorrilla_der.-4" data-name="pantorrilla der."><ellipse class="cls-17" cx="466.65" cy="309.3" rx="14.97" ry="14.67"/><path class="cls-17" d="M481.33,306.4l-29.57.34c-1.63,20.49,0,36.41,3.68,46.5l25.56.14A115.09,115.09,0,0,0,481.33,306.4Z"/></g><g id="pie_der.-4" data-name="pie der."><path class="cls-1" d="M451.55,381.57c-1.48-22.85,20-22.89,20-22.89,18.54-.39,21.3,22.1,21.3,22.1Z"/><ellipse class="cls-17" cx="468.23" cy="353.83" rx="12.79" ry="11.98"/><path class="cls-18" d="M481,353.83a7.6,7.6,0,0,1-.66,4.06l-24,.61a8.24,8.24,0,0,1-.89-4.18Z"/><path class="cls-19" d="M480.35,357.89l1.82,0-1.42,2.91c1.66,1,17.74,4.64,18.32,20.57l-48.58.3A27.53,27.53,0,0,1,457,361.88L456,358.51Z"/><path class="cls-20" d="M498.69,377.91l-48.19.55v3.17l48.58-.3C499.08,379.9,499.17,378.6,498.69,377.91Z"/><path class="cls-21" d="M498.69,377.91a1.56,1.56,0,0,1-.3-.63c-2.62-15.3-20.4-16.69-32.6-5.42-2.7,2.52-3.08,3.82-5.44,6.56Z"/></g><g id="muslo_der.-4" data-name="muslo der."><path id="muslo-5" data-name="muslo" class="cls-17" d="M482.79,231.49c1.87,12.69,7.1,55.37-2.72,81.38l-23.5.42S444.14,266,446,254.53c2.2-13.89,33.92-27.08,33.69-24h0A1.82,1.82,0,0,1,482.79,231.49Z"/><ellipse class="cls-17" cx="464.07" cy="243.82" rx="20.65" ry="20.18"/><path class="cls-17" d="M484.71,244.27l-39.11,1.65c-1.11,0,1.32,54,7.49,67.25l29-.24S490.91,282.15,484.71,244.27Z"/><path class="cls-22" d="M482.79,231.49,471.69,250l1.42,29.25,12.5,10.57S488.65,257.76,482.79,231.49Z"/></g><g id="TORZO-3" data-name="TORZO"><path class="cls-14" d="M455.23,137.55a.26.26,0,0,0-.14.06c-5,3.25-8.26,12-9.82,21.11-2.5,14.69,2.42,62.07,1.38,72.69l36.28.46c-1,5.59,16.94-48.09-1.48-95.07C481.45,136.8,468.53,145.74,455.23,137.55Z"/><path class="cls-19" d="M447.57,222.26c.22,0-.6,4.85-.79,10.06l36.28-.47s2.52-3.18,2.47-9.66Z"/><line class="cls-30" x1="467.05" y1="222.19" x2="467.05" y2="232.03"/><line class="cls-30" x1="469.3" y1="222.19" x2="469.3" y2="232.04"/></g><g id="bicep_der.-3" data-name="bicep der."><circle class="cls-14" cx="450.94" cy="149.62" r="11.49"/><polygon class="cls-1" points="441.77 148.48 439.16 207.84 452.24 205.22 458.88 147.34 441.77 148.48"/><g id="manga-5" data-name="manga"><path class="cls-14" d="M441,147.93,435,172.47l28.5,0-1.2-22.17C460.07,138.63,440.83,143.44,441,147.93Z"/><path class="cls-15" d="M436.27,172.31l-2.32-.1a.77.77,0,0,0-.83.68l-.17,2.32a.72.72,0,0,0,.71.75c2.83.16,13.45.6,30.53-.19.4,0,.76-.78.78-1.16l.1-2a.73.73,0,0,0-.77-.74l-28,.42Z"/></g></g><g id="antebrazo_der.-3" data-name="antebrazo der."><path id="antebrazo-5" data-name="antebrazo" class="cls-1" d="M439.31,206.74l13.31-.77s4.32,26.42-1.21,40.48l-11.37.71S435.75,216.81,439.31,206.74Z"/><circle class="cls-1" cx="445.85" cy="207.55" r="6.67"/></g><g id="mano_der.-3" data-name="mano der."><circle class="cls-16" cx="446.14" cy="249.22" r="6.07"/><polygon class="cls-1" points="440.17 250.3 439.86 261.16 443.65 275.84 454.51 282.93 455.25 280.57 451.06 263.85 457.67 273.3 455.53 253.69 452.11 248.14 440.17 250.3"/><polygon class="cls-16" points="440.04 247.16 451.61 245.91 455.53 253.69 456.64 263.84 452.99 266.6 451.06 263.85 453.38 273.12 448.05 278.71 443.65 275.84 439.86 261.16 440.04 247.16"/></g><g id="GESTOS_CARA" data-name="GESTOS CARA"><path class="cls-4" d="M495.78,60.76,511.85,55c-.09,0-1.32-3.33-6.57-1.7C505,53.12,499.47,55.67,495.78,60.76Z"/><path class="cls-12" d="M511.37,51.65a2.86,2.86,0,0,1,.48,3.32"/><ellipse class="cls-9" cx="512.19" cy="65.26" rx="1.95" ry="2.8"/><circle class="cls-10" cx="512.33" cy="63.9" r="0.84"/><circle class="cls-3" cx="489.43" cy="74.41" r="11.36"/><path class="cls-31" d="M517.75,68.63a47.56,47.56,0,0,1,.48,7.43s4.6,1.62,4.94-3.59C523.17,72.47,523,67.16,517.75,68.63Z"/></g></g><g id="_3_4_ESPALDA" data-name="3/4 ESPALDA"><path id="CARA-5" data-name="CARA" class="cls-1" d="M701.25,51.62a25.05,25.05,0,0,1,3.15,15.06s4.86.38,4,5.09c0,0,.1,1.93-3.52,3.32,1.45-.06.2,37.59-39.36,42.13,0,0-53.17.47-58.6-33.56,0,0-3.71-52,36.88-54.91C643.8,28.75,681.24,27.89,701.25,51.62Z"/><g id="CABELLO_Y_ACCESORIOS" data-name="CABELLO Y ACCESORIOS"><path class="cls-4" d="M646.08,14.46s-13.83-8.44-28.27,1c0,0-8.17-17.32-26.3-9.38a13,13,0,0,0-7.9,11.16,12.76,12.76,0,0,0,.87,5.22s-3.48,3.69-1.1,11.29c.8,2.58,4.08,6.48,8.15,7,1.43.17,3.05.68,4.1-.37,0,0-12.59,29.05,7.21,52.56,1.22,1.44,2.39,2.91,3.51,4.43,5,6.84,23.61,27.55,60.32,20.47,0,0-5.72-10.29,11.29-34,0,0-8.44,5.14-8.86-7.86,0,0-1.29-8.29,5.86-6.86,0,0,7.24,36.16,20.54,55.16,0,0-20.83-51.31,10.61-77.75,0,0-4-8.72-10.86-14.43,0,0-14.31-18.21-37.87-19.54-.57,0-1.14-.09-1.7-.17C654,12.07,649.59,11.74,646.08,14.46Z"/><path class="cls-15" d="M595.49,40.61s8-19.37,22.32-24.3c0,0-.38-2.78-2.24-3.93,0,0-17.87,6.72-24.37,28.23A7.42,7.42,0,0,0,595.49,40.61Z"/><path class="cls-32" d="M661.26,24.14s.3-26.94,21-17.24c0,0,20-4.41,21.56,16.31,0,0-2.22,23.5-26,18.5Z"/><path class="cls-15" d="M661.83,19.73l-1.57,4.49s15.46,10.53,18.26,19.35l5.35-.9c-.76-.23-3.1-11.22-21.71-22.89"/><path class="cls-5" d="M708.32,57c2.28-6.7-3.06-11.19-3.06-11.19s2.52,5.64-1.25,9.87"/></g><g id="ACCESORIOS"><circle class="cls-7" cx="675.63" cy="85.06" r="2.56"/><path class="cls-33" d="M675,79.26s-2.08-.65-2.28-4"/><path class="cls-33" d="M671.19,75.45s3.22-.82,5,.69"/><path class="cls-34" d="M669.54,71.3s-1.76-.28-1.42,1.11c0,0,.33,1.45,1.93.37"/></g><path id="cuello-4" data-name="cuello" class="cls-1" d="M646.17,141.19c3.57-5.12,3.33-23.11,3.33-23.11.72.32,8.45.6,8.45.6v.11a39.35,39.35,0,0,0,7.81-.71s-.46,18,3.11,23.17C661.43,145.48,653.87,145.5,646.17,141.19Z"/><g id="bicep_izq.-3" data-name="bicep izq."><circle class="cls-14" cx="626.94" cy="152.5" r="12.26"/><polygon class="cls-1" points="614.64 150.43 611.42 209.76 624.52 207.27 631.76 149.46 614.64 150.43"/><g id="manga-6" data-name="manga"><path class="cls-14" d="M634.15,142.92a9.88,9.88,0,0,0-6.78-3c-4.77.19-7.09,1.36-9.31,3.2-2.5,2.07-4.74,4.43-5.6,7.55L606,174l24-1.79.66-14.41C636.39,154.14,637.12,146.28,634.15,142.92Z"/><path class="cls-15" d="M606.79,173.8l-1.95,0a.66.66,0,0,0-.64.68l0,2.18a.67.67,0,0,0,.65.67,244.05,244.05,0,0,0,25.57-1.66.65.65,0,0,0,.58-.69l-.1-2.29a.66.66,0,0,0-.7-.65l-23.42,1.74Z"/></g></g><g id="antebrazo_izq.-3" data-name="antebrazo izq."><path id="antebrazo-6" data-name="antebrazo" class="cls-1" d="M611.69,208.67l13.33-.34s3.45,26.55-2.54,40.42l-11.38.34S607.8,218.61,611.69,208.67Z"/><circle class="cls-1" cx="618.19" cy="209.69" r="6.67"/></g><g id="mano_izq.-3" data-name="mano izq."><circle class="cls-16" cx="616.32" cy="251.27" r="6.07"/><polygon class="cls-1" points="610.3 252.06 609.46 262.88 612.51 277.73 623 285.36 623.85 283.04 620.51 266.13 626.64 275.9 625.48 256.2 622.34 250.49 610.3 252.06"/><polygon class="cls-16" points="610.34 248.91 621.95 248.24 625.48 256.2 626.08 266.39 622.29 268.97 620.51 266.13 622.36 275.5 616.75 280.82 612.51 277.73 609.46 262.88 610.34 248.91"/></g><g id="pantorrilla_der.-5" data-name="pantorrilla der."><ellipse class="cls-17" cx="674.04" cy="311.83" rx="14.45" ry="15.57" transform="translate(357.7 983.76) rotate(-89.62)"/><path class="cls-17" d="M689.39,309.47l-30.73-.64c-2.41,20.11-1.27,35.83,2.19,45.87l26.55,1A107.42,107.42,0,0,0,689.39,309.47Z"/></g><g id="pie_der.-5" data-name="pie der."><ellipse class="cls-17" cx="674.12" cy="355.71" rx="11.98" ry="13.29" transform="translate(308.88 1024.72) rotate(-89.19)"/><path class="cls-18" d="M687.41,356a7.56,7.56,0,0,1-.89,4l-25-.46a7.91,7.91,0,0,1-.73-4.21Z"/><path class="cls-19" d="M682.44,359.75H689l-3.29,2.88c1.47,1,13.45,3.4,14,19.32l-42.73.3a30.49,30.49,0,0,1,5.76-19.75l-2.41-3.33Z"/><path class="cls-20" d="M657.16,378.8h42.38l.05,3.68H656.82C656.8,381.06,656.74,379.49,657.16,378.8Z"/><path class="cls-21" d="M699.29,378.53a.83.83,0,0,1-.26-.63c.82-5-6.65-12.27-7.7-12.45,0,0-9.19,12.35-12.66,13.08"/></g><g id="muslo_der.-5" data-name="muslo der."><path id="muslo-6" data-name="muslo" class="cls-17" d="M693.17,235.79c1.49,12.54,5.41,54.72-5.67,80l-24.36-.35s-11.21-46.93-8.91-58.17c2.77-13.6,36.08-25.54,35.73-22.5h0A1.92,1.92,0,0,1,693.17,235.79Z"/><ellipse class="cls-17" cx="673.34" cy="247.31" rx="19.87" ry="21.39" transform="translate(421.75 919.07) rotate(-89.64)"/><path class="cls-17" d="M694.71,248.42l-40.56.35c-1.15-.05-.52,53.14,5.39,66.42l30.06.71S699.81,285.9,694.71,248.42Z"/><path class="cls-22" d="M693.17,235.79,681,253.66l.45,28.82L694,293.29S698.32,261.83,693.17,235.79Z"/></g><g id="pantorrilla_der.-6" data-name="pantorrilla der."><ellipse class="cls-17" cx="634.75" cy="311.23" rx="13.17" ry="14.45"/><path class="cls-17" d="M621.84,308.38l26,.33c1.43,20.18,0,35.86-3.24,45.79l-22.48.13A126.37,126.37,0,0,1,621.84,308.38Z"/></g><g id="pie_izq.-2" data-name="pie izq."><ellipse class="cls-17" cx="633.36" cy="355.09" rx="11.25" ry="11.98"/><path class="cls-18" d="M622.12,355.09a8.63,8.63,0,0,0,.58,4.06l21.11.6a9,9,0,0,0,.79-4.17Z"/><path class="cls-19" d="M620.43,359.27l-1.89,0,1.62,2.85s-9.84,4.26-11.56,20.34l44-.83s.54-13.23-9.56-19.25l2.68-3.24Z"/><polygon class="cls-20" points="609.1 379.51 652.46 378.93 652.65 382.49 608.6 382.49 609.1 379.51"/></g><g id="muslo_der.-6" data-name="muslo der."><path id="muslo-7" data-name="muslo" class="cls-17" d="M620.86,234.63c-1.64,12.49-6.22,54.51,2.39,80.12l20.6.42s10.9-46.56,9.3-57.86c-1.94-13.68-29.75-26.67-29.54-23.62h0A1.56,1.56,0,0,0,620.86,234.63Z"/><ellipse class="cls-17" cx="637.28" cy="246.77" rx="18.1" ry="19.87"/><path class="cls-17" d="M619.19,247.2l34.28,1.64c1,0-1.16,53.12-6.56,66.2l-25.44-.23S613.74,284.5,619.19,247.2Z"/><path class="cls-22" d="M620.86,234.63l9.74,18.24-1.25,28.8-11,10.4S615.72,260.49,620.86,234.63Z"/></g><g id="torzo_con_ropa-3" data-name="torzo con ropa"><path id="torzo-4" data-name="torzo" class="cls-1" d="M624.16,139.92h68c-1.43,1.06-5.71,87.29,2.27,102.66,0,0-25.17-3.55-27.5,11.21H641.51s-2.18-9.51-21.35-14.64C620.12,239.87,627.8,176.37,624.16,139.92Z"/><path class="cls-14" d="M675.47,135.42l16.69,4.66c-.22,26.12-1.45,57.31-.84,84.69-18,2.06-35.09,6.79-44.38,1.08l-2.36-2.58c-4.3,3.33-5.39,10.2-10.93,3.86l-3-2.25c-.74,4.32-5.49,1-10.79-1.62,3-20.65,4.4-51.56,4.35-83.18l16.32-5.31"/><path class="cls-15" d="M666.75,131.61s-7.17,4.11-17.12-.36l-9.15,3.36c19.66,18.54,35,.64,35,.64S669.6,133.43,666.75,131.61Z"/><path class="cls-17" d="M694.85,243s-24.47-4.1-27.92,10.76h0c-7.8,1-16.42.77-25.41,0h0c-.78.33-8.44-8.49-21.71-13.1-.23-4.14-.28-8.49-.21-13l72.56,3.86C693.26,236,694.85,243,694.85,243Z"/></g><g id="bicep_der.-4" data-name="bicep der."><circle class="cls-14" cx="690.49" cy="151.23" r="12.26"/><polygon class="cls-1" points="702.67 148.53 708.94 207.62 695.74 205.81 685.52 148.45 702.67 148.53"/><g id="manga-7" data-name="manga"><path class="cls-14" d="M682.8,142a9.83,9.83,0,0,1,6.61-3.34c4.77-.06,7.15,1,9.46,2.71,2.6,1.94,5,4.18,6,7.26l7.64,22.92-24.11-.54L687,156.69C681.14,153.36,680,145.55,682.8,142Z"/><path class="cls-15" d="M711.71,171.47l1.95-.08a.65.65,0,0,1,.67.65l.07,2.17a.67.67,0,0,1-.62.7,241.42,241.42,0,0,1-25.62-.33.66.66,0,0,1-.61-.66l0-2.29a.68.68,0,0,1,.68-.69l23.47.53Z"/></g></g><g id="antebrazo_der.-4" data-name="antebrazo der."><path id="antebrazo-7" data-name="antebrazo" class="cls-1" d="M708.65,206.69l-13.33,0s-2.68,26.64,3.71,40.34h11.39S712.83,216.51,708.65,206.69Z"/><circle class="cls-1" cx="702.17" cy="207.89" r="6.67"/></g><g id="mano_der.-4" data-name="mano der."><circle class="cls-16" cx="704.46" cy="249.51" r="6.07"/><polygon class="cls-1" points="710.49 250.22 711.47 261.03 708.59 275.92 698.19 283.67 697.31 281.36 700.45 264.41 694.44 274.25 695.37 254.55 698.44 248.8 710.49 250.22"/><polygon class="cls-16" points="710.42 247.07 698.8 246.54 695.37 254.55 694.89 264.74 698.7 267.28 700.45 264.41 698.71 273.8 704.38 279.06 708.59 275.92 711.47 261.03 710.42 247.07"/></g><path class="cls-35" d="M638.7,255.54c-.08-1.21,3.61,3.73,15.21-.87"/><path class="cls-35" d="M653.93,254.92c-.09-1.21,6,4.29,17.63-.31"/><g id="CINTURON-3" data-name="CINTURON"><path class="cls-19" d="M619.81,223.26h71.53c1.49,2.2,1.76,5.64.79,8.87l-72.57.36C619.3,229,619.86,225.89,619.81,223.26Z"/><line class="cls-36" x1="628.4" y1="223.24" x2="628.4" y2="232.42"/><line class="cls-36" x1="630.65" y1="223.24" x2="630.65" y2="232.43"/><line class="cls-36" x1="649.41" y1="223.43" x2="649.41" y2="232.5"/><line class="cls-36" x1="651.93" y1="223.43" x2="651.93" y2="232.5"/><line class="cls-36" x1="672.19" y1="223.58" x2="672.19" y2="232.5"/><line class="cls-36" x1="674.5" y1="223.59" x2="674.5" y2="232.6"/></g></g><g id="ESPALDAS"><g id="aretes-2" data-name="aretes"><circle class="cls-7" cx="931.29" cy="84.08" r="3.1"/><circle class="cls-7" cx="810.31" cy="84.28" r="3.1"/><circle class="cls-7" cx="805.79" cy="81.65" r="2.06"/><path class="cls-8" d="M935.54,68.45s2.36-.94,2.32,1.1c0,0,0,2.13-2.58,1.11"/></g><g id="cara-6" data-name="cara"><g id="cara-7" data-name="cara"><path class="cls-1" d="M929.47,66.86s8.07-1.17,8.7,7.4c0,0,.8,7-12.9,9.14,0,0-6.48,16.36-17.8,22.95,0,0-14.32,12.87-40.06,11.86,0,0-30.64,2-54.3-34.81,0,0-11.86.06-11.68-10.5,0,0,.57-6.65,8.51-6,0,0,6.85-46.31,44.86-50.81,1.93-.23,3.9-.06,5.84-.24,8.86-.85,37.8-1.16,59.35,26.73.45.58.89,1.18,1.36,1.75C922.49,45.74,926.65,51.61,929.47,66.86Z"/></g></g><path id="cuello-5" data-name="cuello" class="cls-1" d="M856.58,139.8c3.57-5.12,3.32-23.11,3.32-23.11.72.32,8.45.6,8.45.6v.11a41,41,0,0,0,7.81-.71s-.46,18.05,3.11,23.17C871.84,144.08,864.28,144.11,856.58,139.8Z"/><path class="cls-4" d="M935.08,24.74s9.33,18.94-10.84,19.07c0,0,9.46,21.75,3.48,45.38,0,0-8,23.77-19.39,34.27,0,0,19.53-29.53,13.91-49,0,0-3.74-16.38-17.66-21.84,0,0-22.87-3.81-27.68-21.41,0,0-3.86-9.63,9.63-13.8a20.56,20.56,0,0,1,17,2.17s3.16-20,21-14.53a16,16,0,0,1,9.74,8c1.83,3.65,2.68,8.75-1.24,14.53"/><path class="cls-4" d="M816.91,9.87s-10.3-3.44-15.55,1.89c0,0-10.82,8.09-2.24,22.93,0,0,2.27,5.73,15.91,5,0,0-12,27.81,1.88,56.24,0,0,8.87,20.28,16.23,27.29,0,0-18.08-29.89-15.17-51.08a23.94,23.94,0,0,1,9.54-16.33c.5-.36,1-.73,1.49-1.12,2.4-2,11.51-9.13,19.18-9.17,0,0,14.87.26,28.72-14.4,0,0-4.22-9,9.63-13.8,0,0-8.58-7.77-23.89-7.92a45,45,0,0,0-27.56,8.32S830.73,4.77,823.24,4c0,0-8.25-2.86-11.89,4.85"/><path class="cls-4" d="M820.07,93s10.65,13,22.12,18.47c0,0,12.74,7.6,27.61,6.85,0,0,19.23.36,32.41-8.27,0,0,11.79-5,20.5-21.24l3.2-13.05c-7-22.9-20.2-42.23-48.74-52.74l-58.6,35-3.14,23.66Z"/><g id="moñas-2" data-name="moñas"><path class="cls-6" d="M924.24,43.81s-4.5-12.43-20.67-24.28c0,0,.64-2.57.74-2.94s15.9,5.88,23.87,26.91Z"/><path class="cls-6" d="M835.08,17.76s-14.91,10.47-20.05,22l-3.3,0s3.09-14.11,22-25.22Z"/></g><g id="bicep_der.-5" data-name="bicep der."><circle class="cls-14" cx="902.29" cy="151.01" r="12.26"/><polygon class="cls-1" points="914 146.69 928.18 204.39 914.85 204.38 896.99 148.92 914 146.69"/><g id="manga-8" data-name="manga"><path class="cls-14" d="M893.43,142.93a9.91,9.91,0,0,1,6.1-4.2c4.73-.7,7.22,0,9.75,1.41,2.83,1.57,5.47,3.48,6.9,6.39l10.66,21.69-24,2.71-3.32-14C893.31,154.38,891.14,146.79,893.43,142.93Z"/><path class="cls-15" d="M926.05,168.2l1.92-.34a.65.65,0,0,1,.75.55l.36,2.14a.67.67,0,0,1-.52.78,239.82,239.82,0,0,1-25.43,3.12.66.66,0,0,1-.7-.57l-.33-2.26a.69.69,0,0,1,.58-.78L926,168.21Z"/></g></g><g id="antebrazo_der.-5" data-name="antebrazo der."><path id="antebrazo-8" data-name="antebrazo" class="cls-1" d="M927.94,204.2l-13.32.4s-2,26.7,4.79,40.22l11.38-.3S932.39,213.9,927.94,204.2Z"/><circle class="cls-1" cx="921.51" cy="205.58" r="6.67"/></g><g id="mano_der.-5" data-name="mano der."><circle class="cls-16" cx="924.91" cy="247.11" r="6.07"/><polygon class="cls-1" points="930.95 247.66 932.21 258.44 929.74 273.4 919.55 281.43 918.61 279.14 921.3 262.12 915.55 272.12 915.95 252.39 918.86 246.56 930.95 247.66"/><polygon class="cls-16" points="930.79 244.52 919.16 244.3 915.95 252.39 915.74 262.6 919.62 265.03 921.3 262.12 919.81 271.55 925.62 276.65 929.74 273.4 932.21 258.44 930.79 244.52"/></g><g id="bicep_izq.-4" data-name="bicep izq."><circle class="cls-14" cx="831.38" cy="150.89" r="12.26"/><polygon class="cls-1" points="819.61 146.75 806.28 204.65 819.61 204.44 836.65 148.73 819.61 146.75"/><g id="manga-9" data-name="manga"><path class="cls-14" d="M840.12,142.69a9.87,9.87,0,0,0-6.16-4.11c-4.74-.63-7.22.12-9.73,1.56-2.81,1.61-5.42,3.55-6.8,6.48l-10.35,21.84,24,2.36,3.12-14.09C840.41,154.13,842.47,146.51,840.12,142.69Z"/><path class="cls-15" d="M807.88,168.44l-1.93-.32a.65.65,0,0,0-.74.56l-.33,2.15a.67.67,0,0,0,.53.77,238.62,238.62,0,0,0,25.47,2.75.66.66,0,0,0,.69-.58l.3-2.27a.66.66,0,0,0-.58-.76l-23.37-2.3Z"/></g></g><g id="antebrazo_izq.-4" data-name="antebrazo izq."><path id="antebrazo-9" data-name="antebrazo" class="cls-1" d="M806.52,204.4l13.33.32S822,231.41,815.32,245l-11.39-.23S802.15,214.14,806.52,204.4Z"/><circle class="cls-1" cx="812.97" cy="205.74" r="6.67"/></g><g id="mano_izq.-4" data-name="mano izq."><circle class="cls-16" cx="809.76" cy="247.35" r="6.07"/><polygon class="cls-1" points="803.71 247.83 802.33 258.6 804.64 273.58 814.75 281.72 815.71 279.44 813.21 262.39 818.85 272.45 818.66 252.72 815.81 246.86 803.71 247.83"/><polygon class="cls-16" points="803.9 244.69 815.54 244.6 818.66 252.72 818.76 262.93 814.85 265.32 813.21 262.39 814.6 271.84 808.73 276.88 804.64 273.58 802.33 258.6 803.9 244.69"/></g><g id="pantorrilla_der.-7" data-name="pantorrilla der."><ellipse class="cls-17" cx="887.99" cy="309.62" rx="14.03" ry="14.45"/><path class="cls-17" d="M901.75,306.77,874,307.1c-1.52,20.18,0,35.86,3.45,45.79l24,.13A119,119,0,0,0,901.75,306.77Z"/></g><g id="pie_der.-6" data-name="pie der."><path class="cls-1" d="M873.51,380.77c-1.1-22.85,19-22.65,19-22.65,17.38-.18,19.69,22.34,19.69,22.34Z"/><circle class="cls-17" cx="889.48" cy="353.48" r="11.98"/><path class="cls-18" d="M901.46,353.38a8.18,8.18,0,0,1-.67,4.05l-22.5.33a8.56,8.56,0,0,1-.79-4.19Z"/><path class="cls-19" d="M900.79,357.43l1.7,0-1.36,2.89s9,4.14,11.09,20.16l-39.7.36s-.91-13.2,8-19.54l-2.6-3.51Z"/><polygon class="cls-20" points="911.65 377.3 872.57 377.65 872.52 380.82 912.22 380.46 911.65 377.3"/></g><g id="muslo_der.-7" data-name="muslo der."><path id="muslo-8" data-name="muslo" class="cls-17" d="M902.79,233c1.75,12.49,6.63,54.52-2.54,80.12l-22,.42S866.69,267,868.39,255.7c2.07-13.68,31.69-26.67,31.47-23.61h0A1.68,1.68,0,0,1,902.79,233Z"/><ellipse class="cls-17" cx="885.3" cy="245.16" rx="19.28" ry="19.87"/><path class="cls-17" d="M904.58,245.59l-36.53,1.64c-1,0,1.24,53.12,7,66.2l27.11-.23S910.38,282.89,904.58,245.59Z"/><path class="cls-22" d="M902.79,233l-10.37,18.24,1.33,28.8,11.67,10.4S908.27,258.88,902.79,233Z"/></g><g id="pantorrilla_izq.-2" data-name="pantorrilla izq."><ellipse class="cls-17" cx="841.74" cy="309.38" rx="14.03" ry="14.45"/><path class="cls-17" d="M828,306.53l27.72.33c1.52,20.18,0,35.86-3.46,45.79l-24,.13A119.18,119.18,0,0,1,828,306.53Z"/></g><g id="pie_izq.-3" data-name="pie izq."><path class="cls-1" d="M856.22,380.53c1.11-22.85-19-22.65-19-22.65-17.38-.18-19.68,22.34-19.68,22.34Z"/><circle class="cls-17" cx="840.26" cy="353.24" r="11.98"/><path class="cls-18" d="M828.28,353.14a8.18,8.18,0,0,0,.67,4.05l22.5.33a8.59,8.59,0,0,0,.79-4.19Z"/><path class="cls-19" d="M829,357.19l-1.71,0,1.37,2.9s-9,4.14-11.09,20.16l39.7.36s.91-13.2-8-19.54l2.59-3.51Z"/><polygon class="cls-20" points="818.09 377.06 857.16 377.41 857.22 380.58 817.52 380.22 818.09 377.06"/></g><g id="muslo_izq.-2" data-name="muslo izq."><path id="muslo-9" data-name="muslo" class="cls-17" d="M827,232.78c-1.75,12.49-6.64,54.52,2.53,80.12l22,.42s11.61-46.56,9.9-57.86c-2.06-13.68-31.69-26.67-31.46-23.62h0A1.69,1.69,0,0,0,827,232.78Z"/><ellipse class="cls-17" cx="844.44" cy="244.92" rx="19.28" ry="19.87"/><path class="cls-17" d="M825.16,245.35,861.69,247c1,0-1.24,53.12-7,66.2l-27.1-.23S819.36,282.65,825.16,245.35Z"/><path class="cls-22" d="M827,232.78,837.32,251,836,279.82l-11.67,10.4S821.47,258.64,827,232.78Z"/></g><g id="torzo_con_ropa-4" data-name="torzo con ropa"><path id="torzo-5" data-name="torzo" class="cls-1" d="M833.84,138.53h68s-4.07,86.07,2.27,102.66c0,0-25.17-3.55-27.5,11.21H851.18s-5.54-9-24.71-14.13C826.43,239,837.48,175,833.84,138.53Z"/><path class="cls-14" d="M885.15,133.86l16.69,4.67c-1.15,25.68-1.45,57.94-.38,86l-44.88,1.54H827.94c3.43-24.6,6.58-60.33,5.9-87.52l16.31-5.31"/><path class="cls-15" d="M876.43,130.22s-7.18,4.11-17.12-.36l-9.16,3.36c19.66,18.54,35,.64,35,.64S879.28,132,876.43,130.22Z"/><path class="cls-17" d="M904.52,241.64s-24.46-4.1-27.91,10.76h0c-7.79,1-16.41.77-25.4,0h0c-.3.1-10.35-10.09-25.1-14l1.84-12.38,73.9,4.11C902.94,234.64,904.52,241.64,904.52,241.64Z"/></g><path class="cls-35" d="M847.67,251.25c-.08-1.21,6,4.29,17.63-.31"/><path class="cls-35" d="M865.32,251.18c-.08-1.21,6,4.29,17.63-.31"/><g id="CINTURON-4" data-name="CINTURON"><path class="cls-19" d="M901.57,222.34l-73.06-.49a51.89,51.89,0,0,0-1.35,9.43l75,.29C902.43,228.05,901.52,225,901.57,222.34Z"/><line class="cls-24" x1="842.97" y1="222.13" x2="842.97" y2="231.11"/><line class="cls-24" x1="845.22" y1="222.13" x2="845.22" y2="231.12"/><line class="cls-24" x1="863.98" y1="222.31" x2="863.98" y2="231.19"/><line class="cls-24" x1="866.5" y1="222.31" x2="866.5" y2="231.19"/><line class="cls-24" x1="886.76" y1="222.46" x2="886.76" y2="231.19"/><line class="cls-24" x1="889.06" y1="222.47" x2="889.06" y2="231.28"/></g></g><g id="_3_4_ESP_OTRO_LADO" data-name="3/4 ESP OTRO LADO"><path id="CARA-8" data-name="CARA" class="cls-1" d="M1023.76,49.29a25.09,25.09,0,0,0-3.14,15.06s-4.86.38-4,5.09c0,0-.1,1.93,3.52,3.32-1.45-.06-.2,37.59,39.36,42.13,0,0,53.16.47,58.6-33.57,0,0,3.71-52-36.88-54.9C1081.22,26.42,1043.77,25.56,1023.76,49.29Z"/><g id="CABELLO_Y_ACCESORIOS-2" data-name="CABELLO Y ACCESORIOS"><path class="cls-4" d="M1078.93,12.13s13.84-8.44,28.28,1c0,0,8.16-17.32,26.3-9.38a13,13,0,0,1,7.9,11.16,12.93,12.93,0,0,1-.87,5.22s3.48,3.69,1.1,11.29c-.8,2.58-4.09,6.48-8.15,6.95-1.43.17-3,.68-4.1-.37,0,0,12.58,29.05-7.22,52.56-1.21,1.44-2.39,2.91-3.5,4.43-5,6.84-23.61,27.55-60.32,20.47,0,0,5.72-10.29-11.29-34,0,0,8.43,5.14,8.86-7.87,0,0,1.29-8.29-5.86-6.86,0,0-7.25,36.16-20.54,55.17,0,0,20.83-51.31-10.62-77.75,0,0,4-8.72,10.87-14.43,0,0,14.31-18.21,37.87-19.54.57,0,1.14-.09,1.7-.17C1071,9.74,1075.43,9.41,1078.93,12.13Z"/><path class="cls-15" d="M1129.53,38.28s-8-19.37-22.32-24.3c0,0,.38-2.78,2.24-3.93,0,0,17.86,6.72,24.37,28.23A7.42,7.42,0,0,1,1129.53,38.28Z"/><path class="cls-32" d="M1063.76,21.81s-.3-26.94-21-17.24c0,0-20-4.41-21.56,16.3,0,0,2.22,23.5,26,18.51Z"/><path class="cls-15" d="M1063.19,17.4l1.57,4.49s-15.46,10.52-18.27,19.35l-5.35-.9c.77-.23,3.11-11.22,21.72-22.89"/><path class="cls-5" d="M1016.7,54.63c-2.29-6.7,3.06-11.19,3.06-11.19s-2.52,5.64,1.25,9.86"/></g><g id="ACCESORIOS-2" data-name="ACCESORIOS"><circle class="cls-7" cx="1049.38" cy="82.73" r="2.56"/><path class="cls-33" d="M1050,76.93s2.07-.65,2.28-4"/><path class="cls-33" d="M1053.82,73.12s-3.22-.82-5,.69"/><circle class="cls-7" cx="1053.82" cy="81.08" r="2.06"/></g><path id="cuello-6" data-name="cuello" class="cls-1" d="M1078.84,138.86c-3.56-5.12-3.32-23.11-3.32-23.11-.72.32-8.45.6-8.45.6v.11a40.89,40.89,0,0,1-7.8-.71s.45,18.05-3.11,23.17C1063.58,143.14,1071.15,143.17,1078.84,138.86Z"/><g id="bicep_izq.-5" data-name="bicep izq."><circle class="cls-14" cx="1098.08" cy="150.17" r="12.26"/><polygon class="cls-1" points="1110.38 148.1 1113.6 207.43 1100.5 204.94 1093.26 147.13 1110.38 148.1"/><g id="manga-10" data-name="manga"><path class="cls-14" d="M1090.87,140.59a9.88,9.88,0,0,1,6.78-3c4.77.19,7.09,1.36,9.31,3.2,2.49,2.07,4.73,4.43,5.6,7.55l6.45,23.3-24-1.79-.66-14.41C1088.63,151.81,1087.9,144,1090.87,140.59Z"/><path class="cls-15" d="M1118.23,171.47l2,0a.67.67,0,0,1,.64.68l0,2.18a.67.67,0,0,1-.65.67,244.05,244.05,0,0,1-25.57-1.66.65.65,0,0,1-.58-.69l.09-2.29a.67.67,0,0,1,.71-.65l23.42,1.74Z"/></g></g><g id="antebrazo_izq.-5" data-name="antebrazo izq."><path id="antebrazo-10" data-name="antebrazo" class="cls-1" d="M1113.33,206.34,1100,206s-3.45,26.56,2.54,40.43l11.38.34S1117.22,216.28,1113.33,206.34Z"/><circle class="cls-1" cx="1106.82" cy="207.35" r="6.67"/></g><g id="mano_izq.-5" data-name="mano izq."><circle class="cls-16" cx="1108.7" cy="248.94" r="6.07"/><polygon class="cls-1" points="1114.72 249.72 1115.56 260.55 1112.51 275.4 1102.01 283.03 1101.16 280.71 1104.51 263.8 1098.38 273.57 1099.54 253.87 1102.68 248.16 1114.72 249.72"/><polygon class="cls-16" points="1114.68 246.58 1103.07 245.91 1099.54 253.87 1098.94 264.06 1102.72 266.64 1104.51 263.8 1102.66 273.17 1108.26 278.49 1112.51 275.4 1115.56 260.55 1114.68 246.58"/></g><g id="pantorrilla_der.-8" data-name="pantorrilla der."><ellipse class="cls-17" cx="1050.98" cy="309.5" rx="15.57" ry="14.45" transform="translate(-2.05 7.05) rotate(-0.38)"/><path class="cls-17" d="M1035.63,307.13l30.73-.64c2.41,20.12,1.27,35.84-2.2,45.88l-26.55,1A107.46,107.46,0,0,1,1035.63,307.13Z"/></g><g id="pie_der.-7" data-name="pie der."><ellipse class="cls-17" cx="1050.9" cy="353.38" rx="13.29" ry="11.98" transform="translate(-4.91 14.95) rotate(-0.81)"/><path class="cls-18" d="M1037.61,353.7a7.48,7.48,0,0,0,.89,4l25-.46a7.91,7.91,0,0,0,.73-4.21Z"/><path class="cls-19" d="M1042.58,357.42h-6.52l3.28,2.88c-1.46,1-13.44,3.4-14,19.32l42.74.3a30.49,30.49,0,0,0-5.76-19.75l2.41-3.33Z"/><path class="cls-20" d="M1067.86,376.47h-42.38l0,3.68h42.76C1068.22,378.73,1068.28,377.16,1067.86,376.47Z"/><path class="cls-21" d="M1025.72,376.2a.79.79,0,0,0,.26-.63c-.81-5,6.66-12.27,7.71-12.45,0,0,9.19,12.35,12.66,13.08"/></g><g id="muslo_der.-8" data-name="muslo der."><path id="muslo-10" data-name="muslo" class="cls-17" d="M1031.85,233.46c-1.49,12.54-5.41,54.72,5.67,80l24.35-.35s11.21-46.93,8.92-58.17c-2.77-13.6-36.08-25.54-35.73-22.5h0A1.92,1.92,0,0,0,1031.85,233.46Z"/><ellipse class="cls-17" cx="1051.67" cy="244.98" rx="21.39" ry="19.87" transform="translate(-1.54 6.7) rotate(-0.36)"/><path class="cls-17" d="M1030.31,246.09l40.56.35c1.15-.05.52,53.14-5.39,66.42l-30.06.71S1025.21,283.57,1030.31,246.09Z"/><path class="cls-22" d="M1031.85,233.46,1044,251.33l-.45,28.82L1031,291S1026.7,259.5,1031.85,233.46Z"/></g><g id="pantorrilla_der.-9" data-name="pantorrilla der."><ellipse class="cls-17" cx="1090.27" cy="308.9" rx="13.17" ry="14.45"/><path class="cls-17" d="M1103.18,306.05l-26,.33c-1.43,20.18,0,35.86,3.24,45.79l22.48.13A126.37,126.37,0,0,0,1103.18,306.05Z"/></g><g id="pie_izq.-4" data-name="pie izq."><ellipse class="cls-17" cx="1091.66" cy="352.76" rx="11.25" ry="11.98"/><path class="cls-18" d="M1102.9,352.76a8.57,8.57,0,0,1-.58,4.05l-21.12.61a9.26,9.26,0,0,1-.79-4.18Z"/><path class="cls-19" d="M1104.59,356.94l1.89,0-1.62,2.85s9.84,4.26,11.56,20.34l-44-.83s-.54-13.23,9.55-19.25l-2.67-3.24Z"/><polygon class="cls-20" points="1115.92 377.18 1072.56 376.6 1072.37 380.16 1116.42 380.16 1115.92 377.18"/></g><g id="muslo_der.-9" data-name="muslo der."><path id="muslo-11" data-name="muslo" class="cls-17" d="M1104.15,232.3c1.64,12.49,6.23,54.51-2.38,80.12l-20.61.42s-10.89-46.56-9.29-57.86c1.93-13.68,29.74-26.67,29.53-23.62h0A1.56,1.56,0,0,1,1104.15,232.3Z"/><ellipse class="cls-17" cx="1087.74" cy="244.44" rx="18.1" ry="19.87"/><path class="cls-17" d="M1105.83,244.87l-34.28,1.64c-1,0,1.16,53.12,6.56,66.2l25.44-.23S1111.28,282.17,1105.83,244.87Z"/><path class="cls-22" d="M1104.15,232.3l-9.73,18.24,1.25,28.79,10.95,10.41S1109.29,258.16,1104.15,232.3Z"/></g><g id="torzo_con_ropa-5" data-name="torzo con ropa"><path id="torzo-6" data-name="torzo" class="cls-1" d="M1100.85,137.59h-68c1.43,1.06,5.71,87.29-2.27,102.66,0,0,25.17-3.55,27.5,11.21h25.42s2.17-9.51,21.35-14.64C1104.9,237.53,1097.22,174,1100.85,137.59Z"/><path class="cls-14" d="M1049.54,133.09l-16.68,4.66c.22,26.12,1.45,57.31.84,84.69,18,2.06,35.08,6.79,44.38,1.07l2.35-2.57c4.31,3.33,5.4,10.2,10.94,3.86l3.05-2.25c.74,4.32,5.49,1,10.79-1.62-3-20.65-4.41-51.56-4.36-83.18l-16.31-5.31"/><path class="cls-15" d="M1058.26,129.28s7.18,4.11,17.13-.36l9.15,3.36c-19.66,18.54-35,.64-35,.64S1055.42,131.1,1058.26,129.28Z"/><path class="cls-17" d="M1030.17,240.7s24.46-4.1,27.92,10.76h0c7.8,1,16.42.77,25.41,0h0c.78.33,8.44-8.49,21.71-13.1.22-4.14.28-8.49.21-13l-72.56,3.86C1031.76,233.7,1030.17,240.7,1030.17,240.7Z"/></g><g id="bicep_der.-6" data-name="bicep der."><circle class="cls-14" cx="1034.53" cy="148.9" r="12.26"/><polygon class="cls-1" points="1022.35 146.2 1016.07 205.28 1029.28 203.48 1039.5 146.12 1022.35 146.2"/><g id="manga-11" data-name="manga"><path class="cls-14" d="M1042.22,139.71a9.83,9.83,0,0,0-6.61-3.34c-4.78-.06-7.15,1-9.47,2.71-2.59,1.94-5,4.18-6,7.25l-7.64,22.93,24.11-.54,1.4-14.36C1043.88,151,1045,143.22,1042.22,139.71Z"/><path class="cls-15" d="M1013.31,169.14l-1.95-.08a.66.66,0,0,0-.68.64l-.06,2.18a.67.67,0,0,0,.62.7,241.22,241.22,0,0,0,25.61-.33.67.67,0,0,0,.62-.66l0-2.29a.67.67,0,0,0-.67-.69l-23.47.53Z"/></g></g><g id="antebrazo_der.-6" data-name="antebrazo der."><path id="antebrazo-11" data-name="antebrazo" class="cls-1" d="M1016.37,204.36l13.33,0s2.67,26.64-3.72,40.34H1014.6S1012.19,214.18,1016.37,204.36Z"/><circle class="cls-1" cx="1022.84" cy="205.56" r="6.67"/></g><g id="mano_der.-6" data-name="mano der."><circle class="cls-16" cx="1020.56" cy="247.18" r="6.07"/><polygon class="cls-1" points="1014.53 247.88 1013.55 258.7 1016.43 273.59 1026.83 281.34 1027.71 279.03 1024.56 262.08 1030.58 271.92 1029.65 252.22 1026.58 246.47 1014.53 247.88"/><polygon class="cls-16" points="1014.6 244.74 1026.22 244.21 1029.65 252.22 1030.13 262.41 1026.32 264.95 1024.56 262.08 1026.31 271.47 1020.63 276.73 1016.43 273.59 1013.55 258.7 1014.6 244.74"/></g><path class="cls-35" d="M1086.32,253.21c.08-1.21-3.61,3.73-15.21-.87"/><path class="cls-35" d="M1071.09,252.59c.08-1.21-6,4.29-17.63-.31"/><g id="CINTURON-5" data-name="CINTURON"><path class="cls-19" d="M1105.21,220.93h-71.54c-1.48,2.2-1.75,5.64-.78,8.87l72.57.36C1105.72,226.64,1105.15,223.56,1105.21,220.93Z"/><line class="cls-36" x1="1096.62" y1="220.91" x2="1096.62" y2="230.09"/><line class="cls-36" x1="1094.37" y1="220.91" x2="1094.37" y2="230.1"/><line class="cls-36" x1="1075.61" y1="221.1" x2="1075.61" y2="230.17"/><line class="cls-36" x1="1073.09" y1="221.1" x2="1073.09" y2="230.17"/><line class="cls-36" x1="1052.83" y1="221.24" x2="1052.83" y2="230.17"/><line class="cls-36" x1="1050.52" y1="221.26" x2="1050.52" y2="230.27"/></g></g><g id="DEL_OTRO_LADO" data-name="DEL OTRO LADO"><path class="cls-1" d="M1214.5,30.92s-14.54,10.25-13.93,37.2a3.72,3.72,0,0,0-5.15,2.55,4.56,4.56,0,0,0-.09,2.94c.44,1.3,1.61,2.75,4.75,2,0,0,7.81,28.78,27.69,36.34,0,0,10.61,6.27,30.61,3.62L1270,83.36l-6.1-2.8s7.22-2.74,5.4-10.22c0,0-1.82-7.08-8.89-6.11l-8.58,2.18Z"/><g id="CABELLO-2" data-name="CABELLO"><path class="cls-4" d="M1282.52,109.83s-8,3.76-24.14,5.69c0,0,9.51-23.61,5.48-35,0,0,5.68-3.26,5-8.6,0,0-.24-8.23-8.41-6.89,0,0-4.83,40.73-28.85,57.8,0,0,20.19-23.9,14.34-56.58,0,0-1.1-8.78-14-16.71,0,0-18.9-10-17.31-20.49,0,0,8.17-21,36.58-20.61,2.89-1.74,17.85.78,32.32,7.13A46.1,46.1,0,0,1,1310,47.75c.48,2.13.91,4.35,1.28,6.64,3.33,20.73-5.65,41.74-23.56,52.69A44.18,44.18,0,0,1,1282.52,109.83Z"/><path class="cls-27" d="M1288.5,41.78s14.63,4.39,20-7.81c0,0,4.63-10.73-4.15-15.12,0,0,.49-20-17.56-18.27,0,0-18.29.22-19.27,23.15C1267.52,23.73,1284.11,35.19,1288.5,41.78Z"/><path class="cls-6" d="M1292.51,41.81s-13.91-17.52-24.89-21l-.6,3.49s14.39,8.42,20.85,18.3A31.78,31.78,0,0,0,1292.51,41.81Z"/><path class="cls-5" d="M1203,38.48c4.94-6.95,11.55-7.56,11.55-7.56s-5.67,4.45-5.32,10.49"/></g><g id="ACCESORIOS_OREJ-2" data-name="ACCESORIOS OREJ"><circle class="cls-7" cx="1263.25" cy="80.98" r="3.1"/><path class="cls-28" d="M1262.62,75.84s2.28-1.31,1.64-5.35"/><path class="cls-28" d="M1266.14,70.34s-4-.13-5.77,2.12"/><circle class="cls-7" cx="1267.52" cy="77.88" r="2.06"/></g><path id="cuello-7" data-name="cuello" class="cls-1" d="M1238.71,136.88c3.57-5.12,3.32-23.11,3.32-23.11.72.32,8.45.6,8.45.6v.1a40.14,40.14,0,0,0,7.8-.7s-.45,18,3.12,23.16C1254,141.16,1246.41,141.19,1238.71,136.88Z"/><path class="cls-15" d="M1259.76,131.41a39.25,39.25,0,0,1-19-.36l-3.72,5.24a23.72,23.72,0,0,0,26.22.75Z"/><g id="pantorrilla_der.-10" data-name="pantorrilla der."><ellipse class="cls-17" cx="1251.67" cy="308.79" rx="14.97" ry="14.67"/><path class="cls-17" d="M1237,305.9l29.57.33c1.63,20.49,0,36.42-3.69,46.5l-25.56.14A115,115,0,0,1,1237,305.9Z"/></g><g id="pie_der.-8" data-name="pie der."><path class="cls-1" d="M1266.77,381.06c1.47-22.84-20-22.89-20-22.89-18.54-.39-21.29,22.1-21.29,22.1Z"/><ellipse class="cls-17" cx="1250.09" cy="353.33" rx="12.79" ry="11.98"/><path class="cls-18" d="M1237.3,353.33a7.75,7.75,0,0,0,.66,4.05l24,.61a8.13,8.13,0,0,0,.9-4.18Z"/><path class="cls-19" d="M1238,357.39l-1.81-.05,1.42,2.91c-1.67,1-17.74,4.65-18.33,20.57l48.59.3a27.6,27.6,0,0,0-6.55-19.75l1.09-3.37Z"/><path class="cls-20" d="M1219.63,377.4l48.18.55,0,3.17-48.59-.3C1219.23,379.39,1219.14,378.09,1219.63,377.4Z"/><path class="cls-21" d="M1219.63,377.4a1.56,1.56,0,0,0,.3-.63c2.62-15.29,20.4-16.68,32.6-5.42,2.7,2.52,3.08,3.82,5.43,6.56Z"/></g><g id="muslo_der.-10" data-name="muslo der."><path id="muslo-12" data-name="muslo" class="cls-17" d="M1235.53,231c-1.88,12.69-7.11,55.38,2.71,81.38l23.51.43s12.42-47.29,10.6-58.77c-2.21-13.89-33.93-27.08-33.69-24h0A1.82,1.82,0,0,0,1235.53,231Z"/><ellipse class="cls-17" cx="1254.25" cy="243.32" rx="20.65" ry="20.18"/><path class="cls-17" d="M1233.61,243.76l39.11,1.66c1.11,0-1.33,54-7.49,67.24l-29-.24S1227.4,281.64,1233.61,243.76Z"/><path class="cls-22" d="M1235.53,231l11.1,18.53-1.43,29.25-12.49,10.57S1229.66,257.25,1235.53,231Z"/></g><g id="TORZO-7" data-name="TORZO"><path class="cls-14" d="M1263.08,137a.3.3,0,0,1,.15.06c5,3.25,8.26,12,9.82,21.11,2.5,14.69-2.42,62.08-1.38,72.69l-36.28.47c1,5.58-16.94-48.1,1.48-95.08C1236.87,136.29,1249.79,145.23,1263.08,137Z"/><path class="cls-19" d="M1270.75,221.75c-.22,0,.6,4.85.79,10.07l-36.28-.48s-2.52-3.18-2.47-9.66Z"/><line class="cls-30" x1="1251.27" y1="221.68" x2="1251.27" y2="231.53"/><line class="cls-30" x1="1249.02" y1="221.68" x2="1249.02" y2="231.54"/></g><g id="bicep_der.-7" data-name="bicep der."><circle class="cls-14" cx="1267.37" cy="149.12" r="11.49"/><polygon class="cls-1" points="1276.55 147.97 1279.15 207.33 1266.08 204.71 1259.43 146.83 1276.55 147.97"/><g id="manga-12" data-name="manga"><path class="cls-14" d="M1277.35,147.43l5.93,24.53-28.5,0,1.2-22.17C1258.25,138.13,1277.49,142.93,1277.35,147.43Z"/><path class="cls-15" d="M1282.05,171.8l2.32-.1a.78.78,0,0,1,.82.68l.17,2.33a.72.72,0,0,1-.71.75c-2.82.15-13.44.59-30.52-.19-.41,0-.77-.79-.78-1.17l-.11-2a.73.73,0,0,1,.78-.74l28,.42Z"/></g></g><g id="antebrazo_der.-7" data-name="antebrazo der."><path id="antebrazo-12" data-name="antebrazo" class="cls-1" d="M1279,206.24l-13.31-.78s-4.32,26.42,1.21,40.49l11.36.7S1282.57,216.3,1279,206.24Z"/><circle class="cls-1" cx="1272.47" cy="207.04" r="6.67"/></g><g id="mano_der.-7" data-name="mano der."><circle class="cls-16" cx="1272.18" cy="248.72" r="6.07"/><polygon class="cls-1" points="1278.15 249.8 1278.46 260.65 1274.66 275.33 1263.8 282.43 1263.07 280.06 1267.26 263.34 1260.64 272.8 1262.79 253.18 1266.21 247.63 1278.15 249.8"/><polygon class="cls-16" points="1278.27 246.65 1266.71 245.41 1262.79 253.18 1261.68 263.33 1265.33 266.1 1267.26 263.34 1264.94 272.61 1270.27 278.2 1274.66 275.33 1278.46 260.65 1278.27 246.65"/></g><g id="GESTOS_CARA-2" data-name="GESTOS CARA"><path class="cls-4" d="M1222.54,60.25l-16.07-5.79c.09-.05,1.32-3.32,6.57-1.69C1213.35,52.62,1218.85,55.17,1222.54,60.25Z"/><path class="cls-12" d="M1207,51.14a2.86,2.86,0,0,0-.48,3.32"/><ellipse class="cls-9" cx="1206.13" cy="64.76" rx="1.95" ry="2.8"/><circle class="cls-10" cx="1205.99" cy="63.39" r="0.84"/><circle class="cls-3" cx="1228.89" cy="73.91" r="11.36"/><path class="cls-31" d="M1200.57,68.12a46.48,46.48,0,0,0-.49,7.44s-4.59,1.61-4.93-3.6C1195.15,72,1195.36,66.66,1200.57,68.12Z"/></g></g><g id="_3_4_IZQ" data-name="3/4 IZQ"><g id="cara-9" data-name="cara"><g id="cara-10" data-name="cara"><path class="cls-4" d="M1493.41,37.43s11.46,19.7,10.91,31.93c0,0,2.18,27.09-18.14,37.14l3.23-60Z"/><path class="cls-1" d="M1384.32,65.19c1.75-8.64,9.28-43.49,42.75-47.45,1.94-.23,3.9-.06,5.84-.24,8.86-.85,37.8-1.16,59.35,26.73.45.58.89,1.18,1.37,1.75,1.13,1.37-1.73,6.59,1.09,21.84,0,0,7.67-.53,10.09,4.16a5.66,5.66,0,0,1,.59,2.83c-.06,2,.77,8.6-10.67,9.39,0,0-3.67,17.17-15,23.76,0,0-14.32,12.87-40.06,11.86-3.65-.67-39.36.38-54.3-34.81,0,0,1.28-.13.8-.17-.86-4.9-.83-7.16-1.58-15.08C1384.73,68.8,1384.33,66.14,1384.32,65.19Z"/></g><path class="cls-2" d="M1498.45,78.92s2.21-1.28,1.59-5.22"/><path class="cls-2" d="M1501.88,73.55s-3.92-.12-5.63,2.08"/><circle class="cls-3" cx="1396.04" cy="78.56" r="10.93"/><circle class="cls-3" cx="1456.61" cy="78.51" r="10.93"/></g><path class="cls-4" d="M1372.17,22.9s-10,20.58,10.52,20.71c3.49-4.51-.2,5.47-.35,14.17a96.15,96.15,0,0,0,21.56,62.69c1.95,2.37,2.07,1.84,4.44,3.43,0,0-21.13-30.53-15.41-50.34,0,0,7.65-17.64,19.46-25,4-2.5,12.76-5.81,14.64-10.15,1.29-3,2.76-3.76,4.2-9,0,0,3.91-9.77-9.78-14,0,0-5.87-4.15-14.89,1.29,0,0-5.66-19.61-24-13.76a16.18,16.18,0,0,0-9.8,8.32c-1.75,3.68-2.45,8.73,1.41,14.43"/><path class="cls-4" d="M1505.05,11.53c-2.69-2.73-6.7-3.15-10-2.91-3.64-7.6-11.81-4.77-11.81-4.77-7.45.72-11.79,13.65-11.79,13.65a44.82,44.82,0,0,0-27.43-8.28c-15.23.15-23.77,7.88-23.77,7.88,13.78,4.76,9.58,13.74,9.58,13.74,13.79,14.59,27.1,17.07,27.1,17.07,7.63,0,16.9,10.39,19.29,12.38.48.39.27-.54.58,0,4.91,8.53,5.63,14.75,5.52,18.11-.08,2.41-.09,4.82.05,7.23,1.16,19.59-7.26,38.27-7.26,38.27,7.33-7,17.68-28.3,17.68-28.3,1.92-3.94.24-9,1.26-12.84.8-4.64,1.49-8.2,2-12.79v-.59a5.34,5.34,0,0,1,.11-1.08l0-1.35a20.27,20.27,0,0,1-.09-2.69c0-.22,1.56-.43,1.59-.64-.42-14.19-2.74-20.32-2.74-20.32,12.46-1.72,14.89-8.16,14.89-8.16C1517.27,18.56,1505.05,11.53,1505.05,11.53Z"/><path class="cls-26" d="M1429.09,47.61s3.41-4.48,1.63-17.31c0,0,2.2,12.74,9.94,17.61"/><path class="cls-6" d="M1492.86,44.48s-4.83-12.43-22.18-24.27c0,0,.68-2.57.8-2.95s17.06,5.88,25.61,26.91Z"/><path class="cls-6" d="M1405.86,16.44S1390,29,1384.28,43.12l-3.35-.07s4-17.5,23.74-30.67Z"/><circle class="cls-7" cx="1500.95" cy="82.6" r="2.06"/><circle class="cls-7" cx="1495.96" cy="84.34" r="3.1"/><g id="ojos_nariz_boca-3" data-name="ojos,nariz, boca"><ellipse class="cls-9" cx="1421.61" cy="67.84" rx="1.95" ry="2.8"/><ellipse class="cls-9" cx="1435.65" cy="67.6" rx="1.95" ry="2.8"/><circle class="cls-10" cx="1435.65" cy="66.47" r="0.84"/><circle class="cls-10" cx="1421.75" cy="66.47" r="0.84"/><ellipse class="cls-11" cx="1428.92" cy="71.99" rx="4.86" ry="1.85"/></g><g id="cejas-3" data-name="cejas"><path class="cls-4" d="M1407.42,64.51l16.07-5.8c-.09-.05-1.32-3.32-6.57-1.69C1416.61,56.87,1411.11,59.42,1407.42,64.51Z"/><path class="cls-12" d="M1422.52,55.32a2.86,2.86,0,0,1,.48,3.32"/><path class="cls-4" d="M1450.41,62.21,1434,58.59c.08-.06.87-3.42,6.21-2.49C1440.46,55.92,1446.16,57.71,1450.41,62.21Z"/><path class="cls-12" d="M1434.25,55.07a2.88,2.88,0,0,0,0,3.36"/></g><g id="boca-3" data-name="boca"><path class="cls-13" d="M1417.64,89.36s23.71,6.62,37.41-14.29"/><path class="cls-13" d="M1450.52,74s7.57-.54,7,5.45"/></g><path id="cuello-8" data-name="cuello" class="cls-1" d="M1430.64,142.41c3.57-5.12,3.33-23.11,3.33-23.11.72.32,8.45.6,8.45.6V120a40.93,40.93,0,0,0,7.81-.71s-.46,18,3.11,23.17C1445.9,146.69,1438.34,146.72,1430.64,142.41Z"/><g id="bicep_izq.-6" data-name="bicep izq."><circle class="cls-14" cx="1408.25" cy="154.63" r="12.26"/><polygon class="cls-1" points="1395.95 152.56 1392.73 211.89 1405.83 209.41 1413.07 151.6 1395.95 152.56"/><g id="manga-13" data-name="manga"><path class="cls-14" d="M1415.46,145.06a9.88,9.88,0,0,0-6.78-3c-4.77.19-7.09,1.35-9.31,3.2-2.5,2.07-4.74,4.43-5.6,7.55l-6.45,23.29,24-1.78.66-14.42C1417.7,156.28,1418.43,148.42,1415.46,145.06Z"/><path class="cls-15" d="M1388.1,175.94l-1.95,0a.65.65,0,0,0-.64.68l0,2.18a.66.66,0,0,0,.65.66,239.59,239.59,0,0,0,25.57-1.65.67.67,0,0,0,.58-.69l-.1-2.29a.66.66,0,0,0-.7-.65l-23.42,1.74Z"/></g></g><g id="antebrazo_izq.-6" data-name="antebrazo izq."><path id="antebrazo-13" data-name="antebrazo" class="cls-1" d="M1393,210.8l13.33-.34s3.45,26.55-2.54,40.43l-11.38.33S1389.11,220.74,1393,210.8Z"/><circle class="cls-1" cx="1399.5" cy="211.82" r="6.67"/></g><g id="mano_izq.-6" data-name="mano izq."><circle class="cls-16" cx="1397.63" cy="253.41" r="6.07"/><polygon class="cls-1" points="1391.61 254.19 1390.77 265.01 1393.82 279.87 1404.31 287.5 1405.16 285.17 1401.82 268.26 1407.95 278.04 1406.79 258.34 1403.65 252.63 1391.61 254.19"/><polygon class="cls-16" points="1391.64 251.04 1403.26 250.38 1406.79 258.34 1407.39 268.53 1403.61 271.11 1401.82 268.26 1403.67 277.63 1398.06 282.95 1393.82 279.87 1390.77 265.01 1391.64 251.04"/></g><g id="pantorrilla_der.-11" data-name="pantorrilla der."><ellipse class="cls-17" cx="1458.51" cy="313.05" rx="14.45" ry="15.57" transform="translate(1135.69 1769.43) rotate(-89.62)"/><path class="cls-17" d="M1473.86,310.68l-30.73-.64c-2.41,20.11-1.27,35.84,2.19,45.88l26.55,1A107.47,107.47,0,0,0,1473.86,310.68Z"/></g><g id="pie_der.-9" data-name="pie der."><path class="cls-1" d="M1439.91,383.65c-.4-22.88,21.9-22,21.9-22,19.28.43,21,23,21,23Z"/><ellipse class="cls-17" cx="1458.59" cy="356.93" rx="11.98" ry="13.29" transform="translate(1081 1810.31) rotate(-89.19)"/><path class="cls-18" d="M1471.88,357.25a7.57,7.57,0,0,1-.89,4l-25-.46a7.91,7.91,0,0,1-.73-4.21Z"/><path class="cls-19" d="M1471,361.28l1.89,0-1.62,2.84s9.86,4.46,11.58,20.53l-44-1s-.54-13.23,9.56-19.25l-2.76-3.61Z"/><polygon class="cls-20" points="1482.32 381.52 1438.98 380.5 1438.81 383.67 1482.84 384.69 1482.32 381.52"/><path class="cls-21" d="M1482.32,381.52s-9.39-10-21.27-8.82c0,0-14.37-.06-22.07,7.8Z"/></g><g id="muslo_der.-11" data-name="muslo der."><path id="muslo-13" data-name="muslo" class="cls-17" d="M1477.64,237c1.49,12.54,5.41,54.72-5.67,80l-24.35-.35s-11.22-46.93-8.92-58.17c2.77-13.6,36.08-25.54,35.73-22.5h0A1.92,1.92,0,0,1,1477.64,237Z"/><ellipse class="cls-17" cx="1457.81" cy="248.53" rx="19.87" ry="21.39" transform="translate(1200.01 1704.73) rotate(-89.64)"/><path class="cls-17" d="M1479.18,249.64l-40.56.35c-1.15-.05-.52,53.14,5.39,66.41l30.06.72S1484.28,287.12,1479.18,249.64Z"/><path class="cls-22" d="M1477.64,237l-12.15,17.87.45,28.82,12.57,10.81S1482.79,263.05,1477.64,237Z"/></g><g id="pantorrilla_der.-12" data-name="pantorrilla der."><ellipse class="cls-17" cx="1419.22" cy="312.45" rx="13.17" ry="14.45"/><path class="cls-17" d="M1406.31,309.6l26,.33c1.43,20.18,0,35.86-3.24,45.79l-22.48.13A126.37,126.37,0,0,1,1406.31,309.6Z"/></g><g id="pie_der.-10" data-name="pie der."><path class="cls-1" d="M1432.5,384c1.3-22.84-17.59-22.89-17.59-22.89-16.31-.39-18.74,22.1-18.74,22.1Z"/><ellipse class="cls-17" cx="1417.83" cy="356.3" rx="11.25" ry="11.98"/><path class="cls-18" d="M1406.59,356.3a8.59,8.59,0,0,0,.58,4.06l21.11.61a9,9,0,0,0,.79-4.18Z"/><path class="cls-19" d="M1407.17,360.36l-1.6,0,1.25,2.91c-1.46,1-15.6,4.65-16.12,20.57l42.73.3a30.36,30.36,0,0,0-5.75-19.75l1-3.37Z"/><path class="cls-20" d="M1391,380.38l42.38.55v3.17l-42.73-.3C1390.69,382.37,1390.61,381.07,1391,380.38Z"/><path class="cls-21" d="M1391,380.38a1.63,1.63,0,0,0,.26-.63c2.31-15.29,18-16.68,28.68-5.42,2.37,2.52,2.71,3.82,4.78,6.56Z"/></g><g id="muslo_der.-12" data-name="muslo der."><path id="muslo-14" data-name="muslo" class="cls-17" d="M1405.33,235.85c-1.64,12.49-6.22,54.51,2.39,80.11l20.6.43s10.9-46.56,9.3-57.86c-1.94-13.68-29.75-26.67-29.54-23.62h0A1.56,1.56,0,0,0,1405.33,235.85Z"/><ellipse class="cls-17" cx="1421.75" cy="247.99" rx="18.1" ry="19.87"/><path class="cls-17" d="M1403.66,248.42l34.28,1.64c1,0-1.16,53.12-6.56,66.2l-25.44-.23S1398.21,285.72,1403.66,248.42Z"/><path class="cls-22" d="M1405.33,235.85l9.74,18.24-1.25,28.79-11,10.41S1400.19,261.71,1405.33,235.85Z"/></g><g id="torzo_con_ropa-6" data-name="torzo con ropa"><path id="torzo-8" data-name="torzo" class="cls-1" d="M1473.87,141.14h-68c1.43,1.06,5.71,87.29-2.27,102.66,0,0,25.17-3.55,27.5,11.21h25.43s2.17-9.51,21.34-14.64C1477.91,241.08,1470.23,177.59,1473.87,141.14Z"/><path class="cls-14" d="M1422.56,136.64l-16.69,4.66c2.3,25.79,3.15,56.06-.26,83.88l73.07.5c1.18-21.74-.28-54-4.81-84.38L1457.55,136"/><path class="cls-15" d="M1431.28,132.83s7.17,4.11,17.12-.36l9.15,3.36c-19.65,18.54-35,.64-35,.64S1428.43,134.65,1431.28,132.83Z"/><path class="cls-17" d="M1403.18,244.25s24.47-4.1,27.92,10.76h0c7.8,1,16.42.77,25.41,0h0c.78.33,8.44-8.49,21.71-13.1.23-4.14.28-8.49.21-13l-72.56,3.86C1404.77,237.25,1403.18,244.25,1403.18,244.25Z"/><polygon class="cls-22" points="1444.27 233.37 1445.23 255.67 1447.89 255.67 1447.32 233.29 1444.27 233.37"/><g id="CINTURON_FINAL-3" data-name="CINTURON FINAL"><g id="CINTURON-6" data-name="CINTURON"><path class="cls-19" d="M1478.68,225.68l-73.07-.5c-.51,2.63-1.39,6.6-1.34,9.44l75,.29C1479.53,231.39,1478.62,228.31,1478.68,225.68Z"/><line class="cls-24" x1="1420.07" y1="225.47" x2="1420.07" y2="234.45"/><line class="cls-24" x1="1422.32" y1="225.47" x2="1422.32" y2="234.45"/><line class="cls-24" x1="1441.08" y1="225.65" x2="1441.08" y2="234.52"/><line class="cls-24" x1="1443.6" y1="225.65" x2="1443.6" y2="234.52"/><line class="cls-24" x1="1463.86" y1="225.8" x2="1463.86" y2="234.52"/><line class="cls-24" x1="1466.17" y1="225.81" x2="1466.17" y2="234.62"/></g><rect class="cls-25" x="1457.91" y="220.7" width="11.9" height="6.99"/><rect class="cls-25" x="1459.62" y="227.69" width="8.78" height="9.45"/></g></g><g id="bicep_der.-8" data-name="bicep der."><circle class="cls-14" cx="1474.96" cy="152.45" r="12.26"/><polygon class="cls-1" points="1487.17 149.88 1492.81 209.03 1479.62 207.08 1470.02 149.62 1487.17 149.88"/><g id="manga-14" data-name="manga"><path class="cls-14" d="M1467.37,143.18a9.84,9.84,0,0,1,6.64-3.27c4.78,0,7.14,1.06,9.44,2.81,2.58,2,4.91,4.23,5.9,7.32l7.4,23-24.1-.8-1.25-14.38C1465.59,154.48,1464.54,146.66,1467.37,143.18Z"/><path class="cls-15" d="M1496,172.92l2-.06a.66.66,0,0,1,.67.65l0,2.18a.67.67,0,0,1-.63.69,241.48,241.48,0,0,1-25.61-.61.66.66,0,0,1-.61-.66v-2.29a.67.67,0,0,1,.69-.68l23.46.78Z"/></g></g><polygon class="cls-23" points="1455.05 161.6 1455.05 165.82 1462.84 169.82 1469.4 165.73 1469.4 161.42 1455.05 161.6"/><path class="cls-15" d="M1455.05,158.27v3.33a54.73,54.73,0,0,0,14.35-.18v-3.15A61.24,61.24,0,0,1,1455.05,158.27Z"/><g id="antebrazo_der.-8" data-name="antebrazo der."><path id="antebrazo-14" data-name="antebrazo" class="cls-1" d="M1492.52,208.1l-13.33-.1s-3,26.61,3.28,40.38l11.39.12S1496.6,218,1492.52,208.1Z"/><circle class="cls-1" cx="1486.04" cy="209.23" r="6.67"/></g><g id="mano_der.-8" data-name="mano der."><circle class="cls-16" cx="1487.88" cy="250.87" r="6.07"/><polygon class="cls-1" points="1493.9 251.64 1494.76 262.47 1491.72 277.32 1481.24 284.97 1480.38 282.64 1483.71 265.73 1477.59 275.51 1478.73 255.81 1481.86 250.1 1493.9 251.64"/><polygon class="cls-16" points="1493.86 248.5 1482.24 247.85 1478.73 255.81 1478.14 266 1481.92 268.58 1483.71 265.73 1481.87 275.1 1487.48 280.42 1491.72 277.32 1494.76 262.47 1493.86 248.5"/></g></g><g id="FRONTAL2"><g id="cara-11" data-name="cara"><g id="cara-12" data-name="cara"><path class="cls-1" d="M1574.72,67.3s-8.06-1.17-8.69,7.39c0,0-.8,7,12.9,9.15,0,0,6.48,16.36,17.8,22.94,0,0,14.32,12.87,40.06,11.87,0,0,30.64,2,54.3-34.81,0,0,11.86,0,11.68-10.51,0,0-.57-6.65-8.51-6,0,0-6.85-46.32-44.86-50.81-1.93-.23-3.9-.06-5.84-.25-8.86-.84-37.8-1.16-59.35,26.74-.45.58-.89,1.18-1.36,1.75C1581.71,46.17,1577.55,52,1574.72,67.3Z"/></g><path class="cls-2" d="M1693.83,74.56a7.11,7.11,0,0,1,6-1.54"/><path class="cls-2" d="M1696.35,78.26s1.91-1,2.25-5.24"/><path class="cls-2" d="M1572.35,77.4s-2.22-1.28-1.6-5.21"/><path class="cls-2" d="M1568.92,72s3.92-.12,5.62,2.07"/><circle class="cls-3" cx="1601.08" cy="78.21" r="10.93"/><circle class="cls-3" cx="1669.45" cy="76.88" r="10.93"/></g><path class="cls-4" d="M1569.12,25.18s-9.33,18.94,10.84,19.07c0,0-9.46,21.75-3.48,45.38,0,0,8,23.77,19.39,34.27,0,0-19.54-29.53-13.91-49.05,0,0,3.74-16.38,17.66-21.84,0,0,22.87-3.81,27.68-21.42,0,0,3.85-9.62-9.63-13.8a20.54,20.54,0,0,0-17,2.18s-3.16-20-21-14.54a16,16,0,0,0-9.74,8c-1.83,3.65-2.68,8.74,1.24,14.52"/><path class="cls-4" d="M1687.29,10.31s10.3-3.45,15.55,1.88c0,0,10.82,8.09,2.24,22.93,0,0-2.27,5.74-15.91,5.05,0,0,12,27.81-1.88,56.24,0,0-8.87,20.28-16.23,27.28,0,0,18.08-29.88,15.17-51.07a23.93,23.93,0,0,0-9.54-16.33c-.5-.37-1-.73-1.49-1.13-2.4-2-11.51-9.12-19.18-9.17,0,0-14.87.26-28.72-14.4,0,0,4.22-9-9.63-13.8,0,0,8.58-7.76,23.88-7.92a45.11,45.11,0,0,1,27.57,8.32s4.35-13,11.84-13.72c0,0,8.25-2.85,11.89,4.86"/><path class="cls-5" d="M1622.1,48.41s4.25-3.75,5-16.74c0,0-.34,13,6.34,19.3"/><g id="moñas-3" data-name="moñas"><path class="cls-6" d="M1580,44.25s4.5-12.44,20.67-24.28c0,0-.64-2.57-.74-2.95S1584,22.9,1576,43.93Z"/><path class="cls-6" d="M1669.12,18.19s14.91,10.47,20.05,22l3.3,0s-3.09-14.11-22-25.23Z"/></g><g id="aretes-3" data-name="aretes"><circle class="cls-7" cx="1572.91" cy="84.52" r="3.1"/><circle class="cls-7" cx="1693.89" cy="84.72" r="3.1"/><circle class="cls-7" cx="1698.41" cy="82.09" r="2.06"/><path class="cls-8" d="M1568.66,68.89s-2.36-1-2.32,1.1c0,0,0,2.12,2.58,1.11"/></g><g id="ojos_nariz_boca-4" data-name="ojos,nariz, boca"><ellipse class="cls-9" cx="1627.81" cy="66.95" rx="1.95" ry="2.8"/><ellipse class="cls-9" cx="1641.85" cy="66.71" rx="1.95" ry="2.8"/><circle class="cls-10" cx="1641.85" cy="65.59" r="0.84"/><circle class="cls-10" cx="1627.95" cy="65.59" r="0.84"/><ellipse class="cls-11" cx="1635.11" cy="71.1" rx="4.86" ry="1.85"/></g><g id="cejas-4" data-name="cejas"><path class="cls-4" d="M1613.62,63.62l16.07-5.79c-.09,0-1.32-3.33-6.57-1.7C1622.81,56,1617.31,58.53,1613.62,63.62Z"/><path class="cls-12" d="M1628.71,54.44a2.86,2.86,0,0,1,.49,3.32"/><path class="cls-4" d="M1656.61,61.32l-16.43-3.62c.08-.06.87-3.41,6.2-2.49C1646.66,55,1652.36,56.82,1656.61,61.32Z"/><path class="cls-12" d="M1640.45,54.19a2.85,2.85,0,0,0,0,3.35"/></g><g id="boca-4" data-name="boca"><path class="cls-13" d="M1626.72,88.94s23.71,6.62,37.41-14.29"/><path class="cls-13" d="M1659.6,73.57s7.57-.53,7,5.46"/></g><path id="cuello-9" data-name="cuello" class="cls-1" d="M1647.62,140.24c-3.57-5.12-3.32-23.11-3.32-23.11-.72.32-8.45.6-8.45.6v.1a40.34,40.34,0,0,1-7.81-.7s.46,18-3.11,23.16C1632.36,144.52,1639.92,144.55,1647.62,140.24Z"/><g id="bicep_der.-9" data-name="bicep der."><circle class="cls-14" cx="1601.91" cy="151.44" r="12.26"/><polygon class="cls-1" points="1590.2 147.12 1576.02 204.82 1589.35 204.81 1607.21 149.35 1590.2 147.12"/><g id="manga-15" data-name="manga"><path class="cls-14" d="M1610.77,143.37a9.87,9.87,0,0,0-6.1-4.2c-4.73-.7-7.22,0-9.75,1.41-2.83,1.57-5.47,3.47-6.9,6.38l-10.67,21.69,24,2.71,3.32-14C1610.89,154.81,1613.06,147.22,1610.77,143.37Z"/><path class="cls-15" d="M1578.15,168.64l-1.92-.35a.66.66,0,0,0-.75.55l-.36,2.15a.68.68,0,0,0,.52.78,245.49,245.49,0,0,0,25.42,3.12.66.66,0,0,0,.7-.57l.34-2.27a.67.67,0,0,0-.58-.77l-23.33-2.64Z"/></g></g><g id="antebrazo_der.-9" data-name="antebrazo der."><path id="antebrazo-15" data-name="antebrazo" class="cls-1" d="M1576.25,204.63l13.33.41s2,26.7-4.79,40.22L1573.4,245S1571.81,214.34,1576.25,204.63Z"/><circle class="cls-1" cx="1582.69" cy="206.01" r="6.67"/></g><g id="mano_der.-9" data-name="mano der."><circle class="cls-16" cx="1579.29" cy="247.55" r="6.07"/><polygon class="cls-1" points="1573.25 248.1 1571.98 258.88 1574.46 273.84 1584.65 281.87 1585.59 279.58 1582.9 262.55 1588.65 272.56 1588.25 252.83 1585.34 247 1573.25 248.1"/><polygon class="cls-16" points="1573.4 244.95 1585.04 244.74 1588.25 252.83 1588.46 263.04 1584.58 265.47 1582.9 262.55 1584.39 271.99 1578.59 277.09 1574.46 273.84 1571.98 258.88 1573.4 244.95"/></g><g id="bicep_izq.-7" data-name="bicep izq."><circle class="cls-14" cx="1672.82" cy="151.33" r="12.26"/><polygon class="cls-1" points="1684.59 147.18 1697.91 205.09 1684.59 204.88 1667.55 149.16 1684.59 147.18"/><g id="manga-16" data-name="manga"><path class="cls-14" d="M1664.08,143.13a9.83,9.83,0,0,1,6.16-4.11c4.74-.63,7.22.12,9.72,1.55,2.82,1.61,5.43,3.56,6.81,6.48l10.35,21.85-24,2.36L1670,157.17C1663.79,154.57,1661.73,147,1664.08,143.13Z"/><path class="cls-15" d="M1696.32,168.87l1.93-.31a.65.65,0,0,1,.74.56l.33,2.15a.68.68,0,0,1-.53.77,244.63,244.63,0,0,1-25.47,2.75.66.66,0,0,1-.69-.58l-.3-2.28a.67.67,0,0,1,.58-.76l23.37-2.29Z"/></g></g><g id="antebrazo_izq.-7" data-name="antebrazo izq."><path id="antebrazo-16" data-name="antebrazo" class="cls-1" d="M1697.67,204.84l-13.32.32s-2.13,26.69,4.53,40.25l11.39-.23S1702.05,214.57,1697.67,204.84Z"/><circle class="cls-1" cx="1691.23" cy="206.18" r="6.67"/></g><g id="mano_izq.-7" data-name="mano izq."><circle class="cls-16" cx="1694.44" cy="247.78" r="6.07"/><polygon class="cls-1" points="1700.49 248.26 1701.87 259.03 1699.55 274.02 1689.45 282.16 1688.49 279.88 1690.99 262.82 1685.35 272.89 1685.54 253.16 1688.39 247.3 1700.49 248.26"/><polygon class="cls-16" points="1700.3 245.12 1688.66 245.03 1685.54 253.16 1685.44 263.37 1689.35 265.76 1690.99 262.82 1689.6 272.28 1695.47 277.31 1699.55 274.02 1701.87 259.03 1700.3 245.12"/></g><g id="pantorrilla_der.-13" data-name="pantorrilla der."><ellipse class="cls-17" cx="1616.21" cy="310.06" rx="14.03" ry="14.45"/><path class="cls-17" d="M1602.45,307.21l27.71.33c1.52,20.18,0,35.85-3.46,45.78l-24,.14A119,119,0,0,1,1602.45,307.21Z"/></g><g id="pie_der.-11" data-name="pie der."><path class="cls-1" d="M1630.69,381.21c1.1-22.86-19-22.66-19-22.66-17.38-.18-19.69,22.34-19.69,22.34Z"/><circle class="cls-17" cx="1614.72" cy="353.91" r="11.98"/><path class="cls-18" d="M1602.74,353.81a8.22,8.22,0,0,0,.67,4.06l22.5.33a8.59,8.59,0,0,0,.79-4.19Z"/><path class="cls-19" d="M1603.41,357.87l-1.7,0,1.36,2.9s-9,4.14-11.09,20.15l39.7.37s.91-13.2-8-19.54l2.6-3.52Z"/><polygon class="cls-20" points="1592.55 377.74 1631.63 378.09 1631.68 381.26 1591.98 380.89 1592.55 377.74"/><path class="cls-21" d="M1592.55,377.74s8.78-9.72,19.45-8.15c0,0,13,.4,19.63,8.5Z"/></g><g id="muslo_der.-13" data-name="muslo der."><path id="muslo-15" data-name="muslo" class="cls-17" d="M1601.41,233.45c-1.75,12.49-6.63,54.52,2.54,80.12l22,.42s11.61-46.55,9.91-57.86c-2.07-13.67-31.69-26.66-31.47-23.61h0A1.69,1.69,0,0,0,1601.41,233.45Z"/><ellipse class="cls-17" cx="1618.9" cy="245.59" rx="19.28" ry="19.87"/><path class="cls-17" d="M1599.62,246l36.53,1.63c1,0-1.24,53.12-7,66.21l-27.11-.23S1593.82,283.33,1599.62,246Z"/><path class="cls-22" d="M1601.41,233.45l10.37,18.25-1.33,28.79-11.67,10.41S1595.93,259.32,1601.41,233.45Z"/></g><g id="pantorrilla_izq.-3" data-name="pantorrilla izq."><ellipse class="cls-17" cx="1662.46" cy="309.82" rx="14.03" ry="14.45"/><path class="cls-17" d="M1676.21,307l-27.71.33c-1.52,20.18,0,35.85,3.46,45.78l24,.14A119,119,0,0,0,1676.21,307Z"/></g><g id="pie_izq.-5" data-name="pie izq."><path class="cls-1" d="M1648,381c-1.1-22.86,19-22.66,19-22.66,17.37-.18,19.68,22.34,19.68,22.34Z"/><circle class="cls-17" cx="1663.94" cy="353.67" r="11.98"/><path class="cls-18" d="M1675.92,353.57a8.22,8.22,0,0,1-.67,4.06l-22.5.33a8.59,8.59,0,0,1-.79-4.19Z"/><path class="cls-19" d="M1675.25,357.63l1.71,0-1.37,2.9s9,4.14,11.09,20.15L1647,381s-.91-13.2,8-19.54l-2.59-3.52Z"/><polygon class="cls-20" points="1686.11 377.5 1647.03 377.85 1646.98 381.02 1686.68 380.65 1686.11 377.5"/><path class="cls-21" d="M1686.11,377.5s-8.78-9.72-19.45-8.15c0,0-12.94.4-19.63,8.5Z"/></g><g id="muslo_izq.-3" data-name="muslo izq."><path id="muslo-16" data-name="muslo" class="cls-17" d="M1677.25,233.21c1.75,12.49,6.63,54.52-2.53,80.12l-22,.42s-11.61-46.55-9.9-57.86c2.06-13.67,31.69-26.66,31.46-23.61h0A1.69,1.69,0,0,1,1677.25,233.21Z"/><ellipse class="cls-17" cx="1659.76" cy="245.35" rx="19.28" ry="19.87"/><path class="cls-17" d="M1679,245.79l-36.53,1.63c-1,0,1.24,53.12,7,66.21l27.1-.23S1684.84,283.09,1679,245.79Z"/><path class="cls-22" d="M1677.25,233.21l-10.37,18.25,1.33,28.79,11.67,10.41S1682.73,259.08,1677.25,233.21Z"/></g><g id="torzo_con_ropa-7" data-name="torzo con ropa"><path id="torzo-9" data-name="torzo" class="cls-1" d="M1670.36,139h-68s4.07,86.08-2.27,102.66c0,0,25.17-3.54,27.5,11.22H1653s5.54-9,24.71-14.13C1677.77,239.42,1666.72,175.41,1670.36,139Z"/><path class="cls-14" d="M1619.05,134.3,1602.36,139c1.15,25.69,1.69,56,.62,84l47.07,2.71,14.57-.6,11.43-1.62c-3.43-24.59-6.37-57.35-5.69-84.54L1654,133.65"/><path class="cls-15" d="M1627.77,130.65s7.17,4.11,17.12-.35l9.15,3.35c-19.65,18.54-35,.65-35,.65S1624.92,132.47,1627.77,130.65Z"/><path class="cls-17" d="M1599.68,242.08s24.46-4.11,27.91,10.75h0c7.79,1,16.41.77,25.4,0h0c.3.1,10.35-10.09,25.1-14l-1.84-12.39-73.9,4.12C1601.26,235.08,1599.68,242.08,1599.68,242.08Z"/><polygon class="cls-15" points="1642.27 151.7 1642.27 155.02 1656.63 154.85 1656.63 151.7 1642.27 151.7"/><polygon class="cls-23" points="1642.27 155.02 1642.27 159.25 1650.06 163.25 1656.63 159.16 1656.63 154.85 1642.27 155.02"/><polygon class="cls-22" points="1637.04 231.2 1638.01 253.5 1640.67 253.5 1640.09 231.12 1637.04 231.2"/><g id="CINTURON_FINAL-4" data-name="CINTURON FINAL"><g id="CINTURON-7" data-name="CINTURON"><path class="cls-19" d="M1676.05,223.5,1603,223c-.51,2.63-1.39,6.6-1.34,9.43l75,.29C1676.9,229.21,1676,226.13,1676.05,223.5Z"/><line class="cls-24" x1="1617.44" y1="223.29" x2="1617.44" y2="232.27"/><line class="cls-24" x1="1619.69" y1="223.29" x2="1619.69" y2="232.28"/><line class="cls-24" x1="1638.45" y1="223.48" x2="1638.45" y2="232.35"/><line class="cls-24" x1="1640.97" y1="223.48" x2="1640.97" y2="232.35"/><line class="cls-24" x1="1661.23" y1="223.62" x2="1661.23" y2="232.35"/><line class="cls-24" x1="1663.54" y1="223.64" x2="1663.54" y2="232.44"/></g><rect class="cls-25" x="1645.71" y="218.52" width="11.9" height="6.99"/><rect class="cls-25" x="1647.42" y="225.51" width="8.78" height="9.45"/></g></g></g></g></g></svg>